<svg xmlns="http://www.w3.org/2000/svg" version="1.1" xmlns:xlink="http://www.w3.org/1999/xlink" xmlns:svgjs="http://svgjs.com/svgjs" width="577" height="894" preserveAspectRatio="none" viewBox="0 0 577 894">
    <g mask="url(&quot;#SvgjsMask1106&quot;)" fill="none">
        <!-- ANIMATIONS -->
        <animate xlink:href="#path" 
        attributeType="CSS" 
        attributeName="stroke" 
        from="#92db8c" 
        to="white" 
        dur="3s" 
        repeatCount="indefinite"
        values="#92db8c; white; #92db8c"
        keyTimes="0; 0.5; 1"
        fill="freeze"
        id="anim-one"
        />

        <animate xlink:href="#path-2" 
        attributeType="CSS" 
        attributeName="stroke" 
        from="#92db8c" 
        to="white" 
        dur="5s" 
        repeatCount="indefinite"
        values="#92db8c; white; #92db8c"
        keyTimes="0; 0.5; 1"
        fill="freeze"
        />

        <animate xlink:href="#path-3" 
        attributeType="CSS" 
        attributeName="stroke" 
        from="#92db8c" 
        to="white" 
        dur="2s" 
        repeatCount="indefinite"
        values="#92db8c; white; #92db8c"
        keyTimes="0; 0.5; 1"
        fill="freeze"
        />


        <g mask="url(&quot;#SvgjsMask1107&quot;)">
            <path d="M255 455L245 465M185 475L175 465L165 465L155 465L145 465L135 465L125 465M365 455L355 445M445 445L435 435L425 435L415 435L405 435M395 445L385 455L375 465L365 465L355 465L345 465L335 465L325 465M205 475L195 465L185 465L175 455L165 455L155 455L145 455M305 455L295 465L285 465L275 465L265 465L255 465M325 455L315 445L305 445M435 445L425 455L415 455L405 455L395 455L385 465M575 445L565 445M585 445L575 445L565 435L555 435L545 435L535 435L525 435L515 435L505 435L495 435L485 435L475 435L465 435L455 445L445 445L435 445L425 445L415 445L405 445L395 445L385 445L375 455L365 455L355 455L345 455L335 455L325 455L315 455L305 455L295 455L285 455L275 455L265 455L255 455L245 455L235 465L225 465L215 465L205 475L195 475L185 475L175 475" stroke="rgba(146, 219, 140, 1)" stroke-width="1.67"></path>
            <path d="M172.5 475 a2.5 2.5 0 1 0 5 0 a2.5 2.5 0 1 0 -5 0zM242.5 465 a2.5 2.5 0 1 0 5 0 a2.5 2.5 0 1 0 -5 0zM122.5 465 a2.5 2.5 0 1 0 5 0 a2.5 2.5 0 1 0 -5 0zM352.5 445 a2.5 2.5 0 1 0 5 0 a2.5 2.5 0 1 0 -5 0zM402.5 435 a2.5 2.5 0 1 0 5 0 a2.5 2.5 0 1 0 -5 0zM322.5 465 a2.5 2.5 0 1 0 5 0 a2.5 2.5 0 1 0 -5 0zM142.5 455 a2.5 2.5 0 1 0 5 0 a2.5 2.5 0 1 0 -5 0zM252.5 465 a2.5 2.5 0 1 0 5 0 a2.5 2.5 0 1 0 -5 0zM302.5 445 a2.5 2.5 0 1 0 5 0 a2.5 2.5 0 1 0 -5 0zM382.5 465 a2.5 2.5 0 1 0 5 0 a2.5 2.5 0 1 0 -5 0zM562.5 445 a2.5 2.5 0 1 0 5 0 a2.5 2.5 0 1 0 -5 0z" fill="rgba(146, 219, 140, 1)"></path>
            <path d="M365 475L355 485L345 495L335 495L325 495L315 495L305 495L295 495L285 495M355 475L345 475L335 475L325 475L315 475M425 475L415 465L405 465L395 465M555 445L545 455L535 455L525 455L515 455L505 455L495 455L485 455L475 455M445 465L435 465L425 465M245 475L235 485M185 485L175 485L165 485L155 485L145 485L135 485L125 485L115 485L105 475L95 475L85 485L75 495M155 495L145 505L135 515L125 515L115 515M295 475L285 485L275 485L265 485L255 485L245 485L235 495L225 495L215 495L205 495L195 495L185 495L175 505L165 505L155 505L145 515L135 525L125 535M455 455L445 455L435 455M565 455L555 455M585 455L575 455L565 455L555 445L545 445L535 445L525 445L515 445L505 445L495 445L485 445L475 445L465 445L455 455L445 465L435 475L425 475L415 475L405 475L395 475L385 475L375 475L365 475L355 475L345 485L335 485L325 485L315 485L305 475L295 475L285 475L275 475L265 475L255 475L245 475L235 475L225 475L215 475L205 485L195 485L185 485L175 495L165 495L155 495L145 495L135 505" stroke="rgba(42, 137, 107, 1)" stroke-width="1.67"></path>
            <path d="M132.5 505 a2.5 2.5 0 1 0 5 0 a2.5 2.5 0 1 0 -5 0zM282.5 495 a2.5 2.5 0 1 0 5 0 a2.5 2.5 0 1 0 -5 0zM312.5 475 a2.5 2.5 0 1 0 5 0 a2.5 2.5 0 1 0 -5 0zM392.5 465 a2.5 2.5 0 1 0 5 0 a2.5 2.5 0 1 0 -5 0zM472.5 455 a2.5 2.5 0 1 0 5 0 a2.5 2.5 0 1 0 -5 0zM422.5 465 a2.5 2.5 0 1 0 5 0 a2.5 2.5 0 1 0 -5 0zM232.5 485 a2.5 2.5 0 1 0 5 0 a2.5 2.5 0 1 0 -5 0zM72.5 495 a2.5 2.5 0 1 0 5 0 a2.5 2.5 0 1 0 -5 0zM112.5 515 a2.5 2.5 0 1 0 5 0 a2.5 2.5 0 1 0 -5 0zM122.5 535 a2.5 2.5 0 1 0 5 0 a2.5 2.5 0 1 0 -5 0zM432.5 455 a2.5 2.5 0 1 0 5 0 a2.5 2.5 0 1 0 -5 0zM552.5 455 a2.5 2.5 0 1 0 5 0 a2.5 2.5 0 1 0 -5 0z" fill="rgba(42, 137, 107, 1)"></path>
            <path d="M315 435L305 425L295 415L285 415L275 415L265 415L255 415L245 415L235 415M555 425L545 415M405 425L395 425L385 425L375 425L365 425M295 425L285 435L275 435L265 435M375 435L365 445M415 425L405 415L395 415L385 415L375 415L365 415L355 425L345 425L335 425L325 415L315 415L305 415L295 405M435 425L425 415L415 415M475 425L465 415L455 415L445 405M585 435L575 435L565 425L555 425L545 425L535 425L525 425L515 425L505 425L495 425L485 425L475 425L465 425L455 425L445 425L435 425L425 425L415 425L405 425L395 435L385 435L375 435L365 435L355 435L345 435L335 435L325 435L315 435L305 435L295 425L285 425L275 425L265 425L255 425" stroke="rgba(42, 137, 107, 1)" stroke-width="1.67"></path>
            <path d="M252.5 425 a2.5 2.5 0 1 0 5 0 a2.5 2.5 0 1 0 -5 0zM232.5 415 a2.5 2.5 0 1 0 5 0 a2.5 2.5 0 1 0 -5 0zM542.5 415 a2.5 2.5 0 1 0 5 0 a2.5 2.5 0 1 0 -5 0zM362.5 425 a2.5 2.5 0 1 0 5 0 a2.5 2.5 0 1 0 -5 0zM262.5 435 a2.5 2.5 0 1 0 5 0 a2.5 2.5 0 1 0 -5 0zM362.5 445 a2.5 2.5 0 1 0 5 0 a2.5 2.5 0 1 0 -5 0zM292.5 405 a2.5 2.5 0 1 0 5 0 a2.5 2.5 0 1 0 -5 0zM412.5 415 a2.5 2.5 0 1 0 5 0 a2.5 2.5 0 1 0 -5 0zM442.5 405 a2.5 2.5 0 1 0 5 0 a2.5 2.5 0 1 0 -5 0z" fill="rgba(42, 137, 107, 1)"></path>
            <path d="M555 475L545 475M575 465L565 465L555 465M505 465L495 475L485 475L475 475L465 475M585 465L575 465L565 475L555 475L545 465L535 465L525 465L515 465L505 465L495 465L485 465L475 465L465 455" stroke="rgba(42, 137, 107, 1)" stroke-width="1.67"></path>
            <path d="M462.5 455 a2.5 2.5 0 1 0 5 0 a2.5 2.5 0 1 0 -5 0zM542.5 475 a2.5 2.5 0 1 0 5 0 a2.5 2.5 0 1 0 -5 0zM552.5 465 a2.5 2.5 0 1 0 5 0 a2.5 2.5 0 1 0 -5 0zM462.5 475 a2.5 2.5 0 1 0 5 0 a2.5 2.5 0 1 0 -5 0z" fill="rgba(42, 137, 107, 1)"></path>
            <path d="M485 395L475 405L465 405L455 405M515 405L505 395M505 405L495 405L485 415M205 395L195 385L185 375L175 375L165 375L155 375L145 375L135 375L125 375L115 375L105 385L95 385L85 375L75 365L65 365M285 395L275 385L265 385L255 385L245 385L235 385L225 385L215 375L205 375L195 375L185 365M315 405L305 405M545 405L535 395L525 395L515 395M185 395L175 385L165 385L155 385L145 385L135 395M265 395L255 405L245 405L235 405L225 405L215 405L205 405L195 405L185 405L175 405L165 405M565 415L555 415M585 425L575 425L565 415L555 405L545 405L535 405L525 405L515 405L505 405L495 395L485 395L475 395L465 395L455 395L445 395L435 405L425 405L415 405L405 405L395 405L385 405L375 405L365 405L355 405L345 405L335 405L325 405L315 405L305 395L295 395L285 395L275 395L265 395L255 395L245 395L235 395L225 395L215 395L205 395L195 395L185 395L175 395" stroke="rgba(146, 219, 140, 1)" stroke-width="1.67"></path>
            <path d="M172.5 395 a2.5 2.5 0 1 0 5 0 a2.5 2.5 0 1 0 -5 0zM452.5 405 a2.5 2.5 0 1 0 5 0 a2.5 2.5 0 1 0 -5 0zM502.5 395 a2.5 2.5 0 1 0 5 0 a2.5 2.5 0 1 0 -5 0zM482.5 415 a2.5 2.5 0 1 0 5 0 a2.5 2.5 0 1 0 -5 0zM62.5 365 a2.5 2.5 0 1 0 5 0 a2.5 2.5 0 1 0 -5 0zM182.5 365 a2.5 2.5 0 1 0 5 0 a2.5 2.5 0 1 0 -5 0zM302.5 405 a2.5 2.5 0 1 0 5 0 a2.5 2.5 0 1 0 -5 0zM512.5 395 a2.5 2.5 0 1 0 5 0 a2.5 2.5 0 1 0 -5 0zM132.5 395 a2.5 2.5 0 1 0 5 0 a2.5 2.5 0 1 0 -5 0zM162.5 405 a2.5 2.5 0 1 0 5 0 a2.5 2.5 0 1 0 -5 0zM552.5 415 a2.5 2.5 0 1 0 5 0 a2.5 2.5 0 1 0 -5 0z" fill="rgba(146, 219, 140, 1)"></path>
            <path d="M535 485L525 475L515 475L505 475M375 495L365 495L355 495M365 505L355 515L345 515L335 515L325 515M505 485L495 495L485 495M285 505L275 515M475 485L465 495L455 495L445 495L435 495M395 495L385 485L375 485L365 485M405 495L395 485M585 475L575 475L565 485L555 485L545 485L535 485L525 485L515 485L505 485L495 485L485 485L475 485L465 485L455 485L445 485L435 485L425 485L415 485L405 495L395 495L385 495L375 495L365 505L355 505L345 505L335 505L325 505L315 505L305 505L295 505L285 505L275 505" stroke="rgba(146, 219, 140, 1)" stroke-width="1.67"></path>
            <path d="M272.5 505 a2.5 2.5 0 1 0 5 0 a2.5 2.5 0 1 0 -5 0zM502.5 475 a2.5 2.5 0 1 0 5 0 a2.5 2.5 0 1 0 -5 0zM352.5 495 a2.5 2.5 0 1 0 5 0 a2.5 2.5 0 1 0 -5 0zM322.5 515 a2.5 2.5 0 1 0 5 0 a2.5 2.5 0 1 0 -5 0zM482.5 495 a2.5 2.5 0 1 0 5 0 a2.5 2.5 0 1 0 -5 0zM272.5 515 a2.5 2.5 0 1 0 5 0 a2.5 2.5 0 1 0 -5 0zM432.5 495 a2.5 2.5 0 1 0 5 0 a2.5 2.5 0 1 0 -5 0zM362.5 485 a2.5 2.5 0 1 0 5 0 a2.5 2.5 0 1 0 -5 0zM392.5 485 a2.5 2.5 0 1 0 5 0 a2.5 2.5 0 1 0 -5 0z" fill="rgba(146, 219, 140, 1)"></path>
            <path d="M285 365L275 355M435 365L425 375L415 375L405 375L395 375L385 375L375 365L365 365M335 355L325 355L315 355L305 355L295 355L285 355L275 345L265 345L255 345L245 345M205 355L195 365M315 365L305 375L295 375L285 375L275 375L265 375L255 375L245 375L235 375L225 375M555 395L545 395M345 355L335 365M445 365L435 375L425 385L415 385L405 385L395 385L385 385L375 385L365 385L355 385M225 365L215 365L205 365M265 365L255 355L245 355L235 355L225 355L215 345L205 345M175 355L165 345L155 345L145 345L135 345M585 415L575 415L565 405L555 395L545 385L535 385L525 385L515 385L505 385L495 385L485 385L475 385L465 385L455 375L445 365L435 365L425 365L415 355L405 355L395 355L385 355L375 355L365 355L355 355L345 355L335 355L325 365L315 365L305 365L295 365L285 365L275 365L265 365L255 365L245 365L235 365L225 365L215 355L205 355L195 355L185 355L175 355L165 355L155 355L145 355" stroke="rgba(42, 137, 107, 1)" stroke-width="1.67"></path>
            <path d="M142.5 355 a2.5 2.5 0 1 0 5 0 a2.5 2.5 0 1 0 -5 0zM272.5 355 a2.5 2.5 0 1 0 5 0 a2.5 2.5 0 1 0 -5 0zM362.5 365 a2.5 2.5 0 1 0 5 0 a2.5 2.5 0 1 0 -5 0zM242.5 345 a2.5 2.5 0 1 0 5 0 a2.5 2.5 0 1 0 -5 0zM192.5 365 a2.5 2.5 0 1 0 5 0 a2.5 2.5 0 1 0 -5 0zM222.5 375 a2.5 2.5 0 1 0 5 0 a2.5 2.5 0 1 0 -5 0zM542.5 395 a2.5 2.5 0 1 0 5 0 a2.5 2.5 0 1 0 -5 0zM332.5 365 a2.5 2.5 0 1 0 5 0 a2.5 2.5 0 1 0 -5 0zM352.5 385 a2.5 2.5 0 1 0 5 0 a2.5 2.5 0 1 0 -5 0zM202.5 365 a2.5 2.5 0 1 0 5 0 a2.5 2.5 0 1 0 -5 0zM202.5 345 a2.5 2.5 0 1 0 5 0 a2.5 2.5 0 1 0 -5 0zM132.5 345 a2.5 2.5 0 1 0 5 0 a2.5 2.5 0 1 0 -5 0z" fill="rgba(42, 137, 107, 1)"></path>
            <path d="M585 485L575 485L565 495L555 495L545 495L535 495" stroke="rgba(146, 219, 140, 1)" stroke-width="1.67"></path>
            <path d="M532.5 495 a2.5 2.5 0 1 0 5 0 a2.5 2.5 0 1 0 -5 0z" fill="rgba(146, 219, 140, 1)"></path>
            <path d="M375 345L365 335L355 335M585 405L575 405L565 395L555 385L545 375L535 375L525 375L515 375L505 375L495 375L485 375L475 375L465 375L455 365L445 355L435 355L425 355L415 345L405 345L395 345L385 345L375 345L365 345" stroke="rgba(42, 137, 107, 1)" stroke-width="1.67"></path>
            <path d="M362.5 345 a2.5 2.5 0 1 0 5 0 a2.5 2.5 0 1 0 -5 0zM352.5 335 a2.5 2.5 0 1 0 5 0 a2.5 2.5 0 1 0 -5 0z" fill="rgba(42, 137, 107, 1)"></path>
            <path id="path-2" d="M515 505L505 495M435 505L425 505L415 505M525 505L515 495M495 505L485 515M505 505L495 515M585 495L575 495L565 505L555 505L545 505L535 505L525 505L515 505L505 505L495 505L485 505L475 505L465 505L455 505L445 505L435 505L425 495L415 495L405 505L395 505L385 505L375 505" stroke="rgba(146, 219, 140, 1)" stroke-width="1.67"></path>
            <path d="M372.5 505 a2.5 2.5 0 1 0 5 0 a2.5 2.5 0 1 0 -5 0zM502.5 495 a2.5 2.5 0 1 0 5 0 a2.5 2.5 0 1 0 -5 0zM412.5 505 a2.5 2.5 0 1 0 5 0 a2.5 2.5 0 1 0 -5 0zM512.5 495 a2.5 2.5 0 1 0 5 0 a2.5 2.5 0 1 0 -5 0zM482.5 515 a2.5 2.5 0 1 0 5 0 a2.5 2.5 0 1 0 -5 0zM492.5 515 a2.5 2.5 0 1 0 5 0 a2.5 2.5 0 1 0 -5 0z" fill="rgba(146, 219, 140, 1)"></path>
            <path d="M195 315L185 325M265 315L255 305L245 305L235 305L225 305L215 305L205 305L195 305L185 305L175 305L165 305L155 295L145 295M125 315L115 325L105 325M165 315L155 325L145 325L135 325L125 335M175 315L165 325L155 335L145 335L135 335M135 315L125 305L115 305M385 335L375 335M225 315L215 325M235 315L225 325L215 335L205 335L195 335M315 325L305 335L295 335L285 335M305 325L295 315L285 305L275 305L265 305M245 315L235 325L225 335M585 395L575 395L565 385L555 375L545 365L535 365L525 365L515 365L505 365L495 365L485 365L475 365L465 365L455 355L445 345L435 345L425 345L415 335L405 335L395 335L385 335L375 325L365 325L355 325L345 325L335 325L325 325L315 325L305 325L295 325L285 315L275 315L265 315L255 315L245 315L235 315L225 315L215 315L205 315L195 315L185 315L175 315L165 315L155 315L145 315L135 315L125 315L115 315" stroke="rgba(42, 137, 107, 1)" stroke-width="1.67"></path>
            <path d="M112.5 315 a2.5 2.5 0 1 0 5 0 a2.5 2.5 0 1 0 -5 0zM182.5 325 a2.5 2.5 0 1 0 5 0 a2.5 2.5 0 1 0 -5 0zM142.5 295 a2.5 2.5 0 1 0 5 0 a2.5 2.5 0 1 0 -5 0zM102.5 325 a2.5 2.5 0 1 0 5 0 a2.5 2.5 0 1 0 -5 0zM122.5 335 a2.5 2.5 0 1 0 5 0 a2.5 2.5 0 1 0 -5 0zM132.5 335 a2.5 2.5 0 1 0 5 0 a2.5 2.5 0 1 0 -5 0zM112.5 305 a2.5 2.5 0 1 0 5 0 a2.5 2.5 0 1 0 -5 0zM372.5 335 a2.5 2.5 0 1 0 5 0 a2.5 2.5 0 1 0 -5 0zM212.5 325 a2.5 2.5 0 1 0 5 0 a2.5 2.5 0 1 0 -5 0zM192.5 335 a2.5 2.5 0 1 0 5 0 a2.5 2.5 0 1 0 -5 0zM282.5 335 a2.5 2.5 0 1 0 5 0 a2.5 2.5 0 1 0 -5 0zM262.5 305 a2.5 2.5 0 1 0 5 0 a2.5 2.5 0 1 0 -5 0zM222.5 335 a2.5 2.5 0 1 0 5 0 a2.5 2.5 0 1 0 -5 0z" fill="rgba(42, 137, 107, 1)"></path>
            <path d="M405 515L395 525L385 525M525 535L515 525L505 525L495 525M465 515L455 525L445 525L435 525L425 525L415 525L405 525M535 525L525 525L515 515L505 515M545 515L535 515L525 515M585 505L575 505L565 515L555 515L545 515L535 525L525 535L515 535L505 535L495 535L485 525L475 515L465 515L455 515L445 515L435 515L425 515L415 515L405 515L395 515L385 515" stroke="rgba(42, 137, 107, 1)" stroke-width="1.67"></path>
            <path d="M382.5 515 a2.5 2.5 0 1 0 5 0 a2.5 2.5 0 1 0 -5 0zM382.5 525 a2.5 2.5 0 1 0 5 0 a2.5 2.5 0 1 0 -5 0zM492.5 525 a2.5 2.5 0 1 0 5 0 a2.5 2.5 0 1 0 -5 0zM402.5 525 a2.5 2.5 0 1 0 5 0 a2.5 2.5 0 1 0 -5 0zM502.5 515 a2.5 2.5 0 1 0 5 0 a2.5 2.5 0 1 0 -5 0zM522.5 515 a2.5 2.5 0 1 0 5 0 a2.5 2.5 0 1 0 -5 0z" fill="rgba(42, 137, 107, 1)"></path>
            <path d="M515 355L505 345M345 305L335 315L325 315L315 315L305 315L295 305M475 345L465 355M525 355L515 345M375 315L365 315L355 315L345 315M435 335L425 325M585 385L575 385L565 375L555 365L545 355L535 355L525 355L515 355L505 355L495 355L485 355L475 345L465 345L455 345L445 335L435 335L425 335L415 325L405 325L395 325L385 325L375 315L365 305L355 305L345 305L335 305L325 305L315 305" stroke="rgba(42, 137, 107, 1)" stroke-width="1.67"></path>
            <path d="M312.5 305 a2.5 2.5 0 1 0 5 0 a2.5 2.5 0 1 0 -5 0zM502.5 345 a2.5 2.5 0 1 0 5 0 a2.5 2.5 0 1 0 -5 0zM292.5 305 a2.5 2.5 0 1 0 5 0 a2.5 2.5 0 1 0 -5 0zM462.5 355 a2.5 2.5 0 1 0 5 0 a2.5 2.5 0 1 0 -5 0zM512.5 345 a2.5 2.5 0 1 0 5 0 a2.5 2.5 0 1 0 -5 0zM342.5 315 a2.5 2.5 0 1 0 5 0 a2.5 2.5 0 1 0 -5 0zM422.5 325 a2.5 2.5 0 1 0 5 0 a2.5 2.5 0 1 0 -5 0z" fill="rgba(42, 137, 107, 1)"></path>
            <path d="M555 525L545 535M485 545L475 535M585 515L575 515L565 525L555 525L545 525L535 535L525 545L515 545L505 545L495 545L485 545L475 545" stroke="rgba(146, 219, 140, 1)" stroke-width="1.67"></path>
            <path d="M472.5 545 a2.5 2.5 0 1 0 5 0 a2.5 2.5 0 1 0 -5 0zM542.5 535 a2.5 2.5 0 1 0 5 0 a2.5 2.5 0 1 0 -5 0zM472.5 535 a2.5 2.5 0 1 0 5 0 a2.5 2.5 0 1 0 -5 0z" fill="rgba(146, 219, 140, 1)"></path>
            <path d="M585 375L575 375L565 365L555 355L545 345L535 345L525 335L515 335L505 335L495 345L485 345L475 335L465 335L455 335L445 325" stroke="rgba(146, 219, 140, 1)" stroke-width="1.67"></path>
            <path d="M442.5 325 a2.5 2.5 0 1 0 5 0 a2.5 2.5 0 1 0 -5 0z" fill="rgba(146, 219, 140, 1)"></path>
            <path d="M455 565L445 555L435 555L425 555M465 555L455 545L445 545L435 545L425 545M565 535L555 535M585 525L575 525L565 535L555 545L545 545L535 545L525 555L515 555L505 555L495 555L485 555L475 555L465 555L455 565L445 565L435 565L425 565" stroke="rgba(42, 137, 107, 1)" stroke-width="1.67"></path>
            <path d="M422.5 565 a2.5 2.5 0 1 0 5 0 a2.5 2.5 0 1 0 -5 0zM422.5 555 a2.5 2.5 0 1 0 5 0 a2.5 2.5 0 1 0 -5 0zM422.5 545 a2.5 2.5 0 1 0 5 0 a2.5 2.5 0 1 0 -5 0zM552.5 535 a2.5 2.5 0 1 0 5 0 a2.5 2.5 0 1 0 -5 0z" fill="rgba(42, 137, 107, 1)"></path>
            <path d="M315 295L305 285L295 285L285 285L275 285L265 285L255 285L245 275L235 275L225 275L215 275L205 275L195 275L185 275L175 275M505 325L495 325L485 325M245 285L235 295L225 295M545 335L535 335M585 365L575 365L565 355L555 345L545 335L535 325L525 325L515 325L505 325L495 335L485 335L475 325L465 325L455 325L445 315L435 315L425 315L415 315L405 315L395 315L385 315L375 305L365 295L355 295L345 295L335 295L325 295L315 295L305 295L295 295L285 295L275 295L265 295L255 295L245 285L235 285" stroke="rgba(146, 219, 140, 1)" stroke-width="1.67"></path>
            <path d="M232.5 285 a2.5 2.5 0 1 0 5 0 a2.5 2.5 0 1 0 -5 0zM172.5 275 a2.5 2.5 0 1 0 5 0 a2.5 2.5 0 1 0 -5 0zM482.5 325 a2.5 2.5 0 1 0 5 0 a2.5 2.5 0 1 0 -5 0zM222.5 295 a2.5 2.5 0 1 0 5 0 a2.5 2.5 0 1 0 -5 0zM532.5 335 a2.5 2.5 0 1 0 5 0 a2.5 2.5 0 1 0 -5 0z" fill="rgba(146, 219, 140, 1)"></path>
            <path d="M375 565L365 575L355 575L345 575M415 575L405 575L395 575L385 575L375 575M365 565L355 555L345 545M385 565L375 555L365 545L355 545L345 535L335 535L325 535M405 565L395 555L385 555L375 545M345 565L335 555L325 545M585 535L575 535L565 545L555 555L545 555L535 555L525 565L515 565L505 565L495 565L485 565L475 565L465 565L455 575L445 575L435 575L425 575L415 575L405 565L395 565L385 565L375 565L365 565L355 565L345 565L335 565L325 565" stroke="rgba(42, 137, 107, 1)" stroke-width="1.67"></path>
            <path d="M322.5 565 a2.5 2.5 0 1 0 5 0 a2.5 2.5 0 1 0 -5 0zM342.5 575 a2.5 2.5 0 1 0 5 0 a2.5 2.5 0 1 0 -5 0zM372.5 575 a2.5 2.5 0 1 0 5 0 a2.5 2.5 0 1 0 -5 0zM342.5 545 a2.5 2.5 0 1 0 5 0 a2.5 2.5 0 1 0 -5 0zM322.5 535 a2.5 2.5 0 1 0 5 0 a2.5 2.5 0 1 0 -5 0zM372.5 545 a2.5 2.5 0 1 0 5 0 a2.5 2.5 0 1 0 -5 0zM322.5 545 a2.5 2.5 0 1 0 5 0 a2.5 2.5 0 1 0 -5 0z" fill="rgba(42, 137, 107, 1)"></path>
            <path d="M585 355L575 355L565 345L555 335L545 325L535 315L525 315L515 315L505 315L495 315L485 315L475 315L465 315L455 315L445 305L435 305L425 305L415 305L405 305L395 305L385 305" stroke="rgba(42, 137, 107, 1)" stroke-width="1.67"></path>
            <path d="M382.5 305 a2.5 2.5 0 1 0 5 0 a2.5 2.5 0 1 0 -5 0z" fill="rgba(42, 137, 107, 1)"></path>
            <path d="M585 545L575 545L565 555L555 565L545 565L535 565L525 575L515 575L505 575L495 575L485 575L475 575L465 575L455 585L445 585L435 585L425 585L415 585L405 585L395 585L385 585L375 585L365 585L355 585" stroke="rgba(42, 137, 107, 1)" stroke-width="1.67"></path>
            <path d="M352.5 585 a2.5 2.5 0 1 0 5 0 a2.5 2.5 0 1 0 -5 0z" fill="rgba(42, 137, 107, 1)"></path>
            <path d="M425 295L415 285M435 295L425 285M345 285L335 275L325 275L315 275L305 275M365 285L355 275L345 275M385 295L375 285L365 275M405 295L395 285M585 345L575 345L565 335L555 325L545 315L535 305L525 305L515 305L505 305L495 305L485 305L475 305L465 305L455 305L445 295L435 295L425 295L415 295L405 295L395 295L385 295L375 295L365 285L355 285L345 285L335 285L325 285" stroke="rgba(42, 137, 107, 1)" stroke-width="1.67"></path>
            <path d="M322.5 285 a2.5 2.5 0 1 0 5 0 a2.5 2.5 0 1 0 -5 0zM412.5 285 a2.5 2.5 0 1 0 5 0 a2.5 2.5 0 1 0 -5 0zM422.5 285 a2.5 2.5 0 1 0 5 0 a2.5 2.5 0 1 0 -5 0zM302.5 275 a2.5 2.5 0 1 0 5 0 a2.5 2.5 0 1 0 -5 0zM342.5 275 a2.5 2.5 0 1 0 5 0 a2.5 2.5 0 1 0 -5 0zM362.5 275 a2.5 2.5 0 1 0 5 0 a2.5 2.5 0 1 0 -5 0zM392.5 285 a2.5 2.5 0 1 0 5 0 a2.5 2.5 0 1 0 -5 0z" fill="rgba(42, 137, 107, 1)"></path>
            <path d="M355 605L345 595M335 605L325 595L315 595L305 605L295 605M305 625L295 615L285 615L275 615L265 615L255 615L245 615L235 615L225 615L215 615L205 615L195 625L185 625L175 625M375 595L365 605M345 605L335 615L325 615M315 615L305 615M385 595L375 605M365 595L355 595M585 555L575 555L565 565L555 575L545 575L535 575L525 585L515 585L505 585L495 585L485 585L475 585L465 585L455 595L445 595L435 595L425 595L415 595L405 595L395 595L385 595L375 595L365 595L355 605L345 605L335 605L325 605L315 615L305 625L295 625L285 625L275 625L265 625L255 625" stroke="rgba(42, 137, 107, 1)" stroke-width="1.67"></path>
            <path d="M252.5 625 a2.5 2.5 0 1 0 5 0 a2.5 2.5 0 1 0 -5 0zM342.5 595 a2.5 2.5 0 1 0 5 0 a2.5 2.5 0 1 0 -5 0zM292.5 605 a2.5 2.5 0 1 0 5 0 a2.5 2.5 0 1 0 -5 0zM172.5 625 a2.5 2.5 0 1 0 5 0 a2.5 2.5 0 1 0 -5 0zM362.5 605 a2.5 2.5 0 1 0 5 0 a2.5 2.5 0 1 0 -5 0zM322.5 615 a2.5 2.5 0 1 0 5 0 a2.5 2.5 0 1 0 -5 0zM302.5 615 a2.5 2.5 0 1 0 5 0 a2.5 2.5 0 1 0 -5 0zM372.5 605 a2.5 2.5 0 1 0 5 0 a2.5 2.5 0 1 0 -5 0zM352.5 595 a2.5 2.5 0 1 0 5 0 a2.5 2.5 0 1 0 -5 0z" fill="rgba(42, 137, 107, 1)"></path>
            <path id="path" d="M445 285L435 285M505 295L495 285L485 285L475 285M515 295L505 285M465 295L455 285M585 335L575 335L565 325L555 315L545 305L535 295L525 295L515 295L505 295L495 295L485 295L475 295L465 295L455 295L445 285L435 275L425 275L415 275L405 275L395 275L385 275" stroke="rgba(146, 219, 140, 1)" stroke-width="1.67"></path>
            <path d="M382.5 275 a2.5 2.5 0 1 0 5 0 a2.5 2.5 0 1 0 -5 0zM432.5 285 a2.5 2.5 0 1 0 5 0 a2.5 2.5 0 1 0 -5 0zM472.5 285 a2.5 2.5 0 1 0 5 0 a2.5 2.5 0 1 0 -5 0zM502.5 285 a2.5 2.5 0 1 0 5 0 a2.5 2.5 0 1 0 -5 0zM452.5 285 a2.5 2.5 0 1 0 5 0 a2.5 2.5 0 1 0 -5 0z" fill="rgba(146, 219, 140, 1)"></path>
            <path id="path-3" d="M255 635L245 645L235 645L225 645L215 645L205 655M125 635L115 625M95 635L85 625L75 625L65 625L55 625L45 625L35 625L25 625M175 645L165 635L155 635L145 635L135 635L125 625L115 615L105 615L95 615L85 615L75 615L65 615L55 615L45 615L35 615L25 615M225 635L215 625L205 625M275 635L265 645L255 645L245 655M135 645L125 645L115 645L105 645L95 645L85 645L75 655L65 655M45 635L35 645M395 615L385 605M155 645L145 655L135 655L125 655L115 655L105 655L95 655L85 655L75 665L65 665L55 665L45 665L35 665L25 665M105 635L95 625M245 635L235 625L225 625M355 615L345 615M55 635L45 645M585 565L575 575L565 575L555 585L545 585L535 585L525 595L515 595L505 595L495 595L485 595L475 595L465 595L455 605L445 605L435 605L425 605L415 605L405 605L395 615L385 615L375 615L365 615L355 615L345 625L335 625L325 625L315 625L305 635L295 635L285 635L275 635L265 635L255 635L245 635L235 635L225 635L215 635L205 635L195 635L185 645L175 645L165 645L155 645L145 645L135 645L125 635L115 635L105 635L95 635L85 635L75 635L65 635L55 635L45 635L35 635L25 635" stroke="rgba(42, 137, 107, 1)" stroke-width="1.67"></path>
            <path d="M22.5 635 a2.5 2.5 0 1 0 5 0 a2.5 2.5 0 1 0 -5 0zM202.5 655 a2.5 2.5 0 1 0 5 0 a2.5 2.5 0 1 0 -5 0zM112.5 625 a2.5 2.5 0 1 0 5 0 a2.5 2.5 0 1 0 -5 0zM22.5 625 a2.5 2.5 0 1 0 5 0 a2.5 2.5 0 1 0 -5 0zM22.5 615 a2.5 2.5 0 1 0 5 0 a2.5 2.5 0 1 0 -5 0zM202.5 625 a2.5 2.5 0 1 0 5 0 a2.5 2.5 0 1 0 -5 0zM242.5 655 a2.5 2.5 0 1 0 5 0 a2.5 2.5 0 1 0 -5 0zM62.5 655 a2.5 2.5 0 1 0 5 0 a2.5 2.5 0 1 0 -5 0zM32.5 645 a2.5 2.5 0 1 0 5 0 a2.5 2.5 0 1 0 -5 0zM382.5 605 a2.5 2.5 0 1 0 5 0 a2.5 2.5 0 1 0 -5 0zM22.5 665 a2.5 2.5 0 1 0 5 0 a2.5 2.5 0 1 0 -5 0zM92.5 625 a2.5 2.5 0 1 0 5 0 a2.5 2.5 0 1 0 -5 0zM222.5 625 a2.5 2.5 0 1 0 5 0 a2.5 2.5 0 1 0 -5 0zM342.5 615 a2.5 2.5 0 1 0 5 0 a2.5 2.5 0 1 0 -5 0zM42.5 645 a2.5 2.5 0 1 0 5 0 a2.5 2.5 0 1 0 -5 0z" fill="rgba(42, 137, 107, 1)"></path>
            <path d="M525 285L515 285M585 325L575 325L565 315L555 305L545 295L535 285L525 285L515 275L505 275L495 275L485 275L475 275L465 275L455 275L445 275L435 265L425 265L415 265L405 265L395 265L385 265L375 265L365 265L355 265L345 265" stroke="rgba(42, 137, 107, 1)" stroke-width="1.67"></path>
            <path d="M342.5 265 a2.5 2.5 0 1 0 5 0 a2.5 2.5 0 1 0 -5 0zM512.5 285 a2.5 2.5 0 1 0 5 0 a2.5 2.5 0 1 0 -5 0z" fill="rgba(42, 137, 107, 1)"></path>
            <path d="M265 255L255 265L245 265L235 265L225 265L215 265L205 265M175 245L165 255L155 255L145 255M295 255L285 265L275 265L265 265L255 275M125 235L115 235L105 235M145 235L135 245L125 255L115 255L105 265M185 245L175 255L165 265L155 265L145 265L135 265L125 265L115 265M305 255L295 265L285 275L275 275L265 275M325 255L315 265L305 265M335 255L325 265M95 225L85 235L75 235L65 235L55 235L45 235L35 235L25 235M195 245L185 255L175 265M205 255L195 255L185 265M165 245L155 245L145 245M585 315L575 315L565 305L555 295L545 285L535 275L525 275L515 265L505 265L495 265L485 265L475 265L465 265L455 265L445 265L435 255L425 255L415 255L405 255L395 255L385 255L375 255L365 255L355 255L345 255L335 255L325 255L315 255L305 255L295 255L285 255L275 255L265 255L255 255L245 255L235 255L225 255L215 255L205 255L195 245L185 245L175 245L165 245L155 235L145 235L135 235L125 235L115 225L105 225L95 225L85 225L75 225" stroke="rgba(42, 137, 107, 1)" stroke-width="1.67"></path>
            <path d="M72.5 225 a2.5 2.5 0 1 0 5 0 a2.5 2.5 0 1 0 -5 0zM202.5 265 a2.5 2.5 0 1 0 5 0 a2.5 2.5 0 1 0 -5 0zM142.5 255 a2.5 2.5 0 1 0 5 0 a2.5 2.5 0 1 0 -5 0zM252.5 275 a2.5 2.5 0 1 0 5 0 a2.5 2.5 0 1 0 -5 0zM102.5 235 a2.5 2.5 0 1 0 5 0 a2.5 2.5 0 1 0 -5 0zM102.5 265 a2.5 2.5 0 1 0 5 0 a2.5 2.5 0 1 0 -5 0zM112.5 265 a2.5 2.5 0 1 0 5 0 a2.5 2.5 0 1 0 -5 0zM262.5 275 a2.5 2.5 0 1 0 5 0 a2.5 2.5 0 1 0 -5 0zM302.5 265 a2.5 2.5 0 1 0 5 0 a2.5 2.5 0 1 0 -5 0zM322.5 265 a2.5 2.5 0 1 0 5 0 a2.5 2.5 0 1 0 -5 0zM22.5 235 a2.5 2.5 0 1 0 5 0 a2.5 2.5 0 1 0 -5 0zM172.5 265 a2.5 2.5 0 1 0 5 0 a2.5 2.5 0 1 0 -5 0zM182.5 265 a2.5 2.5 0 1 0 5 0 a2.5 2.5 0 1 0 -5 0zM142.5 245 a2.5 2.5 0 1 0 5 0 a2.5 2.5 0 1 0 -5 0z" fill="rgba(42, 137, 107, 1)"></path>
            <path d="M435 615L425 625L415 625L405 625M325 635L315 645M335 635L325 645M585 585L575 585L565 585L555 595L545 595L535 595L525 605L515 605L505 605L495 605L485 605L475 605L465 605L455 615L445 615L435 615L425 615L415 615L405 615L395 625L385 625L375 625L365 625L355 625L345 635L335 635L325 635L315 635L305 645" stroke="rgba(42, 137, 107, 1)" stroke-width="1.67"></path>
            <path d="M302.5 645 a2.5 2.5 0 1 0 5 0 a2.5 2.5 0 1 0 -5 0zM402.5 625 a2.5 2.5 0 1 0 5 0 a2.5 2.5 0 1 0 -5 0zM312.5 645 a2.5 2.5 0 1 0 5 0 a2.5 2.5 0 1 0 -5 0zM322.5 645 a2.5 2.5 0 1 0 5 0 a2.5 2.5 0 1 0 -5 0z" fill="rgba(42, 137, 107, 1)"></path>
            <path d="M585 305L575 305L565 295L555 285L545 275" stroke="rgba(146, 219, 140, 1)" stroke-width="1.67"></path>
            <path d="M542.5 275 a2.5 2.5 0 1 0 5 0 a2.5 2.5 0 1 0 -5 0z" fill="rgba(146, 219, 140, 1)"></path>
            <path d="M475 615L465 625M495 615L485 625L475 625M445 625L435 625M505 615L495 625M515 615L505 625M455 625L445 635M585 595L575 595L565 595L555 605L545 605L535 605L525 615L515 615L505 615L495 615L485 615L475 615L465 615L455 625L445 625L435 635L425 635L415 635L405 635L395 635L385 635L375 635L365 635L355 635L345 645L335 655L325 655L315 655" stroke="rgba(146, 219, 140, 1)" stroke-width="1.67"></path>
            <path d="M312.5 655 a2.5 2.5 0 1 0 5 0 a2.5 2.5 0 1 0 -5 0zM462.5 625 a2.5 2.5 0 1 0 5 0 a2.5 2.5 0 1 0 -5 0zM472.5 625 a2.5 2.5 0 1 0 5 0 a2.5 2.5 0 1 0 -5 0zM432.5 625 a2.5 2.5 0 1 0 5 0 a2.5 2.5 0 1 0 -5 0zM492.5 625 a2.5 2.5 0 1 0 5 0 a2.5 2.5 0 1 0 -5 0zM502.5 625 a2.5 2.5 0 1 0 5 0 a2.5 2.5 0 1 0 -5 0zM442.5 635 a2.5 2.5 0 1 0 5 0 a2.5 2.5 0 1 0 -5 0z" fill="rgba(146, 219, 140, 1)"></path>
            <path d="M385 245L375 235L365 235L355 235M105 215L95 205L85 205L75 205L65 205L55 205L45 205L35 205M115 215L105 205L95 195L85 195L75 195M65 215L55 225M45 225L35 215L25 215M135 225L125 215L115 205L105 195M55 215L45 215M215 245L205 245M585 295L575 295L565 285L555 275L545 265L535 265L525 265L515 255L505 255L495 255L485 255L475 255L465 255L455 255L445 255L435 245L425 245L415 245L405 245L395 245L385 245L375 245L365 245L355 245L345 245L335 245L325 245L315 245L305 245L295 245L285 245L275 245L265 245L255 245L245 245L235 245L225 245L215 245L205 235L195 235L185 235L175 235L165 235L155 225L145 225L135 225L125 225L115 215L105 215L95 215L85 215L75 215L65 215L55 215L45 225L35 225L25 225" stroke="rgba(146, 219, 140, 1)" stroke-width="1.67"></path>
            <path d="M22.5 225 a2.5 2.5 0 1 0 5 0 a2.5 2.5 0 1 0 -5 0zM352.5 235 a2.5 2.5 0 1 0 5 0 a2.5 2.5 0 1 0 -5 0zM32.5 205 a2.5 2.5 0 1 0 5 0 a2.5 2.5 0 1 0 -5 0zM72.5 195 a2.5 2.5 0 1 0 5 0 a2.5 2.5 0 1 0 -5 0zM52.5 225 a2.5 2.5 0 1 0 5 0 a2.5 2.5 0 1 0 -5 0zM22.5 215 a2.5 2.5 0 1 0 5 0 a2.5 2.5 0 1 0 -5 0zM102.5 195 a2.5 2.5 0 1 0 5 0 a2.5 2.5 0 1 0 -5 0zM42.5 215 a2.5 2.5 0 1 0 5 0 a2.5 2.5 0 1 0 -5 0zM202.5 245 a2.5 2.5 0 1 0 5 0 a2.5 2.5 0 1 0 -5 0z" fill="rgba(146, 219, 140, 1)"></path>
            <path d="M585 605L575 605L565 605L555 615L545 615L535 615L525 625" stroke="rgba(42, 137, 107, 1)" stroke-width="1.67"></path>
            <path d="M522.5 625 a2.5 2.5 0 1 0 5 0 a2.5 2.5 0 1 0 -5 0z" fill="rgba(42, 137, 107, 1)"></path>
            <path d="M295 235L285 225L275 225L265 225L255 225L245 225L235 225L225 225L215 225L205 215L195 215L185 215L175 215M395 235L385 235M335 235L325 225L315 225L305 225L295 225M345 225L335 225M585 285L575 285L565 275L555 265L545 255L535 255L525 255L515 245L505 245L495 245L485 245L475 245L465 245L455 245L445 245L435 235L425 235L415 235L405 235L395 235L385 225L375 225L365 225L355 225L345 225L335 235L325 235L315 235L305 235L295 235L285 235L275 235L265 235L255 235L245 235L235 235L225 235L215 235L205 225L195 225L185 225L175 225L165 225" stroke="rgba(42, 137, 107, 1)" stroke-width="1.67"></path>
            <path d="M162.5 225 a2.5 2.5 0 1 0 5 0 a2.5 2.5 0 1 0 -5 0zM172.5 215 a2.5 2.5 0 1 0 5 0 a2.5 2.5 0 1 0 -5 0zM382.5 235 a2.5 2.5 0 1 0 5 0 a2.5 2.5 0 1 0 -5 0zM292.5 225 a2.5 2.5 0 1 0 5 0 a2.5 2.5 0 1 0 -5 0zM332.5 225 a2.5 2.5 0 1 0 5 0 a2.5 2.5 0 1 0 -5 0z" fill="rgba(42, 137, 107, 1)"></path>
            <path d="M575 615L565 625M585 615L575 615L565 615L555 625L545 625L535 625L525 635L515 635L505 635L495 635L485 635L475 635" stroke="rgba(146, 219, 140, 1)" stroke-width="1.67"></path>
            <path d="M472.5 635 a2.5 2.5 0 1 0 5 0 a2.5 2.5 0 1 0 -5 0zM562.5 625 a2.5 2.5 0 1 0 5 0 a2.5 2.5 0 1 0 -5 0z" fill="rgba(146, 219, 140, 1)"></path>
            <path d="M155 205L145 205L135 205L125 205L115 195M205 205L195 195L185 195L175 195L165 195L155 195L145 195L135 195M215 205L205 195M465 235L455 225L445 225M475 235L465 225M285 215L275 205M165 205L155 215M485 235L475 225M225 215L215 215M245 215L235 205L225 205L215 195M255 215L245 205M585 275L575 275L565 265L555 255L545 245L535 245L525 245L515 235L505 235L495 235L485 235L475 235L465 235L455 235L445 235L435 225L425 225L415 225L405 225L395 225L385 215L375 215L365 215L355 215L345 215L335 215L325 215L315 215L305 215L295 215L285 215L275 215L265 215L255 215L245 215L235 215L225 215L215 205L205 205L195 205L185 205L175 205L165 205L155 205L145 215" stroke="rgba(146, 219, 140, 1)" stroke-width="1.67"></path>
            <path d="M142.5 215 a2.5 2.5 0 1 0 5 0 a2.5 2.5 0 1 0 -5 0zM112.5 195 a2.5 2.5 0 1 0 5 0 a2.5 2.5 0 1 0 -5 0zM132.5 195 a2.5 2.5 0 1 0 5 0 a2.5 2.5 0 1 0 -5 0zM202.5 195 a2.5 2.5 0 1 0 5 0 a2.5 2.5 0 1 0 -5 0zM442.5 225 a2.5 2.5 0 1 0 5 0 a2.5 2.5 0 1 0 -5 0zM462.5 225 a2.5 2.5 0 1 0 5 0 a2.5 2.5 0 1 0 -5 0zM272.5 205 a2.5 2.5 0 1 0 5 0 a2.5 2.5 0 1 0 -5 0zM152.5 215 a2.5 2.5 0 1 0 5 0 a2.5 2.5 0 1 0 -5 0zM472.5 225 a2.5 2.5 0 1 0 5 0 a2.5 2.5 0 1 0 -5 0zM212.5 215 a2.5 2.5 0 1 0 5 0 a2.5 2.5 0 1 0 -5 0zM212.5 195 a2.5 2.5 0 1 0 5 0 a2.5 2.5 0 1 0 -5 0zM242.5 205 a2.5 2.5 0 1 0 5 0 a2.5 2.5 0 1 0 -5 0z" fill="rgba(146, 219, 140, 1)"></path>
            <path d="M305 665L295 655M385 645L375 645M465 645L455 635M365 655L355 645M295 665L285 675L275 675L265 675L255 675L245 675L235 675L225 675L215 675L205 675M285 665L275 655L265 655L255 655L245 665L235 665M315 665L305 675M585 625L575 635L565 635L555 635L545 635L535 635L525 645L515 645L505 645L495 645L485 645L475 645L465 645L455 645L445 645L435 645L425 645L415 645L405 645L395 645L385 645L375 655L365 655L355 655L345 655L335 665L325 665L315 665L305 665L295 665L285 665L275 665" stroke="rgba(146, 219, 140, 1)" stroke-width="1.67"></path>
            <path d="M272.5 665 a2.5 2.5 0 1 0 5 0 a2.5 2.5 0 1 0 -5 0zM292.5 655 a2.5 2.5 0 1 0 5 0 a2.5 2.5 0 1 0 -5 0zM372.5 645 a2.5 2.5 0 1 0 5 0 a2.5 2.5 0 1 0 -5 0zM452.5 635 a2.5 2.5 0 1 0 5 0 a2.5 2.5 0 1 0 -5 0zM352.5 645 a2.5 2.5 0 1 0 5 0 a2.5 2.5 0 1 0 -5 0zM202.5 675 a2.5 2.5 0 1 0 5 0 a2.5 2.5 0 1 0 -5 0zM232.5 665 a2.5 2.5 0 1 0 5 0 a2.5 2.5 0 1 0 -5 0zM302.5 675 a2.5 2.5 0 1 0 5 0 a2.5 2.5 0 1 0 -5 0z" fill="rgba(146, 219, 140, 1)"></path>
            <path d="M325 205L315 195M335 205L325 195M345 205L335 195M495 215L485 225M305 205L295 195M505 225L495 225M585 265L575 265L565 255L555 245L545 235L535 235L525 235L515 225L505 225L495 215L485 215L475 215L465 215L455 215L445 215L435 215L425 215L415 215L405 215L395 215L385 205L375 205L365 205L355 205L345 205L335 205L325 205L315 205L305 205L295 205L285 195L275 195L265 195" stroke="rgba(42, 137, 107, 1)" stroke-width="1.67"></path>
            <path d="M262.5 195 a2.5 2.5 0 1 0 5 0 a2.5 2.5 0 1 0 -5 0zM312.5 195 a2.5 2.5 0 1 0 5 0 a2.5 2.5 0 1 0 -5 0zM322.5 195 a2.5 2.5 0 1 0 5 0 a2.5 2.5 0 1 0 -5 0zM332.5 195 a2.5 2.5 0 1 0 5 0 a2.5 2.5 0 1 0 -5 0zM482.5 225 a2.5 2.5 0 1 0 5 0 a2.5 2.5 0 1 0 -5 0zM292.5 195 a2.5 2.5 0 1 0 5 0 a2.5 2.5 0 1 0 -5 0zM492.5 225 a2.5 2.5 0 1 0 5 0 a2.5 2.5 0 1 0 -5 0z" fill="rgba(42, 137, 107, 1)"></path>
            <path d="M425 205L415 195L405 195L395 195M585 255L575 255L565 245L555 235L545 225L535 225L525 225L515 215L505 215L495 205L485 205L475 205L465 205L455 205L445 205L435 205L425 205L415 205L405 205L395 205L385 195L375 195L365 195L355 195" stroke="rgba(146, 219, 140, 1)" stroke-width="1.67"></path>
            <path d="M352.5 195 a2.5 2.5 0 1 0 5 0 a2.5 2.5 0 1 0 -5 0zM392.5 195 a2.5 2.5 0 1 0 5 0 a2.5 2.5 0 1 0 -5 0z" fill="rgba(146, 219, 140, 1)"></path>
            <path d="M215 695L205 705L195 705M185 685L175 675L165 675L155 675L145 675L135 675L125 675L115 675L105 675L95 675L85 675L75 675L65 675M235 685L225 695M245 685L235 695L225 705L215 705L205 715L195 715L185 715L175 715L165 715L155 715M295 685L285 695L275 695M395 655L385 665M265 685L255 695M305 685L295 695L285 705L275 705L265 705L255 705L245 705L235 705M175 685L165 695L155 695L145 695M225 685L215 685L205 685M585 645L575 645L565 645L555 645L545 645L535 645L525 655L515 655L505 655L495 655L485 655L475 655L465 655L455 655L445 655L435 655L425 655L415 655L405 655L395 655L385 655L375 665L365 665L355 665L345 665L335 675L325 675L315 685L305 685L295 685L285 685L275 685L265 685L255 685L245 685L235 685L225 685L215 695L205 695L195 685L185 685L175 685L165 685" stroke="rgba(146, 219, 140, 1)" stroke-width="1.67"></path>
            <path d="M162.5 685 a2.5 2.5 0 1 0 5 0 a2.5 2.5 0 1 0 -5 0zM192.5 705 a2.5 2.5 0 1 0 5 0 a2.5 2.5 0 1 0 -5 0zM62.5 675 a2.5 2.5 0 1 0 5 0 a2.5 2.5 0 1 0 -5 0zM222.5 695 a2.5 2.5 0 1 0 5 0 a2.5 2.5 0 1 0 -5 0zM152.5 715 a2.5 2.5 0 1 0 5 0 a2.5 2.5 0 1 0 -5 0zM272.5 695 a2.5 2.5 0 1 0 5 0 a2.5 2.5 0 1 0 -5 0zM382.5 665 a2.5 2.5 0 1 0 5 0 a2.5 2.5 0 1 0 -5 0zM252.5 695 a2.5 2.5 0 1 0 5 0 a2.5 2.5 0 1 0 -5 0zM232.5 705 a2.5 2.5 0 1 0 5 0 a2.5 2.5 0 1 0 -5 0zM142.5 695 a2.5 2.5 0 1 0 5 0 a2.5 2.5 0 1 0 -5 0zM202.5 685 a2.5 2.5 0 1 0 5 0 a2.5 2.5 0 1 0 -5 0z" fill="rgba(146, 219, 140, 1)"></path>
            <path d="M255 185L245 175L235 175L225 175L215 175L205 175L195 175L185 175L175 175L165 175L155 175L145 175M305 185L295 175L285 175L275 175M235 185L225 195M335 185L325 175L315 175L305 175M265 185L255 175M75 185L65 175L55 175L45 175L35 185L25 185M95 185L85 175L75 175M515 195L505 205M245 185L235 195M535 215L525 215M115 185L105 175L95 175M135 185L125 175L115 175M525 205L515 205M585 245L575 245L565 235L555 225L545 215L535 215L525 205L515 195L505 195L495 195L485 195L475 195L465 195L455 195L445 195L435 195L425 185L415 185L405 185L395 185L385 185L375 185L365 185L355 185L345 185L335 185L325 185L315 185L305 185L295 185L285 185L275 185L265 185L255 185L245 185L235 185L225 185L215 185L205 185L195 185L185 185L175 185L165 185L155 185L145 185L135 185L125 185L115 185L105 185L95 185L85 185L75 185L65 185" stroke="rgba(146, 219, 140, 1)" stroke-width="1.67"></path>
            <path d="M62.5 185 a2.5 2.5 0 1 0 5 0 a2.5 2.5 0 1 0 -5 0zM142.5 175 a2.5 2.5 0 1 0 5 0 a2.5 2.5 0 1 0 -5 0zM272.5 175 a2.5 2.5 0 1 0 5 0 a2.5 2.5 0 1 0 -5 0zM222.5 195 a2.5 2.5 0 1 0 5 0 a2.5 2.5 0 1 0 -5 0zM302.5 175 a2.5 2.5 0 1 0 5 0 a2.5 2.5 0 1 0 -5 0zM252.5 175 a2.5 2.5 0 1 0 5 0 a2.5 2.5 0 1 0 -5 0zM22.5 185 a2.5 2.5 0 1 0 5 0 a2.5 2.5 0 1 0 -5 0zM72.5 175 a2.5 2.5 0 1 0 5 0 a2.5 2.5 0 1 0 -5 0zM502.5 205 a2.5 2.5 0 1 0 5 0 a2.5 2.5 0 1 0 -5 0zM232.5 195 a2.5 2.5 0 1 0 5 0 a2.5 2.5 0 1 0 -5 0zM522.5 215 a2.5 2.5 0 1 0 5 0 a2.5 2.5 0 1 0 -5 0zM92.5 175 a2.5 2.5 0 1 0 5 0 a2.5 2.5 0 1 0 -5 0zM112.5 175 a2.5 2.5 0 1 0 5 0 a2.5 2.5 0 1 0 -5 0zM512.5 205 a2.5 2.5 0 1 0 5 0 a2.5 2.5 0 1 0 -5 0z" fill="rgba(146, 219, 140, 1)"></path>
            <path d="M415 665L405 675L395 685L385 685L375 695L365 695L355 695L345 685M405 665L395 665M425 665L415 675L405 685L395 695L385 695M365 675L355 685M335 685L325 695L315 695L305 695L295 705M375 675L365 685M585 655L575 655L565 655L555 655L545 655L535 655L525 665L515 665L505 665L495 665L485 665L475 665L465 665L455 665L445 665L435 665L425 665L415 665L405 665L395 675L385 675L375 675L365 675L355 675L345 675L335 685L325 685" stroke="rgba(146, 219, 140, 1)" stroke-width="1.67"></path>
            <path d="M322.5 685 a2.5 2.5 0 1 0 5 0 a2.5 2.5 0 1 0 -5 0zM342.5 685 a2.5 2.5 0 1 0 5 0 a2.5 2.5 0 1 0 -5 0zM392.5 665 a2.5 2.5 0 1 0 5 0 a2.5 2.5 0 1 0 -5 0zM382.5 695 a2.5 2.5 0 1 0 5 0 a2.5 2.5 0 1 0 -5 0zM352.5 685 a2.5 2.5 0 1 0 5 0 a2.5 2.5 0 1 0 -5 0zM292.5 705 a2.5 2.5 0 1 0 5 0 a2.5 2.5 0 1 0 -5 0zM362.5 685 a2.5 2.5 0 1 0 5 0 a2.5 2.5 0 1 0 -5 0z" fill="rgba(146, 219, 140, 1)"></path>
            <path d="M365 175L355 175L345 175L335 175M115 165L105 155L95 155L85 155L75 155M205 165L195 155L185 155L175 155M545 205L535 205M265 165L255 155L245 155M445 175L435 185M125 165L115 155L105 145L95 145L85 145M455 185L445 185M135 165L125 155M235 165L225 155L215 155L205 155L195 145L185 145L175 145L165 145L155 145L145 145L135 145M55 165L45 155L35 145L25 135M65 165L55 155L45 145L35 135L25 125M155 165L145 155L135 155M275 165L265 155L255 145L245 145L235 145L225 145L215 145M585 235L575 235L565 225L555 215L545 205L535 195L525 195L515 185L505 185L495 185L485 185L475 185L465 185L455 185L445 175L435 175L425 175L415 175L405 175L395 175L385 175L375 175L365 175L355 165L345 165L335 165L325 165L315 165L305 165L295 165L285 165L275 165L265 165L255 165L245 165L235 165L225 165L215 165L205 165L195 165L185 165L175 165L165 165L155 165L145 165L135 165L125 165L115 165L105 165L95 165L85 165L75 165L65 165L55 165L45 165L35 165L25 165" stroke="rgba(42, 137, 107, 1)" stroke-width="1.67"></path>
            <path d="M22.5 165 a2.5 2.5 0 1 0 5 0 a2.5 2.5 0 1 0 -5 0zM332.5 175 a2.5 2.5 0 1 0 5 0 a2.5 2.5 0 1 0 -5 0zM72.5 155 a2.5 2.5 0 1 0 5 0 a2.5 2.5 0 1 0 -5 0zM172.5 155 a2.5 2.5 0 1 0 5 0 a2.5 2.5 0 1 0 -5 0zM532.5 205 a2.5 2.5 0 1 0 5 0 a2.5 2.5 0 1 0 -5 0zM242.5 155 a2.5 2.5 0 1 0 5 0 a2.5 2.5 0 1 0 -5 0zM432.5 185 a2.5 2.5 0 1 0 5 0 a2.5 2.5 0 1 0 -5 0zM82.5 145 a2.5 2.5 0 1 0 5 0 a2.5 2.5 0 1 0 -5 0zM442.5 185 a2.5 2.5 0 1 0 5 0 a2.5 2.5 0 1 0 -5 0zM122.5 155 a2.5 2.5 0 1 0 5 0 a2.5 2.5 0 1 0 -5 0zM132.5 145 a2.5 2.5 0 1 0 5 0 a2.5 2.5 0 1 0 -5 0zM22.5 135 a2.5 2.5 0 1 0 5 0 a2.5 2.5 0 1 0 -5 0zM22.5 125 a2.5 2.5 0 1 0 5 0 a2.5 2.5 0 1 0 -5 0zM132.5 155 a2.5 2.5 0 1 0 5 0 a2.5 2.5 0 1 0 -5 0zM212.5 145 a2.5 2.5 0 1 0 5 0 a2.5 2.5 0 1 0 -5 0z" fill="rgba(42, 137, 107, 1)"></path>
            <path d="M445 675L435 685L425 685M565 665L555 675L545 675L535 675M475 675L465 685L455 685M525 675L515 685L505 685L495 685L485 685M585 665L575 665L565 665L555 665L545 665L535 665L525 675L515 675L505 675L495 675L485 675L475 675L465 675L455 675L445 675L435 675" stroke="rgba(146, 219, 140, 1)" stroke-width="1.67"></path>
            <path d="M432.5 675 a2.5 2.5 0 1 0 5 0 a2.5 2.5 0 1 0 -5 0zM422.5 685 a2.5 2.5 0 1 0 5 0 a2.5 2.5 0 1 0 -5 0zM532.5 675 a2.5 2.5 0 1 0 5 0 a2.5 2.5 0 1 0 -5 0zM452.5 685 a2.5 2.5 0 1 0 5 0 a2.5 2.5 0 1 0 -5 0zM482.5 685 a2.5 2.5 0 1 0 5 0 a2.5 2.5 0 1 0 -5 0z" fill="rgba(146, 219, 140, 1)"></path>
            <path id="path-2" d="M515 175L505 165L495 165M335 155L325 145L315 145L305 145M385 165L375 155L365 155L355 145M435 165L425 155L415 155L405 155L395 155L385 155M535 185L525 175L515 165L505 155L495 155L485 155L475 145L465 145L455 145M475 175L465 165L455 165L445 155L435 155L425 145M345 155L335 145L325 135L315 135L305 135L295 135L285 135M585 225L575 225L565 215L555 205L545 195L535 185L525 185L515 175L505 175L495 175L485 175L475 175L465 175L455 175L445 165L435 165L425 165L415 165L405 165L395 165L385 165L375 165L365 165L355 155L345 155L335 155L325 155L315 155L305 155L295 155L285 155" stroke="rgba(42, 137, 107, 1)" stroke-width="1.67"></path>
            <path d="M282.5 155 a2.5 2.5 0 1 0 5 0 a2.5 2.5 0 1 0 -5 0zM492.5 165 a2.5 2.5 0 1 0 5 0 a2.5 2.5 0 1 0 -5 0zM302.5 145 a2.5 2.5 0 1 0 5 0 a2.5 2.5 0 1 0 -5 0zM352.5 145 a2.5 2.5 0 1 0 5 0 a2.5 2.5 0 1 0 -5 0zM382.5 155 a2.5 2.5 0 1 0 5 0 a2.5 2.5 0 1 0 -5 0zM452.5 145 a2.5 2.5 0 1 0 5 0 a2.5 2.5 0 1 0 -5 0zM422.5 145 a2.5 2.5 0 1 0 5 0 a2.5 2.5 0 1 0 -5 0zM282.5 135 a2.5 2.5 0 1 0 5 0 a2.5 2.5 0 1 0 -5 0z" fill="rgba(42, 137, 107, 1)"></path>
        </g>
    </g>
    <defs>
        <mask id="SvgjsMask1106">
            <rect width="577" height="894" fill="#ffffff"></rect>
        </mask>
        <mask id="SvgjsMask1107">
            <rect width="577" height="894" fill="white"></rect>
            <path d="M173.75 475 a1.25 1.25 0 1 0 2.5 0 a1.25 1.25 0 1 0 -2.5 0zM243.75 465 a1.25 1.25 0 1 0 2.5 0 a1.25 1.25 0 1 0 -2.5 0zM123.75 465 a1.25 1.25 0 1 0 2.5 0 a1.25 1.25 0 1 0 -2.5 0zM353.75 445 a1.25 1.25 0 1 0 2.5 0 a1.25 1.25 0 1 0 -2.5 0zM403.75 435 a1.25 1.25 0 1 0 2.5 0 a1.25 1.25 0 1 0 -2.5 0zM323.75 465 a1.25 1.25 0 1 0 2.5 0 a1.25 1.25 0 1 0 -2.5 0zM143.75 455 a1.25 1.25 0 1 0 2.5 0 a1.25 1.25 0 1 0 -2.5 0zM253.75 465 a1.25 1.25 0 1 0 2.5 0 a1.25 1.25 0 1 0 -2.5 0zM303.75 445 a1.25 1.25 0 1 0 2.5 0 a1.25 1.25 0 1 0 -2.5 0zM383.75 465 a1.25 1.25 0 1 0 2.5 0 a1.25 1.25 0 1 0 -2.5 0zM563.75 445 a1.25 1.25 0 1 0 2.5 0 a1.25 1.25 0 1 0 -2.5 0z" fill="black"></path>
            <path d="M133.75 505 a1.25 1.25 0 1 0 2.5 0 a1.25 1.25 0 1 0 -2.5 0zM283.75 495 a1.25 1.25 0 1 0 2.5 0 a1.25 1.25 0 1 0 -2.5 0zM313.75 475 a1.25 1.25 0 1 0 2.5 0 a1.25 1.25 0 1 0 -2.5 0zM393.75 465 a1.25 1.25 0 1 0 2.5 0 a1.25 1.25 0 1 0 -2.5 0zM473.75 455 a1.25 1.25 0 1 0 2.5 0 a1.25 1.25 0 1 0 -2.5 0zM423.75 465 a1.25 1.25 0 1 0 2.5 0 a1.25 1.25 0 1 0 -2.5 0zM233.75 485 a1.25 1.25 0 1 0 2.5 0 a1.25 1.25 0 1 0 -2.5 0zM73.75 495 a1.25 1.25 0 1 0 2.5 0 a1.25 1.25 0 1 0 -2.5 0zM113.75 515 a1.25 1.25 0 1 0 2.5 0 a1.25 1.25 0 1 0 -2.5 0zM123.75 535 a1.25 1.25 0 1 0 2.5 0 a1.25 1.25 0 1 0 -2.5 0zM433.75 455 a1.25 1.25 0 1 0 2.5 0 a1.25 1.25 0 1 0 -2.5 0zM553.75 455 a1.25 1.25 0 1 0 2.5 0 a1.25 1.25 0 1 0 -2.5 0z" fill="black"></path>
            <path d="M253.75 425 a1.25 1.25 0 1 0 2.5 0 a1.25 1.25 0 1 0 -2.5 0zM233.75 415 a1.25 1.25 0 1 0 2.5 0 a1.25 1.25 0 1 0 -2.5 0zM543.75 415 a1.25 1.25 0 1 0 2.5 0 a1.25 1.25 0 1 0 -2.5 0zM363.75 425 a1.25 1.25 0 1 0 2.5 0 a1.25 1.25 0 1 0 -2.5 0zM263.75 435 a1.25 1.25 0 1 0 2.5 0 a1.25 1.25 0 1 0 -2.5 0zM363.75 445 a1.25 1.25 0 1 0 2.5 0 a1.25 1.25 0 1 0 -2.5 0zM293.75 405 a1.25 1.25 0 1 0 2.5 0 a1.25 1.25 0 1 0 -2.5 0zM413.75 415 a1.25 1.25 0 1 0 2.5 0 a1.25 1.25 0 1 0 -2.5 0zM443.75 405 a1.25 1.25 0 1 0 2.5 0 a1.25 1.25 0 1 0 -2.5 0z" fill="black"></path>
            <path d="M463.75 455 a1.25 1.25 0 1 0 2.5 0 a1.25 1.25 0 1 0 -2.5 0zM543.75 475 a1.25 1.25 0 1 0 2.5 0 a1.25 1.25 0 1 0 -2.5 0zM553.75 465 a1.25 1.25 0 1 0 2.5 0 a1.25 1.25 0 1 0 -2.5 0zM463.75 475 a1.25 1.25 0 1 0 2.5 0 a1.25 1.25 0 1 0 -2.5 0z" fill="black"></path>
            <path d="M173.75 395 a1.25 1.25 0 1 0 2.5 0 a1.25 1.25 0 1 0 -2.5 0zM453.75 405 a1.25 1.25 0 1 0 2.5 0 a1.25 1.25 0 1 0 -2.5 0zM503.75 395 a1.25 1.25 0 1 0 2.5 0 a1.25 1.25 0 1 0 -2.5 0zM483.75 415 a1.25 1.25 0 1 0 2.5 0 a1.25 1.25 0 1 0 -2.5 0zM63.75 365 a1.25 1.25 0 1 0 2.5 0 a1.25 1.25 0 1 0 -2.5 0zM183.75 365 a1.25 1.25 0 1 0 2.5 0 a1.25 1.25 0 1 0 -2.5 0zM303.75 405 a1.25 1.25 0 1 0 2.5 0 a1.25 1.25 0 1 0 -2.5 0zM513.75 395 a1.25 1.25 0 1 0 2.5 0 a1.25 1.25 0 1 0 -2.5 0zM133.75 395 a1.25 1.25 0 1 0 2.5 0 a1.25 1.25 0 1 0 -2.5 0zM163.75 405 a1.25 1.25 0 1 0 2.5 0 a1.25 1.25 0 1 0 -2.5 0zM553.75 415 a1.25 1.25 0 1 0 2.5 0 a1.25 1.25 0 1 0 -2.5 0z" fill="black"></path>
            <path d="M273.75 505 a1.25 1.25 0 1 0 2.5 0 a1.25 1.25 0 1 0 -2.5 0zM503.75 475 a1.25 1.25 0 1 0 2.5 0 a1.25 1.25 0 1 0 -2.5 0zM353.75 495 a1.25 1.25 0 1 0 2.5 0 a1.25 1.25 0 1 0 -2.5 0zM323.75 515 a1.25 1.25 0 1 0 2.5 0 a1.25 1.25 0 1 0 -2.5 0zM483.75 495 a1.25 1.25 0 1 0 2.5 0 a1.25 1.25 0 1 0 -2.5 0zM273.75 515 a1.25 1.25 0 1 0 2.5 0 a1.25 1.25 0 1 0 -2.5 0zM433.75 495 a1.25 1.25 0 1 0 2.5 0 a1.25 1.25 0 1 0 -2.5 0zM363.75 485 a1.25 1.25 0 1 0 2.5 0 a1.25 1.25 0 1 0 -2.5 0zM393.75 485 a1.25 1.25 0 1 0 2.5 0 a1.25 1.25 0 1 0 -2.5 0z" fill="black"></path>
            <path d="M143.75 355 a1.25 1.25 0 1 0 2.5 0 a1.25 1.25 0 1 0 -2.5 0zM273.75 355 a1.25 1.25 0 1 0 2.5 0 a1.25 1.25 0 1 0 -2.5 0zM363.75 365 a1.25 1.25 0 1 0 2.5 0 a1.25 1.25 0 1 0 -2.5 0zM243.75 345 a1.25 1.25 0 1 0 2.5 0 a1.25 1.25 0 1 0 -2.5 0zM193.75 365 a1.25 1.25 0 1 0 2.5 0 a1.25 1.25 0 1 0 -2.5 0zM223.75 375 a1.25 1.25 0 1 0 2.5 0 a1.25 1.25 0 1 0 -2.5 0zM543.75 395 a1.25 1.25 0 1 0 2.5 0 a1.25 1.25 0 1 0 -2.5 0zM333.75 365 a1.25 1.25 0 1 0 2.5 0 a1.25 1.25 0 1 0 -2.5 0zM353.75 385 a1.25 1.25 0 1 0 2.5 0 a1.25 1.25 0 1 0 -2.5 0zM203.75 365 a1.25 1.25 0 1 0 2.5 0 a1.25 1.25 0 1 0 -2.5 0zM203.75 345 a1.25 1.25 0 1 0 2.5 0 a1.25 1.25 0 1 0 -2.5 0zM133.75 345 a1.25 1.25 0 1 0 2.5 0 a1.25 1.25 0 1 0 -2.5 0z" fill="black"></path>
            <path d="M533.75 495 a1.25 1.25 0 1 0 2.5 0 a1.25 1.25 0 1 0 -2.5 0z" fill="black"></path>
            <path d="M363.75 345 a1.25 1.25 0 1 0 2.5 0 a1.25 1.25 0 1 0 -2.5 0zM353.75 335 a1.25 1.25 0 1 0 2.5 0 a1.25 1.25 0 1 0 -2.5 0z" fill="black"></path>
            <path d="M373.75 505 a1.25 1.25 0 1 0 2.5 0 a1.25 1.25 0 1 0 -2.5 0zM503.75 495 a1.25 1.25 0 1 0 2.5 0 a1.25 1.25 0 1 0 -2.5 0zM413.75 505 a1.25 1.25 0 1 0 2.5 0 a1.25 1.25 0 1 0 -2.5 0zM513.75 495 a1.25 1.25 0 1 0 2.5 0 a1.25 1.25 0 1 0 -2.5 0zM483.75 515 a1.25 1.25 0 1 0 2.5 0 a1.25 1.25 0 1 0 -2.5 0zM493.75 515 a1.25 1.25 0 1 0 2.5 0 a1.25 1.25 0 1 0 -2.5 0z" fill="black"></path>
            <path d="M113.75 315 a1.25 1.25 0 1 0 2.5 0 a1.25 1.25 0 1 0 -2.5 0zM183.75 325 a1.25 1.25 0 1 0 2.5 0 a1.25 1.25 0 1 0 -2.5 0zM143.75 295 a1.25 1.25 0 1 0 2.5 0 a1.25 1.25 0 1 0 -2.5 0zM103.75 325 a1.25 1.25 0 1 0 2.5 0 a1.25 1.25 0 1 0 -2.5 0zM123.75 335 a1.25 1.25 0 1 0 2.5 0 a1.25 1.25 0 1 0 -2.5 0zM133.75 335 a1.25 1.25 0 1 0 2.5 0 a1.25 1.25 0 1 0 -2.5 0zM113.75 305 a1.25 1.25 0 1 0 2.5 0 a1.25 1.25 0 1 0 -2.5 0zM373.75 335 a1.25 1.25 0 1 0 2.5 0 a1.25 1.25 0 1 0 -2.5 0zM213.75 325 a1.25 1.25 0 1 0 2.5 0 a1.25 1.25 0 1 0 -2.5 0zM193.75 335 a1.25 1.25 0 1 0 2.5 0 a1.25 1.25 0 1 0 -2.5 0zM283.75 335 a1.25 1.25 0 1 0 2.5 0 a1.25 1.25 0 1 0 -2.5 0zM263.75 305 a1.25 1.25 0 1 0 2.5 0 a1.25 1.25 0 1 0 -2.5 0zM223.75 335 a1.25 1.25 0 1 0 2.5 0 a1.25 1.25 0 1 0 -2.5 0z" fill="black"></path>
            <path d="M383.75 515 a1.25 1.25 0 1 0 2.5 0 a1.25 1.25 0 1 0 -2.5 0zM383.75 525 a1.25 1.25 0 1 0 2.5 0 a1.25 1.25 0 1 0 -2.5 0zM493.75 525 a1.25 1.25 0 1 0 2.5 0 a1.25 1.25 0 1 0 -2.5 0zM403.75 525 a1.25 1.25 0 1 0 2.5 0 a1.25 1.25 0 1 0 -2.5 0zM503.75 515 a1.25 1.25 0 1 0 2.5 0 a1.25 1.25 0 1 0 -2.5 0zM523.75 515 a1.25 1.25 0 1 0 2.5 0 a1.25 1.25 0 1 0 -2.5 0z" fill="black"></path>
            <path d="M313.75 305 a1.25 1.25 0 1 0 2.5 0 a1.25 1.25 0 1 0 -2.5 0zM503.75 345 a1.25 1.25 0 1 0 2.5 0 a1.25 1.25 0 1 0 -2.5 0zM293.75 305 a1.25 1.25 0 1 0 2.5 0 a1.25 1.25 0 1 0 -2.5 0zM463.75 355 a1.25 1.25 0 1 0 2.5 0 a1.25 1.25 0 1 0 -2.5 0zM513.75 345 a1.25 1.25 0 1 0 2.5 0 a1.25 1.25 0 1 0 -2.5 0zM343.75 315 a1.25 1.25 0 1 0 2.5 0 a1.25 1.25 0 1 0 -2.5 0zM423.75 325 a1.25 1.25 0 1 0 2.5 0 a1.25 1.25 0 1 0 -2.5 0z" fill="black"></path>
            <path d="M473.75 545 a1.25 1.25 0 1 0 2.5 0 a1.25 1.25 0 1 0 -2.5 0zM543.75 535 a1.25 1.25 0 1 0 2.5 0 a1.25 1.25 0 1 0 -2.5 0zM473.75 535 a1.25 1.25 0 1 0 2.5 0 a1.25 1.25 0 1 0 -2.5 0z" fill="black"></path>
            <path d="M443.75 325 a1.25 1.25 0 1 0 2.5 0 a1.25 1.25 0 1 0 -2.5 0z" fill="black"></path>
            <path d="M423.75 565 a1.25 1.25 0 1 0 2.5 0 a1.25 1.25 0 1 0 -2.5 0zM423.75 555 a1.25 1.25 0 1 0 2.5 0 a1.25 1.25 0 1 0 -2.5 0zM423.75 545 a1.25 1.25 0 1 0 2.5 0 a1.25 1.25 0 1 0 -2.5 0zM553.75 535 a1.25 1.25 0 1 0 2.5 0 a1.25 1.25 0 1 0 -2.5 0z" fill="black"></path>
            <path d="M233.75 285 a1.25 1.25 0 1 0 2.5 0 a1.25 1.25 0 1 0 -2.5 0zM173.75 275 a1.25 1.25 0 1 0 2.5 0 a1.25 1.25 0 1 0 -2.5 0zM483.75 325 a1.25 1.25 0 1 0 2.5 0 a1.25 1.25 0 1 0 -2.5 0zM223.75 295 a1.25 1.25 0 1 0 2.5 0 a1.25 1.25 0 1 0 -2.5 0zM533.75 335 a1.25 1.25 0 1 0 2.5 0 a1.25 1.25 0 1 0 -2.5 0z" fill="black"></path>
            <path d="M323.75 565 a1.25 1.25 0 1 0 2.5 0 a1.25 1.25 0 1 0 -2.5 0zM343.75 575 a1.25 1.25 0 1 0 2.5 0 a1.25 1.25 0 1 0 -2.5 0zM373.75 575 a1.25 1.25 0 1 0 2.5 0 a1.25 1.25 0 1 0 -2.5 0zM343.75 545 a1.25 1.25 0 1 0 2.5 0 a1.25 1.25 0 1 0 -2.5 0zM323.75 535 a1.25 1.25 0 1 0 2.5 0 a1.25 1.25 0 1 0 -2.5 0zM373.75 545 a1.25 1.25 0 1 0 2.5 0 a1.25 1.25 0 1 0 -2.5 0zM323.75 545 a1.25 1.25 0 1 0 2.5 0 a1.25 1.25 0 1 0 -2.5 0z" fill="black"></path>
            <path d="M383.75 305 a1.25 1.25 0 1 0 2.5 0 a1.25 1.25 0 1 0 -2.5 0z" fill="black"></path>
            <path d="M353.75 585 a1.25 1.25 0 1 0 2.5 0 a1.25 1.25 0 1 0 -2.5 0z" fill="black"></path>
            <path d="M323.75 285 a1.25 1.25 0 1 0 2.5 0 a1.25 1.25 0 1 0 -2.5 0zM413.75 285 a1.25 1.25 0 1 0 2.5 0 a1.25 1.25 0 1 0 -2.5 0zM423.75 285 a1.25 1.25 0 1 0 2.5 0 a1.25 1.25 0 1 0 -2.5 0zM303.75 275 a1.25 1.25 0 1 0 2.5 0 a1.25 1.25 0 1 0 -2.5 0zM343.75 275 a1.25 1.25 0 1 0 2.5 0 a1.25 1.25 0 1 0 -2.5 0zM363.75 275 a1.25 1.25 0 1 0 2.5 0 a1.25 1.25 0 1 0 -2.5 0zM393.75 285 a1.25 1.25 0 1 0 2.5 0 a1.25 1.25 0 1 0 -2.5 0z" fill="black"></path>
            <path d="M253.75 625 a1.25 1.25 0 1 0 2.5 0 a1.25 1.25 0 1 0 -2.5 0zM343.75 595 a1.25 1.25 0 1 0 2.5 0 a1.25 1.25 0 1 0 -2.5 0zM293.75 605 a1.25 1.25 0 1 0 2.5 0 a1.25 1.25 0 1 0 -2.5 0zM173.75 625 a1.25 1.25 0 1 0 2.5 0 a1.25 1.25 0 1 0 -2.5 0zM363.75 605 a1.25 1.25 0 1 0 2.5 0 a1.25 1.25 0 1 0 -2.5 0zM323.75 615 a1.25 1.25 0 1 0 2.5 0 a1.25 1.25 0 1 0 -2.5 0zM303.75 615 a1.25 1.25 0 1 0 2.5 0 a1.25 1.25 0 1 0 -2.5 0zM373.75 605 a1.25 1.25 0 1 0 2.5 0 a1.25 1.25 0 1 0 -2.5 0zM353.75 595 a1.25 1.25 0 1 0 2.5 0 a1.25 1.25 0 1 0 -2.5 0z" fill="black"></path>
            <path d="M383.75 275 a1.25 1.25 0 1 0 2.5 0 a1.25 1.25 0 1 0 -2.5 0zM433.75 285 a1.25 1.25 0 1 0 2.5 0 a1.25 1.25 0 1 0 -2.5 0zM473.75 285 a1.25 1.25 0 1 0 2.5 0 a1.25 1.25 0 1 0 -2.5 0zM503.75 285 a1.25 1.25 0 1 0 2.5 0 a1.25 1.25 0 1 0 -2.5 0zM453.75 285 a1.25 1.25 0 1 0 2.5 0 a1.25 1.25 0 1 0 -2.5 0z" fill="black"></path>
            <path d="M23.75 635 a1.25 1.25 0 1 0 2.5 0 a1.25 1.25 0 1 0 -2.5 0zM203.75 655 a1.25 1.25 0 1 0 2.5 0 a1.25 1.25 0 1 0 -2.5 0zM113.75 625 a1.25 1.25 0 1 0 2.5 0 a1.25 1.25 0 1 0 -2.5 0zM23.75 625 a1.25 1.25 0 1 0 2.5 0 a1.25 1.25 0 1 0 -2.5 0zM23.75 615 a1.25 1.25 0 1 0 2.5 0 a1.25 1.25 0 1 0 -2.5 0zM203.75 625 a1.25 1.25 0 1 0 2.5 0 a1.25 1.25 0 1 0 -2.5 0zM243.75 655 a1.25 1.25 0 1 0 2.5 0 a1.25 1.25 0 1 0 -2.5 0zM63.75 655 a1.25 1.25 0 1 0 2.5 0 a1.25 1.25 0 1 0 -2.5 0zM33.75 645 a1.25 1.25 0 1 0 2.5 0 a1.25 1.25 0 1 0 -2.5 0zM383.75 605 a1.25 1.25 0 1 0 2.5 0 a1.25 1.25 0 1 0 -2.5 0zM23.75 665 a1.25 1.25 0 1 0 2.5 0 a1.25 1.25 0 1 0 -2.5 0zM93.75 625 a1.25 1.25 0 1 0 2.5 0 a1.25 1.25 0 1 0 -2.5 0zM223.75 625 a1.25 1.25 0 1 0 2.5 0 a1.25 1.25 0 1 0 -2.5 0zM343.75 615 a1.25 1.25 0 1 0 2.5 0 a1.25 1.25 0 1 0 -2.5 0zM43.75 645 a1.25 1.25 0 1 0 2.5 0 a1.25 1.25 0 1 0 -2.5 0z" fill="black"></path>
            <path d="M343.75 265 a1.25 1.25 0 1 0 2.5 0 a1.25 1.25 0 1 0 -2.5 0zM513.75 285 a1.25 1.25 0 1 0 2.5 0 a1.25 1.25 0 1 0 -2.5 0z" fill="black"></path>
            <path d="M73.75 225 a1.25 1.25 0 1 0 2.5 0 a1.25 1.25 0 1 0 -2.5 0zM203.75 265 a1.25 1.25 0 1 0 2.5 0 a1.25 1.25 0 1 0 -2.5 0zM143.75 255 a1.25 1.25 0 1 0 2.5 0 a1.25 1.25 0 1 0 -2.5 0zM253.75 275 a1.25 1.25 0 1 0 2.5 0 a1.25 1.25 0 1 0 -2.5 0zM103.75 235 a1.25 1.25 0 1 0 2.5 0 a1.25 1.25 0 1 0 -2.5 0zM103.75 265 a1.25 1.25 0 1 0 2.5 0 a1.25 1.25 0 1 0 -2.5 0zM113.75 265 a1.25 1.25 0 1 0 2.5 0 a1.25 1.25 0 1 0 -2.5 0zM263.75 275 a1.25 1.25 0 1 0 2.5 0 a1.25 1.25 0 1 0 -2.5 0zM303.75 265 a1.25 1.25 0 1 0 2.5 0 a1.25 1.25 0 1 0 -2.5 0zM323.75 265 a1.25 1.25 0 1 0 2.5 0 a1.25 1.25 0 1 0 -2.5 0zM23.75 235 a1.25 1.25 0 1 0 2.5 0 a1.25 1.25 0 1 0 -2.5 0zM173.75 265 a1.25 1.25 0 1 0 2.5 0 a1.25 1.25 0 1 0 -2.5 0zM183.75 265 a1.25 1.25 0 1 0 2.5 0 a1.25 1.25 0 1 0 -2.5 0zM143.75 245 a1.25 1.25 0 1 0 2.5 0 a1.25 1.25 0 1 0 -2.5 0z" fill="black"></path>
            <path d="M303.75 645 a1.25 1.25 0 1 0 2.5 0 a1.25 1.25 0 1 0 -2.5 0zM403.75 625 a1.25 1.25 0 1 0 2.5 0 a1.25 1.25 0 1 0 -2.5 0zM313.75 645 a1.25 1.25 0 1 0 2.5 0 a1.25 1.25 0 1 0 -2.5 0zM323.75 645 a1.25 1.25 0 1 0 2.5 0 a1.25 1.25 0 1 0 -2.5 0z" fill="black"></path>
            <path d="M543.75 275 a1.25 1.25 0 1 0 2.5 0 a1.25 1.25 0 1 0 -2.5 0z" fill="black"></path>
            <path d="M313.75 655 a1.25 1.25 0 1 0 2.5 0 a1.25 1.25 0 1 0 -2.5 0zM463.75 625 a1.25 1.25 0 1 0 2.5 0 a1.25 1.25 0 1 0 -2.5 0zM473.75 625 a1.25 1.25 0 1 0 2.5 0 a1.25 1.25 0 1 0 -2.5 0zM433.75 625 a1.25 1.25 0 1 0 2.5 0 a1.25 1.25 0 1 0 -2.5 0zM493.75 625 a1.25 1.25 0 1 0 2.5 0 a1.25 1.25 0 1 0 -2.5 0zM503.75 625 a1.25 1.25 0 1 0 2.5 0 a1.25 1.25 0 1 0 -2.5 0zM443.75 635 a1.25 1.25 0 1 0 2.5 0 a1.25 1.25 0 1 0 -2.5 0z" fill="black"></path>
            <path d="M23.75 225 a1.25 1.25 0 1 0 2.5 0 a1.25 1.25 0 1 0 -2.5 0zM353.75 235 a1.25 1.25 0 1 0 2.5 0 a1.25 1.25 0 1 0 -2.5 0zM33.75 205 a1.25 1.25 0 1 0 2.5 0 a1.25 1.25 0 1 0 -2.5 0zM73.75 195 a1.25 1.25 0 1 0 2.5 0 a1.25 1.25 0 1 0 -2.5 0zM53.75 225 a1.25 1.25 0 1 0 2.5 0 a1.25 1.25 0 1 0 -2.5 0zM23.75 215 a1.25 1.25 0 1 0 2.5 0 a1.25 1.25 0 1 0 -2.5 0zM103.75 195 a1.25 1.25 0 1 0 2.5 0 a1.25 1.25 0 1 0 -2.5 0zM43.75 215 a1.25 1.25 0 1 0 2.5 0 a1.25 1.25 0 1 0 -2.5 0zM203.75 245 a1.25 1.25 0 1 0 2.5 0 a1.25 1.25 0 1 0 -2.5 0z" fill="black"></path>
            <path d="M523.75 625 a1.25 1.25 0 1 0 2.5 0 a1.25 1.25 0 1 0 -2.5 0z" fill="black"></path>
            <path d="M163.75 225 a1.25 1.25 0 1 0 2.5 0 a1.25 1.25 0 1 0 -2.5 0zM173.75 215 a1.25 1.25 0 1 0 2.5 0 a1.25 1.25 0 1 0 -2.5 0zM383.75 235 a1.25 1.25 0 1 0 2.5 0 a1.25 1.25 0 1 0 -2.5 0zM293.75 225 a1.25 1.25 0 1 0 2.5 0 a1.25 1.25 0 1 0 -2.5 0zM333.75 225 a1.25 1.25 0 1 0 2.5 0 a1.25 1.25 0 1 0 -2.5 0z" fill="black"></path>
            <path d="M473.75 635 a1.25 1.25 0 1 0 2.5 0 a1.25 1.25 0 1 0 -2.5 0zM563.75 625 a1.25 1.25 0 1 0 2.5 0 a1.25 1.25 0 1 0 -2.5 0z" fill="black"></path>
            <path d="M143.75 215 a1.25 1.25 0 1 0 2.5 0 a1.25 1.25 0 1 0 -2.5 0zM113.75 195 a1.25 1.25 0 1 0 2.5 0 a1.25 1.25 0 1 0 -2.5 0zM133.75 195 a1.25 1.25 0 1 0 2.5 0 a1.25 1.25 0 1 0 -2.5 0zM203.75 195 a1.25 1.25 0 1 0 2.5 0 a1.25 1.25 0 1 0 -2.5 0zM443.75 225 a1.25 1.25 0 1 0 2.5 0 a1.25 1.25 0 1 0 -2.5 0zM463.75 225 a1.25 1.25 0 1 0 2.5 0 a1.25 1.25 0 1 0 -2.5 0zM273.75 205 a1.25 1.25 0 1 0 2.5 0 a1.25 1.25 0 1 0 -2.5 0zM153.75 215 a1.25 1.25 0 1 0 2.5 0 a1.25 1.25 0 1 0 -2.5 0zM473.75 225 a1.25 1.25 0 1 0 2.5 0 a1.25 1.25 0 1 0 -2.5 0zM213.75 215 a1.25 1.25 0 1 0 2.5 0 a1.25 1.25 0 1 0 -2.5 0zM213.75 195 a1.25 1.25 0 1 0 2.5 0 a1.25 1.25 0 1 0 -2.5 0zM243.75 205 a1.25 1.25 0 1 0 2.5 0 a1.25 1.25 0 1 0 -2.5 0z" fill="black"></path>
            <path d="M273.75 665 a1.25 1.25 0 1 0 2.5 0 a1.25 1.25 0 1 0 -2.5 0zM293.75 655 a1.25 1.25 0 1 0 2.5 0 a1.25 1.25 0 1 0 -2.5 0zM373.75 645 a1.25 1.25 0 1 0 2.5 0 a1.25 1.25 0 1 0 -2.5 0zM453.75 635 a1.25 1.25 0 1 0 2.5 0 a1.25 1.25 0 1 0 -2.5 0zM353.75 645 a1.25 1.25 0 1 0 2.5 0 a1.25 1.25 0 1 0 -2.5 0zM203.75 675 a1.25 1.25 0 1 0 2.5 0 a1.25 1.25 0 1 0 -2.5 0zM233.75 665 a1.25 1.25 0 1 0 2.5 0 a1.25 1.25 0 1 0 -2.5 0zM303.75 675 a1.25 1.25 0 1 0 2.5 0 a1.25 1.25 0 1 0 -2.5 0z" fill="black"></path>
            <path d="M263.75 195 a1.25 1.25 0 1 0 2.5 0 a1.25 1.25 0 1 0 -2.5 0zM313.75 195 a1.25 1.25 0 1 0 2.5 0 a1.25 1.25 0 1 0 -2.5 0zM323.75 195 a1.25 1.25 0 1 0 2.5 0 a1.25 1.25 0 1 0 -2.5 0zM333.75 195 a1.25 1.25 0 1 0 2.5 0 a1.25 1.25 0 1 0 -2.5 0zM483.75 225 a1.25 1.25 0 1 0 2.5 0 a1.25 1.25 0 1 0 -2.5 0zM293.75 195 a1.25 1.25 0 1 0 2.5 0 a1.25 1.25 0 1 0 -2.5 0zM493.75 225 a1.25 1.25 0 1 0 2.5 0 a1.25 1.25 0 1 0 -2.5 0z" fill="black"></path>
            <path d="M353.75 195 a1.25 1.25 0 1 0 2.5 0 a1.25 1.25 0 1 0 -2.5 0zM393.75 195 a1.25 1.25 0 1 0 2.5 0 a1.25 1.25 0 1 0 -2.5 0z" fill="black"></path>
            <path d="M163.75 685 a1.25 1.25 0 1 0 2.5 0 a1.25 1.25 0 1 0 -2.5 0zM193.75 705 a1.25 1.25 0 1 0 2.5 0 a1.25 1.25 0 1 0 -2.5 0zM63.75 675 a1.25 1.25 0 1 0 2.5 0 a1.25 1.25 0 1 0 -2.5 0zM223.75 695 a1.25 1.25 0 1 0 2.5 0 a1.25 1.25 0 1 0 -2.5 0zM153.75 715 a1.25 1.25 0 1 0 2.5 0 a1.25 1.25 0 1 0 -2.5 0zM273.75 695 a1.25 1.25 0 1 0 2.5 0 a1.25 1.25 0 1 0 -2.5 0zM383.75 665 a1.25 1.25 0 1 0 2.5 0 a1.25 1.25 0 1 0 -2.5 0zM253.75 695 a1.25 1.25 0 1 0 2.5 0 a1.25 1.25 0 1 0 -2.5 0zM233.75 705 a1.25 1.25 0 1 0 2.5 0 a1.25 1.25 0 1 0 -2.5 0zM143.75 695 a1.25 1.25 0 1 0 2.5 0 a1.25 1.25 0 1 0 -2.5 0zM203.75 685 a1.25 1.25 0 1 0 2.5 0 a1.25 1.25 0 1 0 -2.5 0z" fill="black"></path>
            <path d="M63.75 185 a1.25 1.25 0 1 0 2.5 0 a1.25 1.25 0 1 0 -2.5 0zM143.75 175 a1.25 1.25 0 1 0 2.5 0 a1.25 1.25 0 1 0 -2.5 0zM273.75 175 a1.25 1.25 0 1 0 2.5 0 a1.25 1.25 0 1 0 -2.5 0zM223.75 195 a1.25 1.25 0 1 0 2.5 0 a1.25 1.25 0 1 0 -2.5 0zM303.75 175 a1.25 1.25 0 1 0 2.5 0 a1.25 1.25 0 1 0 -2.5 0zM253.75 175 a1.25 1.25 0 1 0 2.5 0 a1.25 1.25 0 1 0 -2.5 0zM23.75 185 a1.25 1.25 0 1 0 2.5 0 a1.25 1.25 0 1 0 -2.5 0zM73.75 175 a1.25 1.25 0 1 0 2.5 0 a1.25 1.25 0 1 0 -2.5 0zM503.75 205 a1.25 1.25 0 1 0 2.5 0 a1.25 1.25 0 1 0 -2.5 0zM233.75 195 a1.25 1.25 0 1 0 2.5 0 a1.25 1.25 0 1 0 -2.5 0zM523.75 215 a1.25 1.25 0 1 0 2.5 0 a1.25 1.25 0 1 0 -2.5 0zM93.75 175 a1.25 1.25 0 1 0 2.5 0 a1.25 1.25 0 1 0 -2.5 0zM113.75 175 a1.25 1.25 0 1 0 2.5 0 a1.25 1.25 0 1 0 -2.5 0zM513.75 205 a1.25 1.25 0 1 0 2.5 0 a1.25 1.25 0 1 0 -2.5 0z" fill="black"></path>
            <path d="M323.75 685 a1.25 1.25 0 1 0 2.5 0 a1.25 1.25 0 1 0 -2.5 0zM343.75 685 a1.25 1.25 0 1 0 2.5 0 a1.25 1.25 0 1 0 -2.5 0zM393.75 665 a1.25 1.25 0 1 0 2.5 0 a1.25 1.25 0 1 0 -2.5 0zM383.75 695 a1.25 1.25 0 1 0 2.5 0 a1.25 1.25 0 1 0 -2.5 0zM353.75 685 a1.25 1.25 0 1 0 2.5 0 a1.25 1.25 0 1 0 -2.5 0zM293.75 705 a1.25 1.25 0 1 0 2.5 0 a1.25 1.25 0 1 0 -2.5 0zM363.75 685 a1.25 1.25 0 1 0 2.5 0 a1.25 1.25 0 1 0 -2.5 0z" fill="black"></path>
            <path d="M23.75 165 a1.25 1.25 0 1 0 2.5 0 a1.25 1.25 0 1 0 -2.5 0zM333.75 175 a1.25 1.25 0 1 0 2.5 0 a1.25 1.25 0 1 0 -2.5 0zM73.75 155 a1.25 1.25 0 1 0 2.5 0 a1.25 1.25 0 1 0 -2.5 0zM173.75 155 a1.25 1.25 0 1 0 2.5 0 a1.25 1.25 0 1 0 -2.5 0zM533.75 205 a1.25 1.25 0 1 0 2.5 0 a1.25 1.25 0 1 0 -2.5 0zM243.75 155 a1.25 1.25 0 1 0 2.5 0 a1.25 1.25 0 1 0 -2.5 0zM433.75 185 a1.25 1.25 0 1 0 2.5 0 a1.25 1.25 0 1 0 -2.5 0zM83.75 145 a1.25 1.25 0 1 0 2.5 0 a1.25 1.25 0 1 0 -2.5 0zM443.75 185 a1.25 1.25 0 1 0 2.5 0 a1.25 1.25 0 1 0 -2.5 0zM123.75 155 a1.25 1.25 0 1 0 2.5 0 a1.25 1.25 0 1 0 -2.5 0zM133.75 145 a1.25 1.25 0 1 0 2.5 0 a1.25 1.25 0 1 0 -2.5 0zM23.75 135 a1.25 1.25 0 1 0 2.5 0 a1.25 1.25 0 1 0 -2.5 0zM23.75 125 a1.25 1.25 0 1 0 2.5 0 a1.25 1.25 0 1 0 -2.5 0zM133.75 155 a1.25 1.25 0 1 0 2.5 0 a1.25 1.25 0 1 0 -2.5 0zM213.75 145 a1.25 1.25 0 1 0 2.5 0 a1.25 1.25 0 1 0 -2.5 0z" fill="black"></path>
            <path d="M433.75 675 a1.25 1.25 0 1 0 2.5 0 a1.25 1.25 0 1 0 -2.5 0zM423.75 685 a1.25 1.25 0 1 0 2.5 0 a1.25 1.25 0 1 0 -2.5 0zM533.75 675 a1.25 1.25 0 1 0 2.5 0 a1.25 1.25 0 1 0 -2.5 0zM453.75 685 a1.25 1.25 0 1 0 2.5 0 a1.25 1.25 0 1 0 -2.5 0zM483.75 685 a1.25 1.25 0 1 0 2.5 0 a1.25 1.25 0 1 0 -2.5 0z" fill="black"></path>
            <path d="M283.75 155 a1.25 1.25 0 1 0 2.5 0 a1.25 1.25 0 1 0 -2.5 0zM493.75 165 a1.25 1.25 0 1 0 2.5 0 a1.25 1.25 0 1 0 -2.5 0zM303.75 145 a1.25 1.25 0 1 0 2.5 0 a1.25 1.25 0 1 0 -2.5 0zM353.75 145 a1.25 1.25 0 1 0 2.5 0 a1.25 1.25 0 1 0 -2.5 0zM383.75 155 a1.25 1.25 0 1 0 2.5 0 a1.25 1.25 0 1 0 -2.5 0zM453.75 145 a1.25 1.25 0 1 0 2.5 0 a1.25 1.25 0 1 0 -2.5 0zM423.75 145 a1.25 1.25 0 1 0 2.5 0 a1.25 1.25 0 1 0 -2.5 0zM283.75 135 a1.25 1.25 0 1 0 2.5 0 a1.25 1.25 0 1 0 -2.5 0z" fill="black"></path>
        </mask>
    </defs>
</svg>