<svg xmlns="http://www.w3.org/2000/svg" version="1.1" xmlns:xlink="http://www.w3.org/1999/xlink" xmlns:svgjs="http://svgjs.com/svgjs" width="500" height="500" preserveAspectRatio="none" viewBox="0 0 500 500">
    <g mask="url(&quot;#SvgjsMask1072&quot;)" fill="none">
        <g mask="url(&quot;#SvgjsMask1073&quot;)">
            <path d="M275 275L225 225L175 225L125 225M575 275L525 275L475 275L425 275L375 275L325 275L275 275L225 275L175 275" stroke="rgba(30, 187, 138, 1)" stroke-width="8.33"></path>
            <path d="M162.5 275 a12.5 12.5 0 1 0 25 0 a12.5 12.5 0 1 0 -25 0zM112.5 225 a12.5 12.5 0 1 0 25 0 a12.5 12.5 0 1 0 -25 0z" fill="rgba(30, 187, 138, 1)"></path>
            <path d="M575 225L525 225L475 225L425 225L375 225L325 225" stroke="rgba(40, 123, 97, 1)" stroke-width="8.33"></path>
            <path d="M312.5 225 a12.5 12.5 0 1 0 25 0 a12.5 12.5 0 1 0 -25 0z" fill="rgba(40, 123, 97, 1)"></path>
            <path d="M275 325L225 375L175 375L125 375M475 325L425 375M375 325L325 375L275 375L225 425L175 425M575 325L525 325L475 325L425 325L375 325L325 325L275 325L225 325L175 325L125 325" stroke="rgba(30, 187, 138, 1)" stroke-width="8.33"></path>
            <path d="M112.5 325 a12.5 12.5 0 1 0 25 0 a12.5 12.5 0 1 0 -25 0zM112.5 375 a12.5 12.5 0 1 0 25 0 a12.5 12.5 0 1 0 -25 0zM412.5 375 a12.5 12.5 0 1 0 25 0 a12.5 12.5 0 1 0 -25 0zM162.5 425 a12.5 12.5 0 1 0 25 0 a12.5 12.5 0 1 0 -25 0z" fill="rgba(30, 187, 138, 1)"></path>
            <path d="M475 175L425 125L375 125L325 125M525 175L475 125M575 175L525 175L475 175L425 175L375 175L325 175" stroke="rgba(30, 187, 138, 1)" stroke-width="8.33"></path>
            <path d="M312.5 175 a12.5 12.5 0 1 0 25 0 a12.5 12.5 0 1 0 -25 0zM312.5 125 a12.5 12.5 0 1 0 25 0 a12.5 12.5 0 1 0 -25 0zM462.5 125 a12.5 12.5 0 1 0 25 0 a12.5 12.5 0 1 0 -25 0z" fill="rgba(30, 187, 138, 1)"></path>
        </g>
    </g>
    <defs>
        <mask id="SvgjsMask1072">
            <rect width="500" height="500" fill="#ffffff"></rect>
        </mask>
        <mask id="SvgjsMask1073">
            <rect width="500" height="500" fill="white"></rect>
            <path d="M168.75 275 a6.25 6.25 0 1 0 12.5 0 a6.25 6.25 0 1 0 -12.5 0zM118.75 225 a6.25 6.25 0 1 0 12.5 0 a6.25 6.25 0 1 0 -12.5 0z" fill="black"></path>
            <path d="M318.75 225 a6.25 6.25 0 1 0 12.5 0 a6.25 6.25 0 1 0 -12.5 0z" fill="black"></path>
            <path d="M118.75 325 a6.25 6.25 0 1 0 12.5 0 a6.25 6.25 0 1 0 -12.5 0zM118.75 375 a6.25 6.25 0 1 0 12.5 0 a6.25 6.25 0 1 0 -12.5 0zM418.75 375 a6.25 6.25 0 1 0 12.5 0 a6.25 6.25 0 1 0 -12.5 0zM168.75 425 a6.25 6.25 0 1 0 12.5 0 a6.25 6.25 0 1 0 -12.5 0z" fill="black"></path>
            <path d="M318.75 175 a6.25 6.25 0 1 0 12.5 0 a6.25 6.25 0 1 0 -12.5 0zM318.75 125 a6.25 6.25 0 1 0 12.5 0 a6.25 6.25 0 1 0 -12.5 0zM468.75 125 a6.25 6.25 0 1 0 12.5 0 a6.25 6.25 0 1 0 -12.5 0z" fill="black"></path>
        </mask>
    </defs>
</svg>