<svg xmlns="http://www.w3.org/2000/svg" version="1.1" xmlns:xlink="http://www.w3.org/1999/xlink" xmlns:svgjs="http://svgjs.com/svgjs" width="750" height="350" preserveAspectRatio="none" viewBox="0 0 750 350">
    <g mask="url(&quot;#SvgjsMask1122&quot;)" fill="none">
        <g mask="url(&quot;#SvgjsMask1123&quot;)">
            <path d="M87.5 212.5L112.5 187.5L137.5 187.5M187.5 237.5L212.5 212.5M237.5 237.5L262.5 212.5L287.5 212.5L312.5 212.5L337.5 212.5M-12.5 187.5L12.5 187.5L37.5 187.5L62.5 212.5L87.5 212.5L112.5 212.5L137.5 212.5L162.5 237.5L187.5 237.5L212.5 237.5L237.5 237.5L262.5 237.5" stroke="rgba(255, 255, 255, 1)" stroke-width="4.17"></path>
            <path d="M256.25 237.5 a6.25 6.25 0 1 0 12.5 0 a6.25 6.25 0 1 0 -12.5 0zM131.25 187.5 a6.25 6.25 0 1 0 12.5 0 a6.25 6.25 0 1 0 -12.5 0zM206.25 212.5 a6.25 6.25 0 1 0 12.5 0 a6.25 6.25 0 1 0 -12.5 0zM331.25 212.5 a6.25 6.25 0 1 0 12.5 0 a6.25 6.25 0 1 0 -12.5 0z" fill="rgba(255, 255, 255, 1)"></path>
            <path d="M62.5 137.5L87.5 162.5L112.5 162.5M412.5 187.5L437.5 212.5L462.5 212.5M562.5 162.5L587.5 187.5M187.5 187.5L212.5 162.5L237.5 162.5L262.5 162.5M512.5 187.5L537.5 187.5L562.5 187.5M387.5 187.5L412.5 212.5L437.5 237.5L462.5 237.5L487.5 237.5L512.5 237.5L537.5 212.5L562.5 212.5M112.5 137.5L137.5 137.5M-12.5 162.5L12.5 162.5L37.5 162.5L62.5 137.5L87.5 137.5L112.5 137.5L137.5 162.5L162.5 187.5L187.5 187.5L212.5 187.5L237.5 187.5L262.5 187.5L287.5 187.5L312.5 187.5L337.5 187.5L362.5 187.5L387.5 187.5L412.5 187.5L437.5 187.5L462.5 187.5L487.5 187.5L512.5 187.5L537.5 162.5L562.5 162.5L587.5 162.5L612.5 162.5L637.5 162.5L662.5 162.5L687.5 162.5" stroke="rgba(255, 255, 255, 1)" stroke-width="4.17"></path>
            <path d="M681.25 162.5 a6.25 6.25 0 1 0 12.5 0 a6.25 6.25 0 1 0 -12.5 0zM106.25 162.5 a6.25 6.25 0 1 0 12.5 0 a6.25 6.25 0 1 0 -12.5 0zM456.25 212.5 a6.25 6.25 0 1 0 12.5 0 a6.25 6.25 0 1 0 -12.5 0zM581.25 187.5 a6.25 6.25 0 1 0 12.5 0 a6.25 6.25 0 1 0 -12.5 0zM256.25 162.5 a6.25 6.25 0 1 0 12.5 0 a6.25 6.25 0 1 0 -12.5 0zM556.25 187.5 a6.25 6.25 0 1 0 12.5 0 a6.25 6.25 0 1 0 -12.5 0zM556.25 212.5 a6.25 6.25 0 1 0 12.5 0 a6.25 6.25 0 1 0 -12.5 0zM131.25 137.5 a6.25 6.25 0 1 0 12.5 0 a6.25 6.25 0 1 0 -12.5 0z" fill="rgba(255, 255, 255, 1)"></path>
            <path d="M587.5 237.5L612.5 212.5L637.5 212.5L662.5 187.5L687.5 187.5L712.5 187.5M562.5 237.5L587.5 262.5L612.5 262.5L637.5 262.5L662.5 262.5L687.5 262.5L712.5 262.5M537.5 237.5L562.5 262.5L587.5 287.5L612.5 287.5L637.5 287.5L662.5 287.5L687.5 312.5L712.5 312.5M512.5 262.5L537.5 262.5L562.5 287.5M287.5 262.5L312.5 237.5L337.5 237.5L362.5 237.5L387.5 237.5M-12.5 212.5L12.5 212.5L37.5 212.5L62.5 237.5L87.5 237.5L112.5 237.5L137.5 237.5L162.5 262.5L187.5 262.5L212.5 262.5L237.5 262.5L262.5 262.5L287.5 262.5L312.5 262.5L337.5 262.5L362.5 262.5L387.5 262.5L412.5 262.5L437.5 262.5L462.5 262.5L487.5 262.5L512.5 262.5L537.5 237.5L562.5 237.5L587.5 237.5L612.5 237.5" stroke="rgba(255, 255, 255, 1)" stroke-width="4.17"></path>
            <path d="M606.25 237.5 a6.25 6.25 0 1 0 12.5 0 a6.25 6.25 0 1 0 -12.5 0zM706.25 187.5 a6.25 6.25 0 1 0 12.5 0 a6.25 6.25 0 1 0 -12.5 0zM706.25 262.5 a6.25 6.25 0 1 0 12.5 0 a6.25 6.25 0 1 0 -12.5 0zM706.25 312.5 a6.25 6.25 0 1 0 12.5 0 a6.25 6.25 0 1 0 -12.5 0zM556.25 287.5 a6.25 6.25 0 1 0 12.5 0 a6.25 6.25 0 1 0 -12.5 0zM381.25 237.5 a6.25 6.25 0 1 0 12.5 0 a6.25 6.25 0 1 0 -12.5 0z" fill="rgba(255, 255, 255, 1)"></path>
            <path d="M-12.5 137.5L12.5 137.5L37.5 137.5L62.5 112.5L87.5 112.5L112.5 112.5L137.5 112.5L162.5 112.5" stroke="rgba(255, 255, 255, 1)" stroke-width="4.17"></path>
            <path d="M156.25 112.5 a6.25 6.25 0 1 0 12.5 0 a6.25 6.25 0 1 0 -12.5 0z" fill="rgba(255, 255, 255, 1)"></path>
            <path d="M62.5 262.5L87.5 287.5L112.5 287.5L137.5 287.5L162.5 312.5L187.5 312.5L212.5 312.5L237.5 312.5L262.5 312.5L287.5 312.5L312.5 312.5M512.5 287.5L537.5 287.5M437.5 287.5L462.5 312.5L487.5 312.5L512.5 312.5M412.5 312.5L437.5 312.5M362.5 312.5L387.5 287.5M337.5 287.5L362.5 287.5M-12.5 237.5L12.5 237.5L37.5 262.5L62.5 262.5L87.5 262.5L112.5 262.5L137.5 262.5L162.5 287.5L187.5 287.5L212.5 287.5L237.5 287.5L262.5 287.5L287.5 287.5L312.5 287.5L337.5 287.5L362.5 312.5L387.5 312.5L412.5 312.5L437.5 287.5L462.5 287.5L487.5 287.5L512.5 287.5L537.5 312.5L562.5 312.5L587.5 312.5L612.5 312.5" stroke="rgba(255, 255, 255, 1)" stroke-width="4.17"></path>
            <path d="M606.25 312.5 a6.25 6.25 0 1 0 12.5 0 a6.25 6.25 0 1 0 -12.5 0zM306.25 312.5 a6.25 6.25 0 1 0 12.5 0 a6.25 6.25 0 1 0 -12.5 0zM531.25 287.5 a6.25 6.25 0 1 0 12.5 0 a6.25 6.25 0 1 0 -12.5 0zM506.25 312.5 a6.25 6.25 0 1 0 12.5 0 a6.25 6.25 0 1 0 -12.5 0zM431.25 312.5 a6.25 6.25 0 1 0 12.5 0 a6.25 6.25 0 1 0 -12.5 0zM381.25 287.5 a6.25 6.25 0 1 0 12.5 0 a6.25 6.25 0 1 0 -12.5 0zM356.25 287.5 a6.25 6.25 0 1 0 12.5 0 a6.25 6.25 0 1 0 -12.5 0z" fill="rgba(255, 255, 255, 1)"></path>
            <path d="M362.5 62.5L387.5 87.5L412.5 112.5L437.5 112.5M537.5 87.5L562.5 112.5L587.5 112.5L612.5 112.5M337.5 62.5L362.5 87.5L387.5 112.5M87.5 87.5L112.5 62.5L137.5 62.5M487.5 62.5L512.5 62.5L537.5 62.5M512.5 87.5L537.5 112.5L562.5 137.5L587.5 137.5M-12.5 112.5L12.5 112.5L37.5 112.5L62.5 87.5L87.5 87.5L112.5 87.5L137.5 87.5L162.5 62.5L187.5 62.5L212.5 62.5L237.5 62.5L262.5 62.5L287.5 62.5L312.5 62.5L337.5 62.5L362.5 62.5L387.5 62.5L412.5 62.5L437.5 62.5L462.5 62.5L487.5 62.5L512.5 87.5L537.5 87.5L562.5 87.5L587.5 87.5L612.5 87.5" stroke="rgba(255, 255, 255, 1)" stroke-width="4.17"></path>
            <path d="M606.25 87.5 a6.25 6.25 0 1 0 12.5 0 a6.25 6.25 0 1 0 -12.5 0zM431.25 112.5 a6.25 6.25 0 1 0 12.5 0 a6.25 6.25 0 1 0 -12.5 0zM606.25 112.5 a6.25 6.25 0 1 0 12.5 0 a6.25 6.25 0 1 0 -12.5 0zM381.25 112.5 a6.25 6.25 0 1 0 12.5 0 a6.25 6.25 0 1 0 -12.5 0zM131.25 62.5 a6.25 6.25 0 1 0 12.5 0 a6.25 6.25 0 1 0 -12.5 0zM531.25 62.5 a6.25 6.25 0 1 0 12.5 0 a6.25 6.25 0 1 0 -12.5 0zM581.25 137.5 a6.25 6.25 0 1 0 12.5 0 a6.25 6.25 0 1 0 -12.5 0z" fill="rgba(255, 255, 255, 1)"></path>
        </g>
    </g>
    <defs>
        <mask id="SvgjsMask1122">
            <rect width="750" height="350" fill="#ffffff"></rect>
        </mask>
        <mask id="SvgjsMask1123">
            <rect width="750" height="350" fill="white"></rect>
            <path d="M259.37 237.5 a3.13 3.13 0 1 0 6.26 0 a3.13 3.13 0 1 0 -6.26 0zM134.37 187.5 a3.13 3.13 0 1 0 6.26 0 a3.13 3.13 0 1 0 -6.26 0zM209.37 212.5 a3.13 3.13 0 1 0 6.26 0 a3.13 3.13 0 1 0 -6.26 0zM334.37 212.5 a3.13 3.13 0 1 0 6.26 0 a3.13 3.13 0 1 0 -6.26 0z" fill="black"></path>
            <path d="M684.37 162.5 a3.13 3.13 0 1 0 6.26 0 a3.13 3.13 0 1 0 -6.26 0zM109.37 162.5 a3.13 3.13 0 1 0 6.26 0 a3.13 3.13 0 1 0 -6.26 0zM459.37 212.5 a3.13 3.13 0 1 0 6.26 0 a3.13 3.13 0 1 0 -6.26 0zM584.37 187.5 a3.13 3.13 0 1 0 6.26 0 a3.13 3.13 0 1 0 -6.26 0zM259.37 162.5 a3.13 3.13 0 1 0 6.26 0 a3.13 3.13 0 1 0 -6.26 0zM559.37 187.5 a3.13 3.13 0 1 0 6.26 0 a3.13 3.13 0 1 0 -6.26 0zM559.37 212.5 a3.13 3.13 0 1 0 6.26 0 a3.13 3.13 0 1 0 -6.26 0zM134.37 137.5 a3.13 3.13 0 1 0 6.26 0 a3.13 3.13 0 1 0 -6.26 0z" fill="black"></path>
            <path d="M609.37 237.5 a3.13 3.13 0 1 0 6.26 0 a3.13 3.13 0 1 0 -6.26 0zM709.37 187.5 a3.13 3.13 0 1 0 6.26 0 a3.13 3.13 0 1 0 -6.26 0zM709.37 262.5 a3.13 3.13 0 1 0 6.26 0 a3.13 3.13 0 1 0 -6.26 0zM709.37 312.5 a3.13 3.13 0 1 0 6.26 0 a3.13 3.13 0 1 0 -6.26 0zM559.37 287.5 a3.13 3.13 0 1 0 6.26 0 a3.13 3.13 0 1 0 -6.26 0zM384.37 237.5 a3.13 3.13 0 1 0 6.26 0 a3.13 3.13 0 1 0 -6.26 0z" fill="black"></path>
            <path d="M159.37 112.5 a3.13 3.13 0 1 0 6.26 0 a3.13 3.13 0 1 0 -6.26 0z" fill="black"></path>
            <path d="M609.37 312.5 a3.13 3.13 0 1 0 6.26 0 a3.13 3.13 0 1 0 -6.26 0zM309.37 312.5 a3.13 3.13 0 1 0 6.26 0 a3.13 3.13 0 1 0 -6.26 0zM534.37 287.5 a3.13 3.13 0 1 0 6.26 0 a3.13 3.13 0 1 0 -6.26 0zM509.37 312.5 a3.13 3.13 0 1 0 6.26 0 a3.13 3.13 0 1 0 -6.26 0zM434.37 312.5 a3.13 3.13 0 1 0 6.26 0 a3.13 3.13 0 1 0 -6.26 0zM384.37 287.5 a3.13 3.13 0 1 0 6.26 0 a3.13 3.13 0 1 0 -6.26 0zM359.37 287.5 a3.13 3.13 0 1 0 6.26 0 a3.13 3.13 0 1 0 -6.26 0z" fill="black"></path>
            <path d="M609.37 87.5 a3.13 3.13 0 1 0 6.26 0 a3.13 3.13 0 1 0 -6.26 0zM434.37 112.5 a3.13 3.13 0 1 0 6.26 0 a3.13 3.13 0 1 0 -6.26 0zM609.37 112.5 a3.13 3.13 0 1 0 6.26 0 a3.13 3.13 0 1 0 -6.26 0zM384.37 112.5 a3.13 3.13 0 1 0 6.26 0 a3.13 3.13 0 1 0 -6.26 0zM134.37 62.5 a3.13 3.13 0 1 0 6.26 0 a3.13 3.13 0 1 0 -6.26 0zM534.37 62.5 a3.13 3.13 0 1 0 6.26 0 a3.13 3.13 0 1 0 -6.26 0zM584.37 137.5 a3.13 3.13 0 1 0 6.26 0 a3.13 3.13 0 1 0 -6.26 0z" fill="black"></path>
        </mask>
    </defs>
</svg>