<svg xmlns="http://www.w3.org/2000/svg" version="1.1" xmlns:xlink="http://www.w3.org/1999/xlink" xmlns:svgjs="http://svgjs.com/svgjs" width="1000" height="1000" preserveAspectRatio="none" viewBox="0 0 1000 1000">
    <g mask="url(&quot;#SvgjsMask1069&quot;)" fill="none">
        <rect width="1000" height="1000" x="0" y="0" fill="rgba(40, 123, 97, 1)"></rect>
        <g mask="url(&quot;#SvgjsMask1070&quot;)">
            <path d="M325 725L325 975" stroke-width="8.33" stroke="rgba(44, 131, 104, 1)"></path>
            <path d="M312.5 725 a12.5 12.5 0 1 0 25 0 a12.5 12.5 0 1 0 -25 0zM312.5 975 a12.5 12.5 0 1 0 25 0 a12.5 12.5 0 1 0 -25 0z" fill="rgba(44, 131, 104, 1)"></path>
            <path d="M25 125L25 975" stroke-width="8.33" stroke="rgba(44, 131, 104, 1)"></path>
            <path d="M12.5 125 a12.5 12.5 0 1 0 25 0 a12.5 12.5 0 1 0 -25 0zM12.5 975 a12.5 12.5 0 1 0 25 0 a12.5 12.5 0 1 0 -25 0z" fill="rgba(44, 131, 104, 1)"></path>
            <path d="M175 125L75 225L75 975" stroke-width="8.33" stroke="rgba(44, 131, 104, 1)"></path>
            <path d="M162.5 125 a12.5 12.5 0 1 0 25 0 a12.5 12.5 0 1 0 -25 0zM62.5 975 a12.5 12.5 0 1 0 25 0 a12.5 12.5 0 1 0 -25 0z" fill="rgba(44, 131, 104, 1)"></path>
            <path d="M875 75L625 325L125 325" stroke-width="8.33" stroke="rgba(44, 131, 104, 1)"></path>
            <path d="M862.5 75 a12.5 12.5 0 1 0 25 0 a12.5 12.5 0 1 0 -25 0zM112.5 325 a12.5 12.5 0 1 0 25 0 a12.5 12.5 0 1 0 -25 0z" fill="rgba(44, 131, 104, 1)"></path>
            <path d="M675 75L525 225L125 225" stroke-width="8.33" stroke="rgba(44, 131, 104, 1)"></path>
            <path d="M662.5 75 a12.5 12.5 0 1 0 25 0 a12.5 12.5 0 1 0 -25 0zM112.5 225 a12.5 12.5 0 1 0 25 0 a12.5 12.5 0 1 0 -25 0z" fill="rgba(44, 131, 104, 1)"></path>
            <path d="M725 725L775 725L975 925L975 975" stroke-width="8.33" stroke="rgba(44, 131, 104, 1)"></path>
            <path d="M712.5 725 a12.5 12.5 0 1 0 25 0 a12.5 12.5 0 1 0 -25 0zM962.5 975 a12.5 12.5 0 1 0 25 0 a12.5 12.5 0 1 0 -25 0z" fill="rgba(44, 131, 104, 1)"></path>
            <path d="M725 575L725 275L875 125L975 125" stroke-width="8.33" stroke="rgba(44, 131, 104, 1)"></path>
            <path d="M712.5 575 a12.5 12.5 0 1 0 25 0 a12.5 12.5 0 1 0 -25 0zM962.5 125 a12.5 12.5 0 1 0 25 0 a12.5 12.5 0 1 0 -25 0z" fill="rgba(44, 131, 104, 1)"></path>
            <path d="M625 625L725 625L875 775L925 775L975 725L975 525L775 325L775 275L875 175L925 175" stroke-width="8.33" stroke="rgba(44, 131, 104, 1)"></path>
            <path d="M612.5 625 a12.5 12.5 0 1 0 25 0 a12.5 12.5 0 1 0 -25 0zM912.5 175 a12.5 12.5 0 1 0 25 0 a12.5 12.5 0 1 0 -25 0z" fill="rgba(44, 131, 104, 1)"></path>
            <path d="M575 575L675 575" stroke-width="8.33" stroke="rgba(44, 131, 104, 1)"></path>
            <path d="M562.5 575 a12.5 12.5 0 1 0 25 0 a12.5 12.5 0 1 0 -25 0zM662.5 575 a12.5 12.5 0 1 0 25 0 a12.5 12.5 0 1 0 -25 0z" fill="rgba(44, 131, 104, 1)"></path>
            <path d="M775 525L925 675L925 725" stroke-width="8.33" stroke="rgba(44, 131, 104, 1)"></path>
            <path d="M762.5 525 a12.5 12.5 0 1 0 25 0 a12.5 12.5 0 1 0 -25 0zM912.5 725 a12.5 12.5 0 1 0 25 0 a12.5 12.5 0 1 0 -25 0z" fill="rgba(44, 131, 104, 1)"></path>
            <path d="M175 525L325 375L675 375" stroke-width="8.33" stroke="rgba(44, 131, 104, 1)"></path>
            <path d="M162.5 525 a12.5 12.5 0 1 0 25 0 a12.5 12.5 0 1 0 -25 0zM662.5 375 a12.5 12.5 0 1 0 25 0 a12.5 12.5 0 1 0 -25 0z" fill="rgba(44, 131, 104, 1)"></path>
            <path d="M275 875L125 725L125 375" stroke-width="8.33" stroke="rgba(44, 131, 104, 1)"></path>
            <path d="M262.5 875 a12.5 12.5 0 1 0 25 0 a12.5 12.5 0 1 0 -25 0zM112.5 375 a12.5 12.5 0 1 0 25 0 a12.5 12.5 0 1 0 -25 0z" fill="rgba(44, 131, 104, 1)"></path>
            <path d="M225 925L175 925L125 875L125 775" stroke-width="8.33" stroke="rgba(44, 131, 104, 1)"></path>
            <path d="M212.5 925 a12.5 12.5 0 1 0 25 0 a12.5 12.5 0 1 0 -25 0zM112.5 775 a12.5 12.5 0 1 0 25 0 a12.5 12.5 0 1 0 -25 0z" fill="rgba(44, 131, 104, 1)"></path>
            <path d="M375 75L425 25L925 25L975 75" stroke-width="8.33" stroke="rgba(44, 131, 104, 1)"></path>
            <path d="M362.5 75 a12.5 12.5 0 1 0 25 0 a12.5 12.5 0 1 0 -25 0zM962.5 75 a12.5 12.5 0 1 0 25 0 a12.5 12.5 0 1 0 -25 0z" fill="rgba(44, 131, 104, 1)"></path>
            <path d="M675 725L925 975" stroke-width="8.33" stroke="rgba(44, 131, 104, 1)"></path>
            <path d="M662.5 725 a12.5 12.5 0 1 0 25 0 a12.5 12.5 0 1 0 -25 0zM912.5 975 a12.5 12.5 0 1 0 25 0 a12.5 12.5 0 1 0 -25 0z" fill="rgba(44, 131, 104, 1)"></path>
            <path d="M625 175L725 75L825 75" stroke-width="8.33" stroke="rgba(44, 131, 104, 1)"></path>
            <path d="M612.5 175 a12.5 12.5 0 1 0 25 0 a12.5 12.5 0 1 0 -25 0zM812.5 75 a12.5 12.5 0 1 0 25 0 a12.5 12.5 0 1 0 -25 0z" fill="rgba(44, 131, 104, 1)"></path>
            <path d="M375 975L675 675L725 675" stroke-width="8.33" stroke="rgba(44, 131, 104, 1)"></path>
            <path d="M362.5 975 a12.5 12.5 0 1 0 25 0 a12.5 12.5 0 1 0 -25 0zM712.5 675 a12.5 12.5 0 1 0 25 0 a12.5 12.5 0 1 0 -25 0z" fill="rgba(44, 131, 104, 1)"></path>
            <path d="M375 25L25 25" stroke-width="8.33" stroke="rgba(44, 131, 104, 1)"></path>
            <path d="M362.5 25 a12.5 12.5 0 1 0 25 0 a12.5 12.5 0 1 0 -25 0zM12.5 25 a12.5 12.5 0 1 0 25 0 a12.5 12.5 0 1 0 -25 0z" fill="rgba(44, 131, 104, 1)"></path>
            <path d="M575 525L475 425L325 425L175 575L175 725L275 825" stroke-width="8.33" stroke="rgba(44, 131, 104, 1)"></path>
            <path d="M562.5 525 a12.5 12.5 0 1 0 25 0 a12.5 12.5 0 1 0 -25 0zM262.5 825 a12.5 12.5 0 1 0 25 0 a12.5 12.5 0 1 0 -25 0z" fill="rgba(44, 131, 104, 1)"></path>
            <path d="M875 375L975 475" stroke-width="8.33" stroke="rgba(44, 131, 104, 1)"></path>
            <path d="M862.5 375 a12.5 12.5 0 1 0 25 0 a12.5 12.5 0 1 0 -25 0zM962.5 475 a12.5 12.5 0 1 0 25 0 a12.5 12.5 0 1 0 -25 0z" fill="rgba(44, 131, 104, 1)"></path>
            <path d="M275 275L125 275" stroke-width="8.33" stroke="rgba(44, 131, 104, 1)"></path>
            <path d="M262.5 275 a12.5 12.5 0 1 0 25 0 a12.5 12.5 0 1 0 -25 0zM112.5 275 a12.5 12.5 0 1 0 25 0 a12.5 12.5 0 1 0 -25 0z" fill="rgba(44, 131, 104, 1)"></path>
            <path d="M575 225L675 225L775 125" stroke-width="8.33" stroke="rgba(44, 131, 104, 1)"></path>
            <path d="M562.5 225 a12.5 12.5 0 1 0 25 0 a12.5 12.5 0 1 0 -25 0zM762.5 125 a12.5 12.5 0 1 0 25 0 a12.5 12.5 0 1 0 -25 0z" fill="rgba(44, 131, 104, 1)"></path>
            <path d="M875 975L625 975L525 875" stroke-width="8.33" stroke="rgba(44, 131, 104, 1)"></path>
            <path d="M862.5 975 a12.5 12.5 0 1 0 25 0 a12.5 12.5 0 1 0 -25 0zM512.5 875 a12.5 12.5 0 1 0 25 0 a12.5 12.5 0 1 0 -25 0z" fill="rgba(44, 131, 104, 1)"></path>
            <path d="M525 925L475 975L425 975" stroke-width="8.33" stroke="rgba(44, 131, 104, 1)"></path>
            <path d="M512.5 925 a12.5 12.5 0 1 0 25 0 a12.5 12.5 0 1 0 -25 0zM412.5 975 a12.5 12.5 0 1 0 25 0 a12.5 12.5 0 1 0 -25 0z" fill="rgba(44, 131, 104, 1)"></path>
            <path d="M425 575L225 575" stroke-width="8.33" stroke="rgba(44, 131, 104, 1)"></path>
            <path d="M412.5 575 a12.5 12.5 0 1 0 25 0 a12.5 12.5 0 1 0 -25 0zM212.5 575 a12.5 12.5 0 1 0 25 0 a12.5 12.5 0 1 0 -25 0z" fill="rgba(44, 131, 104, 1)"></path>
            <path d="M425 875L425 675L525 575L525 525L475 475L325 475L275 525" stroke-width="8.33" stroke="rgba(44, 131, 104, 1)"></path>
            <path d="M412.5 875 a12.5 12.5 0 1 0 25 0 a12.5 12.5 0 1 0 -25 0zM262.5 525 a12.5 12.5 0 1 0 25 0 a12.5 12.5 0 1 0 -25 0z" fill="rgba(44, 131, 104, 1)"></path>
            <path d="M975 275L925 225L875 225L825 275L825 325" stroke-width="8.33" stroke="rgba(44, 131, 104, 1)"></path>
            <path d="M962.5 275 a12.5 12.5 0 1 0 25 0 a12.5 12.5 0 1 0 -25 0zM812.5 325 a12.5 12.5 0 1 0 25 0 a12.5 12.5 0 1 0 -25 0z" fill="rgba(44, 131, 104, 1)"></path>
            <path d="M675 775L575 875" stroke-width="8.33" stroke="rgba(44, 131, 104, 1)"></path>
            <path d="M662.5 775 a12.5 12.5 0 1 0 25 0 a12.5 12.5 0 1 0 -25 0zM562.5 875 a12.5 12.5 0 1 0 25 0 a12.5 12.5 0 1 0 -25 0z" fill="rgba(44, 131, 104, 1)"></path>
            <path d="M425 75L425 175" stroke-width="8.33" stroke="rgba(44, 131, 104, 1)"></path>
            <path d="M412.5 75 a12.5 12.5 0 1 0 25 0 a12.5 12.5 0 1 0 -25 0zM412.5 175 a12.5 12.5 0 1 0 25 0 a12.5 12.5 0 1 0 -25 0z" fill="rgba(44, 131, 104, 1)"></path>
            <path d="M675 825L725 825L825 925" stroke-width="8.33" stroke="rgba(44, 131, 104, 1)"></path>
            <path d="M662.5 825 a12.5 12.5 0 1 0 25 0 a12.5 12.5 0 1 0 -25 0zM812.5 925 a12.5 12.5 0 1 0 25 0 a12.5 12.5 0 1 0 -25 0z" fill="rgba(44, 131, 104, 1)"></path>
            <path d="M125 75L325 75L375 125L375 175" stroke-width="8.33" stroke="rgba(44, 131, 104, 1)"></path>
            <path d="M112.5 75 a12.5 12.5 0 1 0 25 0 a12.5 12.5 0 1 0 -25 0zM362.5 175 a12.5 12.5 0 1 0 25 0 a12.5 12.5 0 1 0 -25 0z" fill="rgba(44, 131, 104, 1)"></path>
            <path d="M375 625L375 925" stroke-width="8.33" stroke="rgba(44, 131, 104, 1)"></path>
            <path d="M362.5 625 a12.5 12.5 0 1 0 25 0 a12.5 12.5 0 1 0 -25 0zM362.5 925 a12.5 12.5 0 1 0 25 0 a12.5 12.5 0 1 0 -25 0z" fill="rgba(44, 131, 104, 1)"></path>
            <path d="M625 525L525 425" stroke-width="8.33" stroke="rgba(44, 131, 104, 1)"></path>
            <path d="M612.5 525 a12.5 12.5 0 1 0 25 0 a12.5 12.5 0 1 0 -25 0zM512.5 425 a12.5 12.5 0 1 0 25 0 a12.5 12.5 0 1 0 -25 0z" fill="rgba(44, 131, 104, 1)"></path>
            <path d="M475 675L525 725L575 725L625 675" stroke-width="8.33" stroke="rgba(44, 131, 104, 1)"></path>
            <path d="M462.5 675 a12.5 12.5 0 1 0 25 0 a12.5 12.5 0 1 0 -25 0zM612.5 675 a12.5 12.5 0 1 0 25 0 a12.5 12.5 0 1 0 -25 0z" fill="rgba(44, 131, 104, 1)"></path>
            <path d="M475 75L625 75" stroke-width="8.33" stroke="rgba(44, 131, 104, 1)"></path>
            <path d="M462.5 75 a12.5 12.5 0 1 0 25 0 a12.5 12.5 0 1 0 -25 0zM612.5 75 a12.5 12.5 0 1 0 25 0 a12.5 12.5 0 1 0 -25 0z" fill="rgba(44, 131, 104, 1)"></path>
            <path d="M875 525L875 475L825 425" stroke-width="8.33" stroke="rgba(44, 131, 104, 1)"></path>
            <path d="M862.5 525 a12.5 12.5 0 1 0 25 0 a12.5 12.5 0 1 0 -25 0zM812.5 425 a12.5 12.5 0 1 0 25 0 a12.5 12.5 0 1 0 -25 0z" fill="rgba(44, 131, 104, 1)"></path>
            <path d="M575 125L475 125" stroke-width="8.33" stroke="rgba(44, 131, 104, 1)"></path>
            <path d="M562.5 125 a12.5 12.5 0 1 0 25 0 a12.5 12.5 0 1 0 -25 0zM462.5 125 a12.5 12.5 0 1 0 25 0 a12.5 12.5 0 1 0 -25 0z" fill="rgba(44, 131, 104, 1)"></path>
            <path d="M325 525L475 525" stroke-width="8.33" stroke="rgba(44, 131, 104, 1)"></path>
            <path d="M312.5 525 a12.5 12.5 0 1 0 25 0 a12.5 12.5 0 1 0 -25 0zM462.5 525 a12.5 12.5 0 1 0 25 0 a12.5 12.5 0 1 0 -25 0z" fill="rgba(44, 131, 104, 1)"></path>
            <path d="M275 975L175 975" stroke-width="8.33" stroke="rgba(44, 131, 104, 1)"></path>
            <path d="M262.5 975 a12.5 12.5 0 1 0 25 0 a12.5 12.5 0 1 0 -25 0zM162.5 975 a12.5 12.5 0 1 0 25 0 a12.5 12.5 0 1 0 -25 0z" fill="rgba(44, 131, 104, 1)"></path>
            <path d="M225 625L275 625L325 675" stroke-width="8.33" stroke="rgba(44, 131, 104, 1)"></path>
            <path d="M212.5 625 a12.5 12.5 0 1 0 25 0 a12.5 12.5 0 1 0 -25 0zM312.5 675 a12.5 12.5 0 1 0 25 0 a12.5 12.5 0 1 0 -25 0z" fill="rgba(44, 131, 104, 1)"></path>
            <path d="M475 275L625 275" stroke-width="8.33" stroke="rgba(44, 131, 104, 1)"></path>
            <path d="M462.5 275 a12.5 12.5 0 1 0 25 0 a12.5 12.5 0 1 0 -25 0zM612.5 275 a12.5 12.5 0 1 0 25 0 a12.5 12.5 0 1 0 -25 0z" fill="rgba(44, 131, 104, 1)"></path>
            <path d="M925 375L925 275" stroke-width="8.33" stroke="rgba(44, 131, 104, 1)"></path>
            <path d="M912.5 375 a12.5 12.5 0 1 0 25 0 a12.5 12.5 0 1 0 -25 0zM912.5 275 a12.5 12.5 0 1 0 25 0 a12.5 12.5 0 1 0 -25 0z" fill="rgba(44, 131, 104, 1)"></path>
        </g>
    </g>
    <defs>
        <mask id="SvgjsMask1069">
            <rect width="1000" height="1000" fill="#ffffff"></rect>
        </mask>
        <mask id="SvgjsMask1070">
            <rect width="1000" height="1000" fill="white"></rect>
            <path d="M318.75 725 a6.25 6.25 0 1 0 12.5 0 a6.25 6.25 0 1 0 -12.5 0zM318.75 975 a6.25 6.25 0 1 0 12.5 0 a6.25 6.25 0 1 0 -12.5 0z" fill="black"></path>
            <path d="M18.75 125 a6.25 6.25 0 1 0 12.5 0 a6.25 6.25 0 1 0 -12.5 0zM18.75 975 a6.25 6.25 0 1 0 12.5 0 a6.25 6.25 0 1 0 -12.5 0z" fill="black"></path>
            <path d="M168.75 125 a6.25 6.25 0 1 0 12.5 0 a6.25 6.25 0 1 0 -12.5 0zM68.75 975 a6.25 6.25 0 1 0 12.5 0 a6.25 6.25 0 1 0 -12.5 0z" fill="black"></path>
            <path d="M868.75 75 a6.25 6.25 0 1 0 12.5 0 a6.25 6.25 0 1 0 -12.5 0zM118.75 325 a6.25 6.25 0 1 0 12.5 0 a6.25 6.25 0 1 0 -12.5 0z" fill="black"></path>
            <path d="M668.75 75 a6.25 6.25 0 1 0 12.5 0 a6.25 6.25 0 1 0 -12.5 0zM118.75 225 a6.25 6.25 0 1 0 12.5 0 a6.25 6.25 0 1 0 -12.5 0z" fill="black"></path>
            <path d="M718.75 725 a6.25 6.25 0 1 0 12.5 0 a6.25 6.25 0 1 0 -12.5 0zM968.75 975 a6.25 6.25 0 1 0 12.5 0 a6.25 6.25 0 1 0 -12.5 0z" fill="black"></path>
            <path d="M718.75 575 a6.25 6.25 0 1 0 12.5 0 a6.25 6.25 0 1 0 -12.5 0zM968.75 125 a6.25 6.25 0 1 0 12.5 0 a6.25 6.25 0 1 0 -12.5 0z" fill="black"></path>
            <path d="M618.75 625 a6.25 6.25 0 1 0 12.5 0 a6.25 6.25 0 1 0 -12.5 0zM918.75 175 a6.25 6.25 0 1 0 12.5 0 a6.25 6.25 0 1 0 -12.5 0z" fill="black"></path>
            <path d="M568.75 575 a6.25 6.25 0 1 0 12.5 0 a6.25 6.25 0 1 0 -12.5 0zM668.75 575 a6.25 6.25 0 1 0 12.5 0 a6.25 6.25 0 1 0 -12.5 0z" fill="black"></path>
            <path d="M768.75 525 a6.25 6.25 0 1 0 12.5 0 a6.25 6.25 0 1 0 -12.5 0zM918.75 725 a6.25 6.25 0 1 0 12.5 0 a6.25 6.25 0 1 0 -12.5 0z" fill="black"></path>
            <path d="M168.75 525 a6.25 6.25 0 1 0 12.5 0 a6.25 6.25 0 1 0 -12.5 0zM668.75 375 a6.25 6.25 0 1 0 12.5 0 a6.25 6.25 0 1 0 -12.5 0z" fill="black"></path>
            <path d="M268.75 875 a6.25 6.25 0 1 0 12.5 0 a6.25 6.25 0 1 0 -12.5 0zM118.75 375 a6.25 6.25 0 1 0 12.5 0 a6.25 6.25 0 1 0 -12.5 0z" fill="black"></path>
            <path d="M218.75 925 a6.25 6.25 0 1 0 12.5 0 a6.25 6.25 0 1 0 -12.5 0zM118.75 775 a6.25 6.25 0 1 0 12.5 0 a6.25 6.25 0 1 0 -12.5 0z" fill="black"></path>
            <path d="M368.75 75 a6.25 6.25 0 1 0 12.5 0 a6.25 6.25 0 1 0 -12.5 0zM968.75 75 a6.25 6.25 0 1 0 12.5 0 a6.25 6.25 0 1 0 -12.5 0z" fill="black"></path>
            <path d="M668.75 725 a6.25 6.25 0 1 0 12.5 0 a6.25 6.25 0 1 0 -12.5 0zM918.75 975 a6.25 6.25 0 1 0 12.5 0 a6.25 6.25 0 1 0 -12.5 0z" fill="black"></path>
            <path d="M618.75 175 a6.25 6.25 0 1 0 12.5 0 a6.25 6.25 0 1 0 -12.5 0zM818.75 75 a6.25 6.25 0 1 0 12.5 0 a6.25 6.25 0 1 0 -12.5 0z" fill="black"></path>
            <path d="M368.75 975 a6.25 6.25 0 1 0 12.5 0 a6.25 6.25 0 1 0 -12.5 0zM718.75 675 a6.25 6.25 0 1 0 12.5 0 a6.25 6.25 0 1 0 -12.5 0z" fill="black"></path>
            <path d="M368.75 25 a6.25 6.25 0 1 0 12.5 0 a6.25 6.25 0 1 0 -12.5 0zM18.75 25 a6.25 6.25 0 1 0 12.5 0 a6.25 6.25 0 1 0 -12.5 0z" fill="black"></path>
            <path d="M568.75 525 a6.25 6.25 0 1 0 12.5 0 a6.25 6.25 0 1 0 -12.5 0zM268.75 825 a6.25 6.25 0 1 0 12.5 0 a6.25 6.25 0 1 0 -12.5 0z" fill="black"></path>
            <path d="M868.75 375 a6.25 6.25 0 1 0 12.5 0 a6.25 6.25 0 1 0 -12.5 0zM968.75 475 a6.25 6.25 0 1 0 12.5 0 a6.25 6.25 0 1 0 -12.5 0z" fill="black"></path>
            <path d="M268.75 275 a6.25 6.25 0 1 0 12.5 0 a6.25 6.25 0 1 0 -12.5 0zM118.75 275 a6.25 6.25 0 1 0 12.5 0 a6.25 6.25 0 1 0 -12.5 0z" fill="black"></path>
            <path d="M568.75 225 a6.25 6.25 0 1 0 12.5 0 a6.25 6.25 0 1 0 -12.5 0zM768.75 125 a6.25 6.25 0 1 0 12.5 0 a6.25 6.25 0 1 0 -12.5 0z" fill="black"></path>
            <path d="M868.75 975 a6.25 6.25 0 1 0 12.5 0 a6.25 6.25 0 1 0 -12.5 0zM518.75 875 a6.25 6.25 0 1 0 12.5 0 a6.25 6.25 0 1 0 -12.5 0z" fill="black"></path>
            <path d="M518.75 925 a6.25 6.25 0 1 0 12.5 0 a6.25 6.25 0 1 0 -12.5 0zM418.75 975 a6.25 6.25 0 1 0 12.5 0 a6.25 6.25 0 1 0 -12.5 0z" fill="black"></path>
            <path d="M418.75 575 a6.25 6.25 0 1 0 12.5 0 a6.25 6.25 0 1 0 -12.5 0zM218.75 575 a6.25 6.25 0 1 0 12.5 0 a6.25 6.25 0 1 0 -12.5 0z" fill="black"></path>
            <path d="M418.75 875 a6.25 6.25 0 1 0 12.5 0 a6.25 6.25 0 1 0 -12.5 0zM268.75 525 a6.25 6.25 0 1 0 12.5 0 a6.25 6.25 0 1 0 -12.5 0z" fill="black"></path>
            <path d="M968.75 275 a6.25 6.25 0 1 0 12.5 0 a6.25 6.25 0 1 0 -12.5 0zM818.75 325 a6.25 6.25 0 1 0 12.5 0 a6.25 6.25 0 1 0 -12.5 0z" fill="black"></path>
            <path d="M668.75 775 a6.25 6.25 0 1 0 12.5 0 a6.25 6.25 0 1 0 -12.5 0zM568.75 875 a6.25 6.25 0 1 0 12.5 0 a6.25 6.25 0 1 0 -12.5 0z" fill="black"></path>
            <path d="M418.75 75 a6.25 6.25 0 1 0 12.5 0 a6.25 6.25 0 1 0 -12.5 0zM418.75 175 a6.25 6.25 0 1 0 12.5 0 a6.25 6.25 0 1 0 -12.5 0z" fill="black"></path>
            <path d="M668.75 825 a6.25 6.25 0 1 0 12.5 0 a6.25 6.25 0 1 0 -12.5 0zM818.75 925 a6.25 6.25 0 1 0 12.5 0 a6.25 6.25 0 1 0 -12.5 0z" fill="black"></path>
            <path d="M118.75 75 a6.25 6.25 0 1 0 12.5 0 a6.25 6.25 0 1 0 -12.5 0zM368.75 175 a6.25 6.25 0 1 0 12.5 0 a6.25 6.25 0 1 0 -12.5 0z" fill="black"></path>
            <path d="M368.75 625 a6.25 6.25 0 1 0 12.5 0 a6.25 6.25 0 1 0 -12.5 0zM368.75 925 a6.25 6.25 0 1 0 12.5 0 a6.25 6.25 0 1 0 -12.5 0z" fill="black"></path>
            <path d="M618.75 525 a6.25 6.25 0 1 0 12.5 0 a6.25 6.25 0 1 0 -12.5 0zM518.75 425 a6.25 6.25 0 1 0 12.5 0 a6.25 6.25 0 1 0 -12.5 0z" fill="black"></path>
            <path d="M468.75 675 a6.25 6.25 0 1 0 12.5 0 a6.25 6.25 0 1 0 -12.5 0zM618.75 675 a6.25 6.25 0 1 0 12.5 0 a6.25 6.25 0 1 0 -12.5 0z" fill="black"></path>
            <path d="M468.75 75 a6.25 6.25 0 1 0 12.5 0 a6.25 6.25 0 1 0 -12.5 0zM618.75 75 a6.25 6.25 0 1 0 12.5 0 a6.25 6.25 0 1 0 -12.5 0z" fill="black"></path>
            <path d="M868.75 525 a6.25 6.25 0 1 0 12.5 0 a6.25 6.25 0 1 0 -12.5 0zM818.75 425 a6.25 6.25 0 1 0 12.5 0 a6.25 6.25 0 1 0 -12.5 0z" fill="black"></path>
            <path d="M568.75 125 a6.25 6.25 0 1 0 12.5 0 a6.25 6.25 0 1 0 -12.5 0zM468.75 125 a6.25 6.25 0 1 0 12.5 0 a6.25 6.25 0 1 0 -12.5 0z" fill="black"></path>
            <path d="M318.75 525 a6.25 6.25 0 1 0 12.5 0 a6.25 6.25 0 1 0 -12.5 0zM468.75 525 a6.25 6.25 0 1 0 12.5 0 a6.25 6.25 0 1 0 -12.5 0z" fill="black"></path>
            <path d="M268.75 975 a6.25 6.25 0 1 0 12.5 0 a6.25 6.25 0 1 0 -12.5 0zM168.75 975 a6.25 6.25 0 1 0 12.5 0 a6.25 6.25 0 1 0 -12.5 0z" fill="black"></path>
            <path d="M218.75 625 a6.25 6.25 0 1 0 12.5 0 a6.25 6.25 0 1 0 -12.5 0zM318.75 675 a6.25 6.25 0 1 0 12.5 0 a6.25 6.25 0 1 0 -12.5 0z" fill="black"></path>
            <path d="M468.75 275 a6.25 6.25 0 1 0 12.5 0 a6.25 6.25 0 1 0 -12.5 0zM618.75 275 a6.25 6.25 0 1 0 12.5 0 a6.25 6.25 0 1 0 -12.5 0z" fill="black"></path>
            <path d="M918.75 375 a6.25 6.25 0 1 0 12.5 0 a6.25 6.25 0 1 0 -12.5 0zM918.75 275 a6.25 6.25 0 1 0 12.5 0 a6.25 6.25 0 1 0 -12.5 0z" fill="black"></path>
        </mask>
    </defs>
</svg>