<svg xmlns="http://www.w3.org/2000/svg" version="1.1" xmlns:xlink="http://www.w3.org/1999/xlink" xmlns:svgjs="http://svgjs.com/svgjs" width="577" height="320" preserveAspectRatio="none" viewBox="0 0 577 320">
        <!-- ANIMATIONS -->
        <animate xlink:href="#path" 
        attributeType="CSS" 
        attributeName="stroke" 
        from="white" 
        to="#b8e8b3" 
        dur="3s" 
        repeatCount="indefinite"
        values="white; #b8e8b3; white"
        keyTimes="0; 0.5; 1"
        fill="freeze"
        id="anim-one"
        />

        <animate xlink:href="#path-2" 
            attributeType="CSS" 
            attributeName="stroke" 
            from="white" 
            to="#b8e8b3" 
            dur="5s" 
            repeatCount="indefinite"
            values="white; #b8e8b3; white"
            keyTimes="0; 0.5; 1"
            fill="freeze"
        />

        <animate xlink:href="#path-3" 
            attributeType="CSS" 
            attributeName="stroke" 
            from="white" 
            to="#b8e8b3" 
            dur="3s" 
            repeatCount="indefinite"
            values="white; #b8e8b3; white"
            keyTimes="0; 0.5; 1"
            fill="freeze"
        />

     
    <g mask="url(&quot;#SvgjsMask1325&quot;)" fill="none">
        <g mask="url(&quot;#SvgjsMask1326&quot;)">
            <path id="path-3" d="M295 165L305 155M135 165L145 155L155 155L165 155M25 165L35 175L45 175L55 175M185 165L195 155L205 155L215 155L225 155L235 155L245 155L255 155M265 165L275 155L285 155L295 155L305 145M85 155L95 155M175 165L185 155L195 145L205 145L215 145L225 145L235 145L245 145L255 145L265 145L275 145L285 145L295 145L305 135L315 135M355 165L365 175L375 175M75 155L85 165L95 175M65 165L75 165L85 175M285 165L295 175L305 175L315 175M-5 165L5 165L15 165L25 165L35 165L45 165L55 165L65 165L75 155L85 155L95 165L105 165L115 165L125 165L135 165L145 165L155 165L165 165L175 165L185 165L195 165L205 165L215 165L225 165L235 165L245 165L255 165L265 165L275 165L285 165L295 165L305 165L315 165L325 165L335 165L345 165L355 165L365 165L375 165L385 165L395 165L405 165L415 165L425 165L435 165L445 165L455 165" stroke="rgba(255, 255, 255, 1)" stroke-width="1.67"></path>
            <path d="M452.5 165 a2.5 2.5 0 1 0 5 0 a2.5 2.5 0 1 0 -5 0zM302.5 155 a2.5 2.5 0 1 0 5 0 a2.5 2.5 0 1 0 -5 0zM162.5 155 a2.5 2.5 0 1 0 5 0 a2.5 2.5 0 1 0 -5 0zM52.5 175 a2.5 2.5 0 1 0 5 0 a2.5 2.5 0 1 0 -5 0zM252.5 155 a2.5 2.5 0 1 0 5 0 a2.5 2.5 0 1 0 -5 0zM302.5 145 a2.5 2.5 0 1 0 5 0 a2.5 2.5 0 1 0 -5 0zM92.5 155 a2.5 2.5 0 1 0 5 0 a2.5 2.5 0 1 0 -5 0zM312.5 135 a2.5 2.5 0 1 0 5 0 a2.5 2.5 0 1 0 -5 0zM372.5 175 a2.5 2.5 0 1 0 5 0 a2.5 2.5 0 1 0 -5 0zM92.5 175 a2.5 2.5 0 1 0 5 0 a2.5 2.5 0 1 0 -5 0zM82.5 175 a2.5 2.5 0 1 0 5 0 a2.5 2.5 0 1 0 -5 0zM312.5 175 a2.5 2.5 0 1 0 5 0 a2.5 2.5 0 1 0 -5 0z" fill="rgba(255, 255, 255, 1)"></path>
            <path d="M175 135L185 125M165 145L175 145L185 145M115 145L125 155L135 155M155 145L165 135L175 125L185 115L195 115M145 145L155 135L165 125M-5 155L5 155L15 155L25 155L35 155L45 155L55 155L65 155L75 145L85 145L95 145L105 145L115 145L125 145L135 145L145 145L155 145L165 145L175 135L185 135L195 135" stroke="rgba(255, 255, 255, 1)" stroke-width="1.67"></path>
            <path d="M192.5 135 a2.5 2.5 0 1 0 5 0 a2.5 2.5 0 1 0 -5 0zM182.5 125 a2.5 2.5 0 1 0 5 0 a2.5 2.5 0 1 0 -5 0zM182.5 145 a2.5 2.5 0 1 0 5 0 a2.5 2.5 0 1 0 -5 0zM132.5 155 a2.5 2.5 0 1 0 5 0 a2.5 2.5 0 1 0 -5 0zM192.5 115 a2.5 2.5 0 1 0 5 0 a2.5 2.5 0 1 0 -5 0zM162.5 125 a2.5 2.5 0 1 0 5 0 a2.5 2.5 0 1 0 -5 0z" fill="rgba(255, 255, 255, 1)"></path>
            <path d="M85 185L95 195L105 195L115 185L125 185L135 185M205 175L215 185L225 185L235 185L245 185M75 185L85 195M95 185L105 185M55 185L65 195L75 195M145 175L155 185L165 185M-5 175L5 175L15 175L25 185L35 185L45 185L55 185L65 185L75 185L85 185L95 185L105 175L115 175L125 175L135 175L145 175L155 175L165 175L175 175L185 175L195 175L205 175L215 175L225 175" stroke="rgba(255, 255, 255, 1)" stroke-width="1.67"></path>
            <path d="M222.5 175 a2.5 2.5 0 1 0 5 0 a2.5 2.5 0 1 0 -5 0zM132.5 185 a2.5 2.5 0 1 0 5 0 a2.5 2.5 0 1 0 -5 0zM242.5 185 a2.5 2.5 0 1 0 5 0 a2.5 2.5 0 1 0 -5 0zM82.5 195 a2.5 2.5 0 1 0 5 0 a2.5 2.5 0 1 0 -5 0zM102.5 185 a2.5 2.5 0 1 0 5 0 a2.5 2.5 0 1 0 -5 0zM72.5 195 a2.5 2.5 0 1 0 5 0 a2.5 2.5 0 1 0 -5 0zM162.5 185 a2.5 2.5 0 1 0 5 0 a2.5 2.5 0 1 0 -5 0z" fill="rgba(255, 255, 255, 1)"></path>
            <path d="M105 135L115 125L125 125L135 125L145 125M85 135L95 125M55 145L65 135L75 125M-5 145L5 145L15 145L25 145L35 145L45 145L55 145L65 145L75 135L85 135L95 135L105 135L115 135L125 135L135 135" stroke="rgba(255, 255, 255, 1)" stroke-width="1.67"></path>
            <path d="M132.5 135 a2.5 2.5 0 1 0 5 0 a2.5 2.5 0 1 0 -5 0zM142.5 125 a2.5 2.5 0 1 0 5 0 a2.5 2.5 0 1 0 -5 0zM92.5 125 a2.5 2.5 0 1 0 5 0 a2.5 2.5 0 1 0 -5 0zM72.5 125 a2.5 2.5 0 1 0 5 0 a2.5 2.5 0 1 0 -5 0z" fill="rgba(255, 255, 255, 1)"></path>
            <path d="M-5 185L5 185L15 185" stroke="rgba(255, 255, 255, 1)" stroke-width="1.67"></path>
            <path d="M12.5 185 a2.5 2.5 0 1 0 5 0 a2.5 2.5 0 1 0 -5 0z" fill="rgba(255, 255, 255, 1)"></path>
            <path d="M45 135L55 135M-5 135L5 135L15 135L25 135L35 135L45 135L55 125" stroke="rgba(255, 255, 255, 1)" stroke-width="1.67"></path>
            <path d="M52.5 125 a2.5 2.5 0 1 0 5 0 a2.5 2.5 0 1 0 -5 0zM52.5 135 a2.5 2.5 0 1 0 5 0 a2.5 2.5 0 1 0 -5 0z" fill="rgba(255, 255, 255, 1)"></path>
            <path d="M-5 195L5 195L15 195L25 195" stroke="rgba(255, 255, 255, 1)" stroke-width="1.67"></path>
            <path d="M22.5 195 a2.5 2.5 0 1 0 5 0 a2.5 2.5 0 1 0 -5 0z" fill="rgba(255, 255, 255, 1)"></path>
            <path d="M265 95L275 105L285 115L295 115L305 115L315 115M215 105L225 115M115 115L125 105L135 105M235 105L245 105L255 105L265 105M95 115L105 105L115 105M305 95L315 105M205 105L215 115L225 125L235 135M85 115L95 105M-5 125L5 125L15 125L25 125L35 125L45 125L55 115L65 115L75 115L85 115L95 115L105 115L115 115L125 115L135 115L145 115L155 105L165 105L175 105L185 105L195 105L205 105L215 105L225 105L235 105L245 95L255 95L265 95L275 95L285 95L295 95L305 95L315 95L325 95L335 105" stroke="rgba(255, 255, 255, 1)" stroke-width="1.67"></path>
            <path d="M332.5 105 a2.5 2.5 0 1 0 5 0 a2.5 2.5 0 1 0 -5 0zM312.5 115 a2.5 2.5 0 1 0 5 0 a2.5 2.5 0 1 0 -5 0zM222.5 115 a2.5 2.5 0 1 0 5 0 a2.5 2.5 0 1 0 -5 0zM132.5 105 a2.5 2.5 0 1 0 5 0 a2.5 2.5 0 1 0 -5 0zM262.5 105 a2.5 2.5 0 1 0 5 0 a2.5 2.5 0 1 0 -5 0zM112.5 105 a2.5 2.5 0 1 0 5 0 a2.5 2.5 0 1 0 -5 0zM312.5 105 a2.5 2.5 0 1 0 5 0 a2.5 2.5 0 1 0 -5 0zM232.5 135 a2.5 2.5 0 1 0 5 0 a2.5 2.5 0 1 0 -5 0zM92.5 105 a2.5 2.5 0 1 0 5 0 a2.5 2.5 0 1 0 -5 0z" fill="rgba(255, 255, 255, 1)"></path>
            <path d="M25 205L35 215L45 215L55 215L65 215M135 205L145 215M265 215L275 225L285 235L295 235L305 235L315 235L325 235L335 235L345 235L355 235M425 215L435 225L445 225L455 215L465 215L475 215L485 205L495 205M355 215L365 225M205 205L215 195L225 195L235 195L245 195L255 185L265 185L275 185M175 205L185 195L195 195M155 205L165 215L175 215L185 215L195 215L205 215L215 215L225 215L235 215L245 225L255 225L265 225L275 235M405 215L415 225L425 225M385 215L395 205M75 205L85 215M-5 205L5 205L15 205L25 205L35 205L45 205L55 205L65 205L75 205L85 205L95 205L105 205L115 205L125 205L135 205L145 205L155 205L165 205L175 205L185 205L195 205L205 205L215 205L225 205L235 205L245 215L255 215L265 215L275 215L285 215L295 215L305 215L315 215L325 215L335 215L345 215L355 215L365 215L375 215L385 215L395 215L405 215L415 215L425 215L435 215" stroke="rgba(255, 255, 255, 1)" stroke-width="1.67"></path>
            <path d="M432.5 215 a2.5 2.5 0 1 0 5 0 a2.5 2.5 0 1 0 -5 0zM62.5 215 a2.5 2.5 0 1 0 5 0 a2.5 2.5 0 1 0 -5 0zM142.5 215 a2.5 2.5 0 1 0 5 0 a2.5 2.5 0 1 0 -5 0zM352.5 235 a2.5 2.5 0 1 0 5 0 a2.5 2.5 0 1 0 -5 0zM492.5 205 a2.5 2.5 0 1 0 5 0 a2.5 2.5 0 1 0 -5 0zM362.5 225 a2.5 2.5 0 1 0 5 0 a2.5 2.5 0 1 0 -5 0zM272.5 185 a2.5 2.5 0 1 0 5 0 a2.5 2.5 0 1 0 -5 0zM192.5 195 a2.5 2.5 0 1 0 5 0 a2.5 2.5 0 1 0 -5 0zM272.5 235 a2.5 2.5 0 1 0 5 0 a2.5 2.5 0 1 0 -5 0zM422.5 225 a2.5 2.5 0 1 0 5 0 a2.5 2.5 0 1 0 -5 0zM392.5 205 a2.5 2.5 0 1 0 5 0 a2.5 2.5 0 1 0 -5 0zM82.5 215 a2.5 2.5 0 1 0 5 0 a2.5 2.5 0 1 0 -5 0z" fill="rgba(255, 255, 255, 1)"></path>
            <path d="M505 55L515 65L525 65L535 65L545 65L555 65M475 55L485 65L495 65L505 65L515 75L525 75M165 95L175 85L185 75L195 75L205 75L215 75L225 75L235 75L245 75L255 75L265 75M345 85L355 85M465 55L475 65L485 75L495 75L505 75L515 85M135 95L145 85M215 95L225 95M435 55L445 65M405 65L415 65L425 65L435 65L445 75L455 75M385 75L395 85L405 85L415 85L425 85M445 55L455 45L465 45L475 45L485 45M495 55L505 45L515 45L525 45L535 45L545 45L555 45M105 95L115 85M-5 115L5 115L15 115L25 115L35 115L45 115L55 105L65 105L75 105L85 95L95 95L105 95L115 95L125 95L135 95L145 95L155 95L165 95L175 95L185 95L195 95L205 95L215 95L225 85L235 85L245 85L255 85L265 85L275 85L285 85L295 85L305 85L315 85L325 85L335 85L345 85L355 75L365 75L375 75L385 75L395 75L405 65L415 55L425 55L435 55L445 55L455 55L465 55L475 55L485 55L495 55L505 55L515 55L525 55" stroke="rgba(255, 255, 255, 1)" stroke-width="1.67"></path>
            <path d="M522.5 55 a2.5 2.5 0 1 0 5 0 a2.5 2.5 0 1 0 -5 0zM552.5 65 a2.5 2.5 0 1 0 5 0 a2.5 2.5 0 1 0 -5 0zM522.5 75 a2.5 2.5 0 1 0 5 0 a2.5 2.5 0 1 0 -5 0zM262.5 75 a2.5 2.5 0 1 0 5 0 a2.5 2.5 0 1 0 -5 0zM352.5 85 a2.5 2.5 0 1 0 5 0 a2.5 2.5 0 1 0 -5 0zM512.5 85 a2.5 2.5 0 1 0 5 0 a2.5 2.5 0 1 0 -5 0zM142.5 85 a2.5 2.5 0 1 0 5 0 a2.5 2.5 0 1 0 -5 0zM222.5 95 a2.5 2.5 0 1 0 5 0 a2.5 2.5 0 1 0 -5 0zM442.5 65 a2.5 2.5 0 1 0 5 0 a2.5 2.5 0 1 0 -5 0zM452.5 75 a2.5 2.5 0 1 0 5 0 a2.5 2.5 0 1 0 -5 0zM422.5 85 a2.5 2.5 0 1 0 5 0 a2.5 2.5 0 1 0 -5 0zM482.5 45 a2.5 2.5 0 1 0 5 0 a2.5 2.5 0 1 0 -5 0zM552.5 45 a2.5 2.5 0 1 0 5 0 a2.5 2.5 0 1 0 -5 0zM112.5 85 a2.5 2.5 0 1 0 5 0 a2.5 2.5 0 1 0 -5 0z" fill="rgba(255, 255, 255, 1)"></path>
            <path id="path-2" d="M305 245L315 255L325 265L335 265L345 265M445 245L455 255L465 255L475 255L485 255M55 235L65 225L75 215M175 245L185 235L195 235L205 235M165 245L175 235L185 225L195 225M225 245L235 235M395 245L405 235L415 235L425 235L435 235M35 225L45 225M295 245L305 255L315 265L325 275L335 275L345 275L355 275L365 275L375 275L385 275L395 275L405 275L415 275L425 275L435 265M85 235L95 225L105 225L115 225L125 225L135 225L145 225L155 235L165 235L175 225M195 245L205 255L215 255M-5 215L5 215L15 215L25 225L35 225L45 235L55 235L65 235L75 235L85 235L95 235L105 235L115 235L125 235L135 235L145 245L155 245L165 245L175 245L185 245L195 245L205 245L215 245L225 245L235 245L245 245L255 245L265 245L275 245L285 245L295 245L305 245L315 245L325 245L335 245L345 245L355 245L365 245L375 245L385 245L395 245L405 245L415 245L425 245L435 245L445 245L455 245" stroke="rgba(255, 255, 255, 1)" stroke-width="1.67"></path>
            <path d="M452.5 245 a2.5 2.5 0 1 0 5 0 a2.5 2.5 0 1 0 -5 0zM342.5 265 a2.5 2.5 0 1 0 5 0 a2.5 2.5 0 1 0 -5 0zM482.5 255 a2.5 2.5 0 1 0 5 0 a2.5 2.5 0 1 0 -5 0zM72.5 215 a2.5 2.5 0 1 0 5 0 a2.5 2.5 0 1 0 -5 0zM202.5 235 a2.5 2.5 0 1 0 5 0 a2.5 2.5 0 1 0 -5 0zM192.5 225 a2.5 2.5 0 1 0 5 0 a2.5 2.5 0 1 0 -5 0zM232.5 235 a2.5 2.5 0 1 0 5 0 a2.5 2.5 0 1 0 -5 0zM432.5 235 a2.5 2.5 0 1 0 5 0 a2.5 2.5 0 1 0 -5 0zM42.5 225 a2.5 2.5 0 1 0 5 0 a2.5 2.5 0 1 0 -5 0zM432.5 265 a2.5 2.5 0 1 0 5 0 a2.5 2.5 0 1 0 -5 0zM172.5 225 a2.5 2.5 0 1 0 5 0 a2.5 2.5 0 1 0 -5 0zM212.5 255 a2.5 2.5 0 1 0 5 0 a2.5 2.5 0 1 0 -5 0z" fill="rgba(255, 255, 255, 1)"></path>
            <path d="M35 105L45 105M65 95L75 85M55 95L65 85M-5 105L5 105L15 105L25 105L35 105L45 95L55 95L65 95L75 95L85 85L95 85" stroke="rgba(255, 255, 255, 1)" stroke-width="1.67"></path>
            <path d="M92.5 85 a2.5 2.5 0 1 0 5 0 a2.5 2.5 0 1 0 -5 0zM42.5 105 a2.5 2.5 0 1 0 5 0 a2.5 2.5 0 1 0 -5 0zM72.5 85 a2.5 2.5 0 1 0 5 0 a2.5 2.5 0 1 0 -5 0zM62.5 85 a2.5 2.5 0 1 0 5 0 a2.5 2.5 0 1 0 -5 0z" fill="rgba(255, 255, 255, 1)"></path>
            <path d="M265 255L275 265L285 275L295 275L305 275L315 275M215 265L225 265L235 265L245 265L255 265M145 255L155 255L165 255L175 255M5 225L15 225M-5 225L5 225L15 235L25 235L35 235L45 245L55 245L65 245L75 245L85 245L95 245L105 245L115 245L125 245L135 245L145 255L155 265L165 265L175 265L185 265L195 265L205 265L215 265L225 255L235 255L245 255L255 255L265 255L275 255" stroke="rgba(255, 255, 255, 1)" stroke-width="1.67"></path>
            <path d="M272.5 255 a2.5 2.5 0 1 0 5 0 a2.5 2.5 0 1 0 -5 0zM312.5 275 a2.5 2.5 0 1 0 5 0 a2.5 2.5 0 1 0 -5 0zM252.5 265 a2.5 2.5 0 1 0 5 0 a2.5 2.5 0 1 0 -5 0zM172.5 255 a2.5 2.5 0 1 0 5 0 a2.5 2.5 0 1 0 -5 0zM12.5 225 a2.5 2.5 0 1 0 5 0 a2.5 2.5 0 1 0 -5 0z" fill="rgba(255, 255, 255, 1)"></path>
            <path d="M45 85L55 85M-5 95L5 95L15 95L25 95L35 95L45 85L55 75L65 75L75 75L85 75L95 75L105 75L115 75L125 75" stroke="rgba(255, 255, 255, 1)" stroke-width="1.67"></path>
            <path d="M122.5 75 a2.5 2.5 0 1 0 5 0 a2.5 2.5 0 1 0 -5 0zM52.5 85 a2.5 2.5 0 1 0 5 0 a2.5 2.5 0 1 0 -5 0z" fill="rgba(255, 255, 255, 1)"></path>
            <path d="M155 275L165 285L175 285L185 285L195 285L205 285L215 285L225 285L235 285L245 285L255 285L265 295M295 285L305 295L315 295L325 295M345 285L355 295M45 255L55 265M105 255L115 265L125 265L135 265L145 275L155 285L165 295L175 295L185 295L195 295L205 295M265 285L275 275M365 285L375 295M285 285L295 295M25 245L35 255L45 265M65 255L75 265L85 265L95 265L105 265L115 275L125 275L135 275L145 285M-5 235L5 235L15 245L25 245L35 245L45 255L55 255L65 255L75 255L85 255L95 255L105 255L115 255L125 255L135 255L145 265L155 275L165 275L175 275L185 275L195 275L205 275L215 275L225 275L235 275L245 275L255 275L265 285L275 285L285 285L295 285L305 285L315 285L325 285L335 285L345 285L355 285L365 285L375 285L385 285" stroke="rgba(255, 255, 255, 1)" stroke-width="1.67"></path>
            <path d="M382.5 285 a2.5 2.5 0 1 0 5 0 a2.5 2.5 0 1 0 -5 0zM262.5 295 a2.5 2.5 0 1 0 5 0 a2.5 2.5 0 1 0 -5 0zM322.5 295 a2.5 2.5 0 1 0 5 0 a2.5 2.5 0 1 0 -5 0zM352.5 295 a2.5 2.5 0 1 0 5 0 a2.5 2.5 0 1 0 -5 0zM52.5 265 a2.5 2.5 0 1 0 5 0 a2.5 2.5 0 1 0 -5 0zM202.5 295 a2.5 2.5 0 1 0 5 0 a2.5 2.5 0 1 0 -5 0zM272.5 275 a2.5 2.5 0 1 0 5 0 a2.5 2.5 0 1 0 -5 0zM372.5 295 a2.5 2.5 0 1 0 5 0 a2.5 2.5 0 1 0 -5 0zM292.5 295 a2.5 2.5 0 1 0 5 0 a2.5 2.5 0 1 0 -5 0zM42.5 265 a2.5 2.5 0 1 0 5 0 a2.5 2.5 0 1 0 -5 0zM142.5 285 a2.5 2.5 0 1 0 5 0 a2.5 2.5 0 1 0 -5 0z" fill="rgba(255, 255, 255, 1)"></path>
            <path id="path" d="M235 35L245 45L255 45L265 45M5 85L15 75M245 35L255 25M195 45L205 35L215 35L225 35L235 25L245 25M465 35L475 25M375 25L385 35M475 35L485 35L495 35L505 35L515 35L525 35L535 35L545 35L555 35M165 45L175 55L185 65L195 65L205 65L215 65L225 65L235 65L245 65L255 55L265 55L275 55L285 55L295 65L305 65L315 65L325 65L335 65L345 65L355 55L365 55L375 45L385 45L395 45L405 45L415 45M145 55L155 55L165 55L175 65M75 65L85 55L95 55L105 55L115 55L125 55L135 45L145 45L155 35L165 35L175 35L185 35L195 35M255 35L265 35L275 35L285 35L295 35M305 25L315 35L325 35L335 35L345 35L355 45L365 45L375 35M225 45L235 55L245 55M405 25L415 25L425 25L435 25L445 25L455 25L465 25M-5 85L5 85L15 85L25 85L35 85L45 75L55 65L65 65L75 65L85 65L95 65L105 65L115 65L125 65L135 65L145 55L155 45L165 45L175 45L185 45L195 45L205 45L215 45L225 45L235 35L245 35L255 35L265 25L275 25L285 25L295 25L305 25L315 25L325 25L335 25L345 25L355 25L365 25L375 25L385 25L395 25L405 25L415 35L425 35L435 35L445 35L455 35L465 35L475 35L485 25L495 25L505 25L515 25L525 25L535 25L545 25" stroke="rgba(255, 255, 255, 1)" stroke-width="1.67"></path>
            <path d="M542.5 25 a2.5 2.5 0 1 0 5 0 a2.5 2.5 0 1 0 -5 0zM262.5 45 a2.5 2.5 0 1 0 5 0 a2.5 2.5 0 1 0 -5 0zM12.5 75 a2.5 2.5 0 1 0 5 0 a2.5 2.5 0 1 0 -5 0zM252.5 25 a2.5 2.5 0 1 0 5 0 a2.5 2.5 0 1 0 -5 0zM242.5 25 a2.5 2.5 0 1 0 5 0 a2.5 2.5 0 1 0 -5 0zM472.5 25 a2.5 2.5 0 1 0 5 0 a2.5 2.5 0 1 0 -5 0zM382.5 35 a2.5 2.5 0 1 0 5 0 a2.5 2.5 0 1 0 -5 0zM552.5 35 a2.5 2.5 0 1 0 5 0 a2.5 2.5 0 1 0 -5 0zM412.5 45 a2.5 2.5 0 1 0 5 0 a2.5 2.5 0 1 0 -5 0zM172.5 65 a2.5 2.5 0 1 0 5 0 a2.5 2.5 0 1 0 -5 0zM192.5 35 a2.5 2.5 0 1 0 5 0 a2.5 2.5 0 1 0 -5 0zM292.5 35 a2.5 2.5 0 1 0 5 0 a2.5 2.5 0 1 0 -5 0zM372.5 35 a2.5 2.5 0 1 0 5 0 a2.5 2.5 0 1 0 -5 0zM242.5 55 a2.5 2.5 0 1 0 5 0 a2.5 2.5 0 1 0 -5 0zM462.5 25 a2.5 2.5 0 1 0 5 0 a2.5 2.5 0 1 0 -5 0z" fill="rgba(255, 255, 255, 1)"></path>
        </g>
    </g>
    <defs>
        <mask id="SvgjsMask1325">
            <rect width="577" height="320" fill="#ffffff"></rect>
        </mask>
        <mask id="SvgjsMask1326">
            <rect width="577" height="320" fill="white"></rect>
            <path d="M453.75 165 a1.25 1.25 0 1 0 2.5 0 a1.25 1.25 0 1 0 -2.5 0zM303.75 155 a1.25 1.25 0 1 0 2.5 0 a1.25 1.25 0 1 0 -2.5 0zM163.75 155 a1.25 1.25 0 1 0 2.5 0 a1.25 1.25 0 1 0 -2.5 0zM53.75 175 a1.25 1.25 0 1 0 2.5 0 a1.25 1.25 0 1 0 -2.5 0zM253.75 155 a1.25 1.25 0 1 0 2.5 0 a1.25 1.25 0 1 0 -2.5 0zM303.75 145 a1.25 1.25 0 1 0 2.5 0 a1.25 1.25 0 1 0 -2.5 0zM93.75 155 a1.25 1.25 0 1 0 2.5 0 a1.25 1.25 0 1 0 -2.5 0zM313.75 135 a1.25 1.25 0 1 0 2.5 0 a1.25 1.25 0 1 0 -2.5 0zM373.75 175 a1.25 1.25 0 1 0 2.5 0 a1.25 1.25 0 1 0 -2.5 0zM93.75 175 a1.25 1.25 0 1 0 2.5 0 a1.25 1.25 0 1 0 -2.5 0zM83.75 175 a1.25 1.25 0 1 0 2.5 0 a1.25 1.25 0 1 0 -2.5 0zM313.75 175 a1.25 1.25 0 1 0 2.5 0 a1.25 1.25 0 1 0 -2.5 0z" fill="black"></path>
            <path d="M193.75 135 a1.25 1.25 0 1 0 2.5 0 a1.25 1.25 0 1 0 -2.5 0zM183.75 125 a1.25 1.25 0 1 0 2.5 0 a1.25 1.25 0 1 0 -2.5 0zM183.75 145 a1.25 1.25 0 1 0 2.5 0 a1.25 1.25 0 1 0 -2.5 0zM133.75 155 a1.25 1.25 0 1 0 2.5 0 a1.25 1.25 0 1 0 -2.5 0zM193.75 115 a1.25 1.25 0 1 0 2.5 0 a1.25 1.25 0 1 0 -2.5 0zM163.75 125 a1.25 1.25 0 1 0 2.5 0 a1.25 1.25 0 1 0 -2.5 0z" fill="black"></path>
            <path d="M223.75 175 a1.25 1.25 0 1 0 2.5 0 a1.25 1.25 0 1 0 -2.5 0zM133.75 185 a1.25 1.25 0 1 0 2.5 0 a1.25 1.25 0 1 0 -2.5 0zM243.75 185 a1.25 1.25 0 1 0 2.5 0 a1.25 1.25 0 1 0 -2.5 0zM83.75 195 a1.25 1.25 0 1 0 2.5 0 a1.25 1.25 0 1 0 -2.5 0zM103.75 185 a1.25 1.25 0 1 0 2.5 0 a1.25 1.25 0 1 0 -2.5 0zM73.75 195 a1.25 1.25 0 1 0 2.5 0 a1.25 1.25 0 1 0 -2.5 0zM163.75 185 a1.25 1.25 0 1 0 2.5 0 a1.25 1.25 0 1 0 -2.5 0z" fill="black"></path>
            <path d="M133.75 135 a1.25 1.25 0 1 0 2.5 0 a1.25 1.25 0 1 0 -2.5 0zM143.75 125 a1.25 1.25 0 1 0 2.5 0 a1.25 1.25 0 1 0 -2.5 0zM93.75 125 a1.25 1.25 0 1 0 2.5 0 a1.25 1.25 0 1 0 -2.5 0zM73.75 125 a1.25 1.25 0 1 0 2.5 0 a1.25 1.25 0 1 0 -2.5 0z" fill="black"></path>
            <path d="M13.75 185 a1.25 1.25 0 1 0 2.5 0 a1.25 1.25 0 1 0 -2.5 0z" fill="black"></path>
            <path d="M53.75 125 a1.25 1.25 0 1 0 2.5 0 a1.25 1.25 0 1 0 -2.5 0zM53.75 135 a1.25 1.25 0 1 0 2.5 0 a1.25 1.25 0 1 0 -2.5 0z" fill="black"></path>
            <path d="M23.75 195 a1.25 1.25 0 1 0 2.5 0 a1.25 1.25 0 1 0 -2.5 0z" fill="black"></path>
            <path d="M333.75 105 a1.25 1.25 0 1 0 2.5 0 a1.25 1.25 0 1 0 -2.5 0zM313.75 115 a1.25 1.25 0 1 0 2.5 0 a1.25 1.25 0 1 0 -2.5 0zM223.75 115 a1.25 1.25 0 1 0 2.5 0 a1.25 1.25 0 1 0 -2.5 0zM133.75 105 a1.25 1.25 0 1 0 2.5 0 a1.25 1.25 0 1 0 -2.5 0zM263.75 105 a1.25 1.25 0 1 0 2.5 0 a1.25 1.25 0 1 0 -2.5 0zM113.75 105 a1.25 1.25 0 1 0 2.5 0 a1.25 1.25 0 1 0 -2.5 0zM313.75 105 a1.25 1.25 0 1 0 2.5 0 a1.25 1.25 0 1 0 -2.5 0zM233.75 135 a1.25 1.25 0 1 0 2.5 0 a1.25 1.25 0 1 0 -2.5 0zM93.75 105 a1.25 1.25 0 1 0 2.5 0 a1.25 1.25 0 1 0 -2.5 0z" fill="black"></path>
            <path d="M433.75 215 a1.25 1.25 0 1 0 2.5 0 a1.25 1.25 0 1 0 -2.5 0zM63.75 215 a1.25 1.25 0 1 0 2.5 0 a1.25 1.25 0 1 0 -2.5 0zM143.75 215 a1.25 1.25 0 1 0 2.5 0 a1.25 1.25 0 1 0 -2.5 0zM353.75 235 a1.25 1.25 0 1 0 2.5 0 a1.25 1.25 0 1 0 -2.5 0zM493.75 205 a1.25 1.25 0 1 0 2.5 0 a1.25 1.25 0 1 0 -2.5 0zM363.75 225 a1.25 1.25 0 1 0 2.5 0 a1.25 1.25 0 1 0 -2.5 0zM273.75 185 a1.25 1.25 0 1 0 2.5 0 a1.25 1.25 0 1 0 -2.5 0zM193.75 195 a1.25 1.25 0 1 0 2.5 0 a1.25 1.25 0 1 0 -2.5 0zM273.75 235 a1.25 1.25 0 1 0 2.5 0 a1.25 1.25 0 1 0 -2.5 0zM423.75 225 a1.25 1.25 0 1 0 2.5 0 a1.25 1.25 0 1 0 -2.5 0zM393.75 205 a1.25 1.25 0 1 0 2.5 0 a1.25 1.25 0 1 0 -2.5 0zM83.75 215 a1.25 1.25 0 1 0 2.5 0 a1.25 1.25 0 1 0 -2.5 0z" fill="black"></path>
            <path d="M523.75 55 a1.25 1.25 0 1 0 2.5 0 a1.25 1.25 0 1 0 -2.5 0zM553.75 65 a1.25 1.25 0 1 0 2.5 0 a1.25 1.25 0 1 0 -2.5 0zM523.75 75 a1.25 1.25 0 1 0 2.5 0 a1.25 1.25 0 1 0 -2.5 0zM263.75 75 a1.25 1.25 0 1 0 2.5 0 a1.25 1.25 0 1 0 -2.5 0zM353.75 85 a1.25 1.25 0 1 0 2.5 0 a1.25 1.25 0 1 0 -2.5 0zM513.75 85 a1.25 1.25 0 1 0 2.5 0 a1.25 1.25 0 1 0 -2.5 0zM143.75 85 a1.25 1.25 0 1 0 2.5 0 a1.25 1.25 0 1 0 -2.5 0zM223.75 95 a1.25 1.25 0 1 0 2.5 0 a1.25 1.25 0 1 0 -2.5 0zM443.75 65 a1.25 1.25 0 1 0 2.5 0 a1.25 1.25 0 1 0 -2.5 0zM453.75 75 a1.25 1.25 0 1 0 2.5 0 a1.25 1.25 0 1 0 -2.5 0zM423.75 85 a1.25 1.25 0 1 0 2.5 0 a1.25 1.25 0 1 0 -2.5 0zM483.75 45 a1.25 1.25 0 1 0 2.5 0 a1.25 1.25 0 1 0 -2.5 0zM553.75 45 a1.25 1.25 0 1 0 2.5 0 a1.25 1.25 0 1 0 -2.5 0zM113.75 85 a1.25 1.25 0 1 0 2.5 0 a1.25 1.25 0 1 0 -2.5 0z" fill="black"></path>
            <path d="M453.75 245 a1.25 1.25 0 1 0 2.5 0 a1.25 1.25 0 1 0 -2.5 0zM343.75 265 a1.25 1.25 0 1 0 2.5 0 a1.25 1.25 0 1 0 -2.5 0zM483.75 255 a1.25 1.25 0 1 0 2.5 0 a1.25 1.25 0 1 0 -2.5 0zM73.75 215 a1.25 1.25 0 1 0 2.5 0 a1.25 1.25 0 1 0 -2.5 0zM203.75 235 a1.25 1.25 0 1 0 2.5 0 a1.25 1.25 0 1 0 -2.5 0zM193.75 225 a1.25 1.25 0 1 0 2.5 0 a1.25 1.25 0 1 0 -2.5 0zM233.75 235 a1.25 1.25 0 1 0 2.5 0 a1.25 1.25 0 1 0 -2.5 0zM433.75 235 a1.25 1.25 0 1 0 2.5 0 a1.25 1.25 0 1 0 -2.5 0zM43.75 225 a1.25 1.25 0 1 0 2.5 0 a1.25 1.25 0 1 0 -2.5 0zM433.75 265 a1.25 1.25 0 1 0 2.5 0 a1.25 1.25 0 1 0 -2.5 0zM173.75 225 a1.25 1.25 0 1 0 2.5 0 a1.25 1.25 0 1 0 -2.5 0zM213.75 255 a1.25 1.25 0 1 0 2.5 0 a1.25 1.25 0 1 0 -2.5 0z" fill="black"></path>
            <path d="M93.75 85 a1.25 1.25 0 1 0 2.5 0 a1.25 1.25 0 1 0 -2.5 0zM43.75 105 a1.25 1.25 0 1 0 2.5 0 a1.25 1.25 0 1 0 -2.5 0zM73.75 85 a1.25 1.25 0 1 0 2.5 0 a1.25 1.25 0 1 0 -2.5 0zM63.75 85 a1.25 1.25 0 1 0 2.5 0 a1.25 1.25 0 1 0 -2.5 0z" fill="black"></path>
            <path d="M273.75 255 a1.25 1.25 0 1 0 2.5 0 a1.25 1.25 0 1 0 -2.5 0zM313.75 275 a1.25 1.25 0 1 0 2.5 0 a1.25 1.25 0 1 0 -2.5 0zM253.75 265 a1.25 1.25 0 1 0 2.5 0 a1.25 1.25 0 1 0 -2.5 0zM173.75 255 a1.25 1.25 0 1 0 2.5 0 a1.25 1.25 0 1 0 -2.5 0zM13.75 225 a1.25 1.25 0 1 0 2.5 0 a1.25 1.25 0 1 0 -2.5 0z" fill="black"></path>
            <path d="M123.75 75 a1.25 1.25 0 1 0 2.5 0 a1.25 1.25 0 1 0 -2.5 0zM53.75 85 a1.25 1.25 0 1 0 2.5 0 a1.25 1.25 0 1 0 -2.5 0z" fill="black"></path>
            <path d="M383.75 285 a1.25 1.25 0 1 0 2.5 0 a1.25 1.25 0 1 0 -2.5 0zM263.75 295 a1.25 1.25 0 1 0 2.5 0 a1.25 1.25 0 1 0 -2.5 0zM323.75 295 a1.25 1.25 0 1 0 2.5 0 a1.25 1.25 0 1 0 -2.5 0zM353.75 295 a1.25 1.25 0 1 0 2.5 0 a1.25 1.25 0 1 0 -2.5 0zM53.75 265 a1.25 1.25 0 1 0 2.5 0 a1.25 1.25 0 1 0 -2.5 0zM203.75 295 a1.25 1.25 0 1 0 2.5 0 a1.25 1.25 0 1 0 -2.5 0zM273.75 275 a1.25 1.25 0 1 0 2.5 0 a1.25 1.25 0 1 0 -2.5 0zM373.75 295 a1.25 1.25 0 1 0 2.5 0 a1.25 1.25 0 1 0 -2.5 0zM293.75 295 a1.25 1.25 0 1 0 2.5 0 a1.25 1.25 0 1 0 -2.5 0zM43.75 265 a1.25 1.25 0 1 0 2.5 0 a1.25 1.25 0 1 0 -2.5 0zM143.75 285 a1.25 1.25 0 1 0 2.5 0 a1.25 1.25 0 1 0 -2.5 0z" fill="black"></path>
            <path d="M543.75 25 a1.25 1.25 0 1 0 2.5 0 a1.25 1.25 0 1 0 -2.5 0zM263.75 45 a1.25 1.25 0 1 0 2.5 0 a1.25 1.25 0 1 0 -2.5 0zM13.75 75 a1.25 1.25 0 1 0 2.5 0 a1.25 1.25 0 1 0 -2.5 0zM253.75 25 a1.25 1.25 0 1 0 2.5 0 a1.25 1.25 0 1 0 -2.5 0zM243.75 25 a1.25 1.25 0 1 0 2.5 0 a1.25 1.25 0 1 0 -2.5 0zM473.75 25 a1.25 1.25 0 1 0 2.5 0 a1.25 1.25 0 1 0 -2.5 0zM383.75 35 a1.25 1.25 0 1 0 2.5 0 a1.25 1.25 0 1 0 -2.5 0zM553.75 35 a1.25 1.25 0 1 0 2.5 0 a1.25 1.25 0 1 0 -2.5 0zM413.75 45 a1.25 1.25 0 1 0 2.5 0 a1.25 1.25 0 1 0 -2.5 0zM173.75 65 a1.25 1.25 0 1 0 2.5 0 a1.25 1.25 0 1 0 -2.5 0zM193.75 35 a1.25 1.25 0 1 0 2.5 0 a1.25 1.25 0 1 0 -2.5 0zM293.75 35 a1.25 1.25 0 1 0 2.5 0 a1.25 1.25 0 1 0 -2.5 0zM373.75 35 a1.25 1.25 0 1 0 2.5 0 a1.25 1.25 0 1 0 -2.5 0zM243.75 55 a1.25 1.25 0 1 0 2.5 0 a1.25 1.25 0 1 0 -2.5 0zM463.75 25 a1.25 1.25 0 1 0 2.5 0 a1.25 1.25 0 1 0 -2.5 0z" fill="black"></path>
        </mask>
    </defs>
</svg>