<svg xmlns="http://www.w3.org/2000/svg" version="1.1" xmlns:xlink="http://www.w3.org/1999/xlink" xmlns:svgjs="http://svgjs.com/svgjs" width="500" height="500" preserveAspectRatio="none" viewBox="0 0 500 500">
    <g mask="url(&quot;#SvgjsMask1320&quot;)" fill="none">
        <g mask="url(&quot;#SvgjsMask1321&quot;)">
            <path d="M252 420L228 396L228 372M252 444L228 420M252 348L228 324L228 300L228 276L228 252M252 516L252 492L252 468L252 444L252 420L252 396L252 372L252 348L252 324L252 300" stroke="rgba(255, 255, 255, 1)" stroke-width="4"></path>
            <path d="M246 300 a6 6 0 1 0 12 0 a6 6 0 1 0 -12 0zM222 372 a6 6 0 1 0 12 0 a6 6 0 1 0 -12 0zM222 420 a6 6 0 1 0 12 0 a6 6 0 1 0 -12 0zM222 252 a6 6 0 1 0 12 0 a6 6 0 1 0 -12 0z" fill="rgba(255, 255, 255, 1)"></path>
            <path d="M228 516L228 492L228 468" stroke="rgba(255, 255, 255, 1)" stroke-width="4"></path>
            <path d="M222 468 a6 6 0 1 0 12 0 a6 6 0 1 0 -12 0z" fill="rgba(255, 255, 255, 1)"></path>
            <path d="M276 516L276 492L276 468L276 444L276 420L276 396L276 372L276 348" stroke="rgba(255, 255, 255, 1)" stroke-width="4"></path>
            <path d="M270 348 a6 6 0 1 0 12 0 a6 6 0 1 0 -12 0z" fill="rgba(255, 255, 255, 1)"></path>
            <path d="M156 156L132 132L132 108L108 84M156 204L132 180L132 156M180 252L204 228L204 204M156 228L180 204L180 180L180 156L180 132M204 516L204 492L204 468L204 444L204 420L204 396L180 372L180 348L180 324L180 300L180 276L180 252L156 228L156 204L156 180L156 156L156 132" stroke="rgba(255, 255, 255, 1)" stroke-width="4"></path>
            <path d="M150 132 a6 6 0 1 0 12 0 a6 6 0 1 0 -12 0zM102 84 a6 6 0 1 0 12 0 a6 6 0 1 0 -12 0zM126 156 a6 6 0 1 0 12 0 a6 6 0 1 0 -12 0zM198 204 a6 6 0 1 0 12 0 a6 6 0 1 0 -12 0zM174 132 a6 6 0 1 0 12 0 a6 6 0 1 0 -12 0z" fill="rgba(255, 255, 255, 1)"></path>
            <path d="M300 204L276 180L276 156L276 132L276 108L276 84M300 228L276 204L252 180M300 156L324 132L324 108M300 180L324 156M300 516L300 492L300 468L300 444L300 420L300 396L300 372L300 348L300 324L300 300L300 276L300 252L300 228L300 204L300 180L300 156L300 132" stroke="rgba(255, 255, 255, 1)" stroke-width="4"></path>
            <path d="M294 132 a6 6 0 1 0 12 0 a6 6 0 1 0 -12 0zM270 84 a6 6 0 1 0 12 0 a6 6 0 1 0 -12 0zM246 180 a6 6 0 1 0 12 0 a6 6 0 1 0 -12 0zM318 108 a6 6 0 1 0 12 0 a6 6 0 1 0 -12 0zM318 156 a6 6 0 1 0 12 0 a6 6 0 1 0 -12 0z" fill="rgba(255, 255, 255, 1)"></path>
            <path d="M180 420L180 396M180 516L180 492L180 468L180 444L180 420L156 396L156 372L156 348L156 324L156 300L156 276L156 252L132 228" stroke="rgba(255, 255, 255, 1)" stroke-width="4"></path>
            <path d="M126 228 a6 6 0 1 0 12 0 a6 6 0 1 0 -12 0zM174 396 a6 6 0 1 0 12 0 a6 6 0 1 0 -12 0z" fill="rgba(255, 255, 255, 1)"></path>
            <path d="M324 372L348 348L348 324L348 300L348 276M324 420L348 396L348 372M324 516L324 492L324 468L324 444L324 420L324 396L324 372L324 348L324 324L324 300L324 276L348 252" stroke="rgba(255, 255, 255, 1)" stroke-width="4"></path>
            <path d="M342 252 a6 6 0 1 0 12 0 a6 6 0 1 0 -12 0zM342 276 a6 6 0 1 0 12 0 a6 6 0 1 0 -12 0zM342 372 a6 6 0 1 0 12 0 a6 6 0 1 0 -12 0z" fill="rgba(255, 255, 255, 1)"></path>
            <path d="M156 516L156 492L156 468" stroke="rgba(255, 255, 255, 1)" stroke-width="4"></path>
            <path d="M150 468 a6 6 0 1 0 12 0 a6 6 0 1 0 -12 0z" fill="rgba(255, 255, 255, 1)"></path>
            <path d="M372 348L396 324L396 300M372 252L396 228L396 204L396 180L372 156M348 468L372 444L396 420M348 516L348 492L348 468L348 444L372 420L372 396L372 372L372 348L372 324L372 300L372 276L372 252L372 228" stroke="rgba(255, 255, 255, 1)" stroke-width="4"></path>
            <path d="M366 228 a6 6 0 1 0 12 0 a6 6 0 1 0 -12 0zM390 300 a6 6 0 1 0 12 0 a6 6 0 1 0 -12 0zM366 156 a6 6 0 1 0 12 0 a6 6 0 1 0 -12 0zM390 420 a6 6 0 1 0 12 0 a6 6 0 1 0 -12 0z" fill="rgba(255, 255, 255, 1)"></path>
            <path d="M132 276L108 252M108 180L84 156L84 132L60 108L60 84L60 60M132 372L108 348L108 324M108 204L84 180L60 156M132 516L132 492L132 468L132 444L132 420L132 396L132 372L132 348L132 324L132 300L132 276L132 252L108 228L108 204L108 180L108 156L108 132L84 108" stroke="rgba(255, 255, 255, 1)" stroke-width="4"></path>
            <path d="M78 108 a6 6 0 1 0 12 0 a6 6 0 1 0 -12 0zM102 252 a6 6 0 1 0 12 0 a6 6 0 1 0 -12 0zM54 60 a6 6 0 1 0 12 0 a6 6 0 1 0 -12 0zM102 324 a6 6 0 1 0 12 0 a6 6 0 1 0 -12 0zM54 156 a6 6 0 1 0 12 0 a6 6 0 1 0 -12 0z" fill="rgba(255, 255, 255, 1)"></path>
        </g>
    </g>
    <defs>
        <mask id="SvgjsMask1320">
            <rect width="500" height="500" fill="#ffffff"></rect>
        </mask>
        <mask id="SvgjsMask1321">
            <rect width="500" height="500" fill="white"></rect>
            <path d="M249 300 a3 3 0 1 0 6 0 a3 3 0 1 0 -6 0zM225 372 a3 3 0 1 0 6 0 a3 3 0 1 0 -6 0zM225 420 a3 3 0 1 0 6 0 a3 3 0 1 0 -6 0zM225 252 a3 3 0 1 0 6 0 a3 3 0 1 0 -6 0z" fill="black"></path>
            <path d="M225 468 a3 3 0 1 0 6 0 a3 3 0 1 0 -6 0z" fill="black"></path>
            <path d="M273 348 a3 3 0 1 0 6 0 a3 3 0 1 0 -6 0z" fill="black"></path>
            <path d="M153 132 a3 3 0 1 0 6 0 a3 3 0 1 0 -6 0zM105 84 a3 3 0 1 0 6 0 a3 3 0 1 0 -6 0zM129 156 a3 3 0 1 0 6 0 a3 3 0 1 0 -6 0zM201 204 a3 3 0 1 0 6 0 a3 3 0 1 0 -6 0zM177 132 a3 3 0 1 0 6 0 a3 3 0 1 0 -6 0z" fill="black"></path>
            <path d="M297 132 a3 3 0 1 0 6 0 a3 3 0 1 0 -6 0zM273 84 a3 3 0 1 0 6 0 a3 3 0 1 0 -6 0zM249 180 a3 3 0 1 0 6 0 a3 3 0 1 0 -6 0zM321 108 a3 3 0 1 0 6 0 a3 3 0 1 0 -6 0zM321 156 a3 3 0 1 0 6 0 a3 3 0 1 0 -6 0z" fill="black"></path>
            <path d="M129 228 a3 3 0 1 0 6 0 a3 3 0 1 0 -6 0zM177 396 a3 3 0 1 0 6 0 a3 3 0 1 0 -6 0z" fill="black"></path>
            <path d="M345 252 a3 3 0 1 0 6 0 a3 3 0 1 0 -6 0zM345 276 a3 3 0 1 0 6 0 a3 3 0 1 0 -6 0zM345 372 a3 3 0 1 0 6 0 a3 3 0 1 0 -6 0z" fill="black"></path>
            <path d="M153 468 a3 3 0 1 0 6 0 a3 3 0 1 0 -6 0z" fill="black"></path>
            <path d="M369 228 a3 3 0 1 0 6 0 a3 3 0 1 0 -6 0zM393 300 a3 3 0 1 0 6 0 a3 3 0 1 0 -6 0zM369 156 a3 3 0 1 0 6 0 a3 3 0 1 0 -6 0zM393 420 a3 3 0 1 0 6 0 a3 3 0 1 0 -6 0z" fill="black"></path>
            <path d="M81 108 a3 3 0 1 0 6 0 a3 3 0 1 0 -6 0zM105 252 a3 3 0 1 0 6 0 a3 3 0 1 0 -6 0zM57 60 a3 3 0 1 0 6 0 a3 3 0 1 0 -6 0zM105 324 a3 3 0 1 0 6 0 a3 3 0 1 0 -6 0zM57 156 a3 3 0 1 0 6 0 a3 3 0 1 0 -6 0z" fill="black"></path>
        </mask>
    </defs>
</svg>