<?xml version="1.0" standalone="no"?>
<!DOCTYPE svg PUBLIC "-//W3C//DTD SVG 20010904//EN"
 "http://www.w3.org/TR/2001/REC-SVG-20010904/DTD/svg10.dtd">
<svg version="1.0" xmlns="http://www.w3.org/2000/svg"
 width="50.000000pt" height="50.000000pt" viewBox="0 0 50.000000 50.000000"
 preserveAspectRatio="xMidYMid meet">

<g transform="translate(0.000000,50.000000) scale(0.100000,-0.100000)"
fill="#000000" stroke="none">
<path d="M132 482 c-127 -46 -120 -109 16 -148 137 -40 348 25 306 94 -36 61
-217 91 -322 54z"/>
<path d="M40 324 c0 -82 177 -130 321 -88 68 20 99 48 99 89 l0 32 -52 -26
c-47 -23 -65 -26 -158 -26 -93 0 -111 3 -158 26 l-52 26 0 -33z"/>
<path d="M40 225 c0 -56 67 -95 180 -102 135 -10 240 35 240 102 l0 32 -52
-26 c-47 -23 -65 -26 -158 -26 -93 0 -111 3 -158 26 l-52 26 0 -32z"/>
<path d="M40 124 c0 -82 177 -130 321 -88 68 20 99 48 99 89 l0 32 -52 -26
c-78 -38 -238 -38 -316 0 l-52 26 0 -33z"/>
</g>
</svg>
