<svg xmlns="http://www.w3.org/2000/svg" xmlns:xlink="http://www.w3.org/1999/xlink" width="619" height="619" viewBox="0 0 619 619">
  <defs>
    <clipPath id="clip-path">
      <circle id="Ellipse_15" data-name="Ellipse 15" cx="309.5" cy="309.5" r="309.5" transform="translate(11289 1828)" fill="#fff"/>
    </clipPath>
    <clipPath id="clip-path-2">
      <rect id="Rectangle_23" data-name="Rectangle 23" width="364" height="181" transform="translate(11471 2028)" fill="#fff" stroke="#707070" stroke-width="1"/>
    </clipPath>
  </defs>
  <circle id="Ellipse_14" data-name="Ellipse 14" cx="309.5" cy="309.5" r="309.5" fill="#287b61"/>
  <g id="Mask_Group_6" data-name="Mask Group 6" transform="translate(-11289 -1828)" clip-path="url(#clip-path)">
    <g id="Circuit_Board_1_" data-name="Circuit Board (1)" transform="translate(11278.327 1817.328)">
      <g id="Group_24" data-name="Group 24">
        <path id="Path_1031" data-name="Path 1031" d="M234.793,21.345,64.034,192.1H21.345" fill="none" stroke="#54aa50" stroke-width="7.119"/>
        <path id="Path_1032" data-name="Path 1032" d="M224.121,21.345a10.672,10.672,0,1,0,10.672-10.672,10.672,10.672,0,0,0-10.672,10.672ZM10.672,192.1a10.672,10.672,0,1,0,10.672-10.672A10.672,10.672,0,0,0,10.672,192.1Z" fill="#6cd5b3"/>
        <path id="Path_1033" data-name="Path 1033" d="M448.241,21.345H277.483L21.345,277.483v42.69L320.172,619h42.69" fill="none" stroke="#54aa50" stroke-width="7.119"/>
        <path id="Path_1034" data-name="Path 1034" d="M437.569,21.345a10.672,10.672,0,1,0,10.672-10.672,10.672,10.672,0,0,0-10.672,10.672ZM352.19,619a10.672,10.672,0,1,0,10.672-10.672A10.672,10.672,0,0,0,352.19,619Z" fill="#6cd5b3"/>
        <path id="Path_1035" data-name="Path 1035" d="M21.345,490.931l42.69-42.69h42.69L277.483,619" fill="none" stroke="#54aa50" stroke-width="7.119"/>
        <path id="Path_1036" data-name="Path 1036" d="M10.672,490.931a10.672,10.672,0,1,0,10.672-10.672A10.672,10.672,0,0,0,10.672,490.931ZM266.81,619a10.672,10.672,0,1,0,10.672-10.672A10.672,10.672,0,0,0,266.81,619Z" fill="#6cd5b3"/>
        <path id="Path_1037" data-name="Path 1037" d="M320.172,106.724H234.793l-42.69,42.69V448.241L320.172,576.31H533.621L576.31,619" fill="none" stroke="#54aa50" stroke-width="7.119"/>
        <path id="Path_1038" data-name="Path 1038" d="M309.5,106.724a10.672,10.672,0,1,0,10.672-10.672A10.672,10.672,0,0,0,309.5,106.724ZM565.638,619a10.672,10.672,0,1,0,10.672-10.672A10.672,10.672,0,0,0,565.638,619Z" fill="#6cd5b3"/>
        <path id="Path_1039" data-name="Path 1039" d="M490.931,362.862l-42.69-42.69V149.414L362.862,64.034H277.483" fill="none" stroke="#54aa50" stroke-width="7.119"/>
        <path id="Path_1040" data-name="Path 1040" d="M480.259,362.862a10.672,10.672,0,1,0,10.672-10.672A10.672,10.672,0,0,0,480.259,362.862ZM266.81,64.034a10.672,10.672,0,1,0,10.672-10.672A10.672,10.672,0,0,0,266.81,64.034Z" fill="#6cd5b3"/>
        <path id="Path_1041" data-name="Path 1041" d="M277.483,362.862V149.414" fill="none" stroke="#54aa50" stroke-width="7.119"/>
        <path id="Path_1042" data-name="Path 1042" d="M266.81,362.862a10.672,10.672,0,1,0,10.672-10.672A10.672,10.672,0,0,0,266.81,362.862Zm0-213.448a10.672,10.672,0,1,0,10.672-10.672A10.672,10.672,0,0,0,266.81,149.414Z" fill="#6cd5b3"/>
        <path id="Path_1043" data-name="Path 1043" d="M405.552,490.931l-42.69,42.69h-42.69l-85.379-85.379V149.414" fill="none" stroke="#54aa50" stroke-width="7.119"/>
        <path id="Path_1044" data-name="Path 1044" d="M394.879,490.931a10.672,10.672,0,1,0,10.672-10.672A10.672,10.672,0,0,0,394.879,490.931ZM224.121,149.414a10.672,10.672,0,1,0,10.672-10.672A10.672,10.672,0,0,0,224.121,149.414Z" fill="#6cd5b3"/>
        <path id="Path_1045" data-name="Path 1045" d="M405.552,320.172V234.793l-42.69-42.69h-42.69" fill="none" stroke="#54aa50" stroke-width="7.119"/>
        <path id="Path_1046" data-name="Path 1046" d="M394.879,320.172A10.672,10.672,0,1,0,405.552,309.5,10.672,10.672,0,0,0,394.879,320.172ZM309.5,192.1a10.672,10.672,0,1,0,10.672-10.672A10.672,10.672,0,0,0,309.5,192.1Z" fill="#6cd5b3"/>
        <path id="Path_1047" data-name="Path 1047" d="M490.931,192.1H619" fill="none" stroke="#54aa50" stroke-width="7.119"/>
        <path id="Path_1048" data-name="Path 1048" d="M480.259,192.1a10.672,10.672,0,1,0,10.672-10.672A10.672,10.672,0,0,0,480.259,192.1Zm128.069,0A10.672,10.672,0,1,0,619,181.431,10.672,10.672,0,0,0,608.328,192.1Z" fill="#6cd5b3"/>
        <path id="Path_1049" data-name="Path 1049" d="M533.621,448.241H405.552l-85.379-85.379V234.793" fill="none" stroke="#54aa50" stroke-width="7.119"/>
        <path id="Path_1050" data-name="Path 1050" d="M522.948,448.241a10.672,10.672,0,1,0,10.672-10.672A10.672,10.672,0,0,0,522.948,448.241ZM309.5,234.793a10.672,10.672,0,1,0,10.672-10.672A10.672,10.672,0,0,0,309.5,234.793Z" fill="#6cd5b3"/>
        <path id="Path_1051" data-name="Path 1051" d="M149.414,234.793V405.552" fill="none" stroke="#54aa50" stroke-width="7.119"/>
        <path id="Path_1052" data-name="Path 1052" d="M138.741,234.793a10.672,10.672,0,1,0,10.672-10.672A10.672,10.672,0,0,0,138.741,234.793Zm0,170.759a10.672,10.672,0,1,0,10.672-10.672A10.672,10.672,0,0,0,138.741,405.552Z" fill="#6cd5b3"/>
        <path id="Path_1053" data-name="Path 1053" d="M106.724,619V490.931" fill="none" stroke="#54aa50" stroke-width="7.119"/>
        <path id="Path_1054" data-name="Path 1054" d="M96.052,619a10.672,10.672,0,1,0,10.672-10.672A10.672,10.672,0,0,0,96.052,619Zm0-128.069a10.672,10.672,0,1,0,10.672-10.672A10.672,10.672,0,0,0,96.052,490.931Z" fill="#6cd5b3"/>
        <path id="Path_1055" data-name="Path 1055" d="M64.034,149.414l42.69-42.69V21.345" fill="none" stroke="#54aa50" stroke-width="7.119"/>
        <path id="Path_1056" data-name="Path 1056" d="M53.362,149.414a10.672,10.672,0,1,0,10.672-10.672A10.672,10.672,0,0,0,53.362,149.414ZM96.052,21.345a10.672,10.672,0,1,0,10.672-10.672A10.672,10.672,0,0,0,96.052,21.345Z" fill="#6cd5b3"/>
        <path id="Path_1057" data-name="Path 1057" d="M405.552,405.552H533.621L619,320.172V234.793" fill="none" stroke="#54aa50" stroke-width="7.119"/>
        <path id="Path_1058" data-name="Path 1058" d="M394.879,405.552a10.672,10.672,0,1,0,10.672-10.672A10.672,10.672,0,0,0,394.879,405.552ZM608.328,234.793A10.672,10.672,0,1,0,619,224.121,10.672,10.672,0,0,0,608.328,234.793Z" fill="#6cd5b3"/>
        <path id="Path_1059" data-name="Path 1059" d="M448.241,533.621l42.69-42.69H576.31L619,448.241V362.862" fill="none" stroke="#54aa50" stroke-width="7.119"/>
        <path id="Path_1060" data-name="Path 1060" d="M437.569,533.621a10.672,10.672,0,1,0,10.672-10.672A10.672,10.672,0,0,0,437.569,533.621ZM608.328,362.862A10.672,10.672,0,1,0,619,352.19,10.672,10.672,0,0,0,608.328,362.862Z" fill="#6cd5b3"/>
        <path id="Path_1061" data-name="Path 1061" d="M533.621,362.862l42.69-42.69V234.793" fill="none" stroke="#54aa50" stroke-width="7.119"/>
        <path id="Path_1062" data-name="Path 1062" d="M522.948,362.862a10.672,10.672,0,1,0,10.672-10.672A10.672,10.672,0,0,0,522.948,362.862Zm42.69-128.069a10.672,10.672,0,1,0,10.672-10.672A10.672,10.672,0,0,0,565.638,234.793Z" fill="#6cd5b3"/>
        <path id="Path_1063" data-name="Path 1063" d="M277.483,448.241l42.69,42.69h42.69" fill="none" stroke="#54aa50" stroke-width="7.119"/>
        <path id="Path_1064" data-name="Path 1064" d="M266.81,448.241a10.672,10.672,0,1,0,10.672-10.672A10.672,10.672,0,0,0,266.81,448.241Zm85.379,42.69a10.672,10.672,0,1,0,10.672-10.672A10.672,10.672,0,0,0,352.19,490.931Z" fill="#6cd5b3"/>
        <path id="Path_1065" data-name="Path 1065" d="M448.241,106.724l42.69,42.69H619" fill="none" stroke="#54aa50" stroke-width="7.119"/>
        <path id="Path_1066" data-name="Path 1066" d="M437.569,106.724a10.672,10.672,0,1,0,10.672-10.672A10.672,10.672,0,0,0,437.569,106.724Zm170.759,42.69A10.672,10.672,0,1,0,619,138.741,10.672,10.672,0,0,0,608.328,149.414Z" fill="#6cd5b3"/>
        <path id="Path_1067" data-name="Path 1067" d="M490.931,21.345l-42.69,42.69h-42.69" fill="none" stroke="#54aa50" stroke-width="7.119"/>
        <path id="Path_1068" data-name="Path 1068" d="M480.259,21.345a10.672,10.672,0,1,0,10.672-10.672,10.672,10.672,0,0,0-10.672,10.672Zm-85.379,42.69a10.672,10.672,0,1,0,10.672-10.672A10.672,10.672,0,0,0,394.879,64.034Z" fill="#6cd5b3"/>
        <path id="Path_1069" data-name="Path 1069" d="M64.034,64.034l-42.69,42.69v42.69" fill="none" stroke="#54aa50" stroke-width="7.119"/>
        <path id="Path_1070" data-name="Path 1070" d="M53.362,64.034A10.672,10.672,0,1,0,64.034,53.362,10.672,10.672,0,0,0,53.362,64.034Zm-42.69,85.379a10.672,10.672,0,1,0,10.672-10.672A10.672,10.672,0,0,0,10.672,149.414Z" fill="#6cd5b3"/>
        <path id="Path_1071" data-name="Path 1071" d="M576.31,21.345l-85.379,85.379" fill="none" stroke="#54aa50" stroke-width="7.119"/>
        <path id="Path_1072" data-name="Path 1072" d="M565.638,21.345A10.672,10.672,0,1,0,576.31,10.672a10.672,10.672,0,0,0-10.672,10.672Zm-85.379,85.379a10.672,10.672,0,1,0,10.672-10.672A10.672,10.672,0,0,0,480.259,106.724Z" fill="#6cd5b3"/>
      </g>
    </g>
  </g>
  <g id="Mask_Group_7" data-name="Mask Group 7" transform="translate(-11344 -1809)" clip-path="url(#clip-path-2)">
    <text id="MN" transform="translate(11458 1973)" fill="#fff" font-size="250" font-family="Rubik-Bold, Rubik" font-weight="700" letter-spacing="0.02em"><tspan x="0" y="234">MN</tspan></text>
  </g>
</svg>
