<?xml version="1.0" standalone="no"?>
<!DOCTYPE svg PUBLIC "-//W3C//DTD SVG 20010904//EN"
 "http://www.w3.org/TR/2001/REC-SVG-20010904/DTD/svg10.dtd">
<svg version="1.0" xmlns="http://www.w3.org/2000/svg"
 width="619.000000pt" height="619.000000pt" viewBox="0 0 619.000000 619.000000"
 preserveAspectRatio="xMidYMid meet">
<metadata>
Created by potrace 1.14, written by Peter Selinger 2001-2017
</metadata>
<g transform="translate(0.000000,619.000000) scale(0.100000,-0.100000)"
fill="#000000" stroke="none">
<path d="M2895 6185 c-11 -2 -74 -9 -140 -15 -66 -7 -184 -25 -261 -41 -78
-16 -144 -29 -148 -29 -3 0 -6 -14 -6 -30 0 -19 -9 -40 -24 -55 -45 -45 -107
-45 -152 0 l-24 24 -86 -30 c-494 -174 -975 -507 -1309 -904 -151 -180 -169
-207 -150 -218 25 -14 46 -71 39 -107 -13 -61 -91 -98 -146 -69 -29 16 -39 1
-151 -221 -166 -330 -261 -634 -313 -1010 -25 -176 -25 -596 0 -770 103 -732
422 -1364 936 -1853 419 -399 975 -690 1510 -792 47 -8 96 -18 110 -21 21 -4
22 -3 8 6 -28 17 -24 92 6 127 20 23 32 28 71 28 40 0 51 -5 76 -33 37 -42 39
-92 5 -127 l-24 -24 77 -8 c98 -10 494 -10 592 0 l77 8 -24 24 c-74 74 31 199
124 151 39 -20 52 -44 52 -95 0 -27 -6 -43 -17 -51 -15 -9 -14 -10 7 -6 14 3
63 13 110 21 535 102 1099 398 1514 795 109 104 239 251 333 375 258 339 465
790 548 1189 14 67 28 132 31 146 4 20 3 23 -7 13 -7 -7 -32 -13 -55 -13 -58
0 -93 31 -101 87 -5 39 -2 46 30 78 44 44 95 48 132 11 l24 -24 8 77 c4 42 8
182 7 311 -1 252 -14 389 -59 609 -14 68 -25 125 -25 127 0 2 -12 4 -27 4 -48
1 -93 51 -93 104 0 14 14 41 30 60 l31 34 -42 114 c-82 225 -235 519 -370 708
-514 723 -1270 1179 -2149 1296 -103 14 -535 28 -585 19z m-152 -465 c48 -53
30 -127 -37 -155 -66 -28 -136 17 -136 87 0 49 13 73 48 93 40 22 91 12 125
-25z m1273 6 c56 -56 42 -131 -31 -162 -64 -26 -135 20 -135 89 0 48 13 72 48
91 45 25 80 20 118 -18z m-854 -425 c27 -24 33 -36 33 -71 0 -101 -137 -137
-188 -50 -26 44 -21 78 17 116 45 45 92 47 138 5z m1276 4 c76 -64 33 -175
-67 -175 -20 0 -42 11 -63 29 -27 24 -33 36 -33 71 0 35 6 47 33 71 42 37 89
39 130 4z m433 -4 c44 -44 43 -102 -2 -143 -56 -53 -151 -25 -165 48 -19 100
96 166 167 95z m-2558 -429 c54 -51 27 -149 -47 -168 -96 -24 -165 88 -101
165 40 47 99 48 148 3z m430 -3 c87 -93 -54 -230 -144 -140 -23 24 -29 38 -29
74 0 97 105 137 173 66z m423 -420 c51 -48 38 -128 -27 -163 -41 -22 -75 -17
-116 18 -51 44 -33 139 32 167 31 13 85 2 111 -22z m1684 16 c36 -18 52 -47
52 -90 0 -44 -16 -72 -54 -91 -93 -48 -191 68 -127 150 36 46 80 56 129 31z
m-3416 -426 c13 -6 32 -27 42 -45 l19 -34 91 0 c75 0 96 -3 116 -19 26 -21 39
-44 299 -511 83 -151 157 -283 164 -292 10 -15 18 -7 57 65 204 368 402 715
420 734 21 22 27 23 185 23 163 0 164 0 173 24 25 67 108 86 162 37 27 -24 33
-36 33 -71 0 -35 -6 -47 -34 -72 -29 -26 -40 -30 -77 -25 l-44 5 -2 -805 -3
-805 -24 -19 c-21 -17 -41 -19 -190 -19 -226 0 -211 -14 -211 198 0 150 -2
169 -20 192 -26 34 -26 99 0 133 19 24 20 38 18 249 l-3 223 -143 -267 c-82
-152 -154 -276 -169 -288 -22 -17 -40 -20 -120 -20 -94 0 -95 0 -126 33 -17
17 -93 147 -169 287 l-138 255 0 -477 c0 -572 16 -518 -149 -518 -101 0 -110
-2 -116 -20 -4 -11 -19 -27 -35 -35 -45 -23 -86 -19 -121 13 -26 23 -32 36
-32 71 0 23 5 47 12 54 14 14 16 1593 2 1601 -16 10 -19 61 -6 92 24 57 81 79
139 53z m4292 -23 c94 -94 -39 -226 -138 -137 -27 24 -33 36 -33 71 0 35 6 47
33 71 46 42 93 40 138 -5z m-1903 -78 c14 -13 56 -72 94 -133 39 -60 150 -236
248 -390 98 -154 203 -320 234 -369 l56 -89 3 483 c2 433 4 486 19 502 14 16
35 18 191 18 149 0 178 -2 194 -17 17 -15 18 -47 18 -607 0 -473 3 -599 14
-630 10 -30 11 -47 3 -70 -6 -17 -13 -112 -15 -211 -2 -148 -6 -183 -19 -197
-14 -16 -36 -18 -184 -18 l-167 0 -27 33 c-15 17 -135 195 -265 393 -223 339
-240 361 -264 357 -16 -3 -39 3 -61 16 l-35 20 0 -365 0 -365 26 20 c67 53
164 5 164 -79 0 -91 -106 -135 -171 -71 -16 16 -29 37 -29 46 0 12 -4 14 -19
5 -11 -6 -91 -10 -189 -10 -159 0 -170 1 -188 21 -18 20 -19 49 -19 854 0 805
1 834 19 854 18 20 29 21 182 21 155 0 164 -1 187 -22z m1478 -1197 c23 -23
29 -38 29 -71 0 -89 -100 -133 -169 -74 -26 22 -31 33 -31 71 0 62 40 103 100
103 33 0 48 -6 71 -29z m-2558 -862 c46 -49 32 -125 -28 -154 -41 -19 -58 -19
-95 0 -37 19 -50 43 -50 93 0 92 108 130 173 61z m2560 0 c36 -38 36 -86 1
-128 -33 -39 -84 -50 -122 -25 -41 26 -51 45 -52 90 0 31 6 46 28 66 48 45
100 44 145 -3z m-4272 -418 c53 -54 33 -140 -41 -171 -24 -10 -36 -10 -60 0
-109 45 -85 200 30 200 33 0 48 -6 71 -29z m2560 0 c23 -24 29 -38 29 -73 0
-49 -22 -78 -73 -97 -57 -22 -127 31 -127 97 0 91 107 137 171 73z m410 19
c25 -14 49 -62 49 -97 0 -57 -64 -107 -122 -96 -79 15 -107 115 -49 174 31 31
83 39 122 19z m430 -430 c22 -12 49 -61 49 -89 0 -85 -103 -131 -168 -76 -51
43 -51 107 -1 154 25 23 86 28 120 11z"/>
</g>
</svg>
